<svg version="1.1" xmlns="http://www.w3.org/2000/svg" xmlns:xlink="http://www.w3.org/1999/xlink" width="480.32" height="360" viewBox="0,0,480.32,360"><defs><linearGradient x1="239.84" y1="0" x2="239.84" y2="360" gradientUnits="userSpaceOnUse" id="color-1"><stop offset="0" stop-color="#7e379c" stop-opacity="0"/><stop offset="0.09" stop-color="#80399e" stop-opacity="0.02"/><stop offset="0.22" stop-color="#893fa5" stop-opacity="0.09"/><stop offset="0.36" stop-color="#9749b0" stop-opacity="0.21"/><stop offset="0.52" stop-color="#aa57c0" stop-opacity="0.37"/><stop offset="0.7" stop-color="#c26ad4" stop-opacity="0.57"/><stop offset="0.88" stop-color="#e07fed" stop-opacity="0.82"/><stop offset="1" stop-color="#f690ff"/></linearGradient><linearGradient x1="206.51" y1="290.35" x2="480.16" y2="290.35" gradientUnits="userSpaceOnUse" id="color-2"><stop offset="0" stop-color="#7e379c" stop-opacity="0"/><stop offset="0.09" stop-color="#833ba0" stop-opacity="0.05"/><stop offset="0.24" stop-color="#9246ac" stop-opacity="0.17"/><stop offset="0.45" stop-color="#aa57c0" stop-opacity="0.37"/><stop offset="0.7" stop-color="#cb70db" stop-opacity="0.64"/><stop offset="0.99" stop-color="#f48ffd" stop-opacity="0.99"/><stop offset="1" stop-color="#f690ff"/></linearGradient><linearGradient x1="115199.84" y1="34300.96887" x2="115199.84" y2="25158.09971" gradientUnits="userSpaceOnUse" id="color-3"><stop offset="0" stop-color="#7e379c" stop-opacity="0"/><stop offset="0.09" stop-color="#833ba0" stop-opacity="0.05"/><stop offset="0.24" stop-color="#9246ac" stop-opacity="0.17"/><stop offset="0.45" stop-color="#aa57c0" stop-opacity="0.37"/><stop offset="0.7" stop-color="#cb70db" stop-opacity="0.64"/><stop offset="0.99" stop-color="#f48ffd" stop-opacity="0.99"/><stop offset="1" stop-color="#f690ff"/></linearGradient></defs><g transform="translate(0.16,0)"><g data-paper-data="{&quot;isPaintingLayer&quot;:true}" fill-rule="nonzero" stroke="none" stroke-width="1" stroke-linecap="butt" stroke-linejoin="miter" stroke-miterlimit="10" stroke-dasharray="" stroke-dashoffset="0" style="mix-blend-mode: normal"><g><path d="M-0.16,360v-360h480v360z" fill="#272e4e"/><path d="M-0.16,360v-360h480v360z" fill="url(#color-1)" opacity="0.2"/><g fill="#7d81bd"><g><path d="M165.76,125.22c0,-2.37482 1.92518,-4.3 4.3,-4.3c2.37482,0 4.3,1.92518 4.3,4.3c0,2.37482 -1.92518,4.3 -4.3,4.3c-2.37482,0 -4.3,-1.92518 -4.3,-4.3z"/><path d="M255.79,75.5c0,-2.37482 1.92518,-4.3 4.3,-4.3c2.37482,0 4.3,1.92518 4.3,4.3c0,2.37482 -1.92518,4.3 -4.3,4.3c-2.37482,0 -4.3,-1.92518 -4.3,-4.3z"/><path d="M435.01,147c0,-2.37482 1.92518,-4.3 4.3,-4.3c2.37482,0 4.3,1.92518 4.3,4.3c0,2.37482 -1.92518,4.3 -4.3,4.3c-2.37482,0 -4.3,-1.92518 -4.3,-4.3z"/><path d="M145.43,238.7c0,-2.37482 1.92518,-4.3 4.3,-4.3c2.37482,0 4.3,1.92518 4.3,4.3c0,2.37482 -1.92518,4.3 -4.3,4.3c-2.37482,0 -4.3,-1.92518 -4.3,-4.3z"/><path d="M187.71,33.96c0,-1.18741 0.96259,-2.15 2.15,-2.15c1.18741,0 2.15,0.96259 2.15,2.15c0,1.18741 -0.96259,2.15 -2.15,2.15c-1.18741,0 -2.15,-0.96259 -2.15,-2.15z"/><path d="M306.21,178.82c0,-1.18741 0.96259,-2.15 2.15,-2.15c1.18741,0 2.15,0.96259 2.15,2.15c0,1.18741 -0.96259,2.15 -2.15,2.15c-1.18741,0 -2.15,-0.96259 -2.15,-2.15z"/><path d="M197.58,201.73c0,-1.18741 0.96259,-2.15 2.15,-2.15c1.18741,0 2.15,0.96259 2.15,2.15c0,1.18741 -0.96259,2.15 -2.15,2.15c-1.18741,0 -2.15,-0.96259 -2.15,-2.15z"/><path d="M455.11,238.72c0,-1.18741 0.96259,-2.15 2.15,-2.15c1.18741,0 2.15,0.96259 2.15,2.15c0,1.18741 -0.96259,2.15 -2.15,2.15c-1.18741,0 -2.15,-0.96259 -2.15,-2.15z"/><path d="M425.23,225.68c0,-1.18741 0.96259,-2.15 2.15,-2.15c1.18741,0 2.15,0.96259 2.15,2.15c0,1.18741 -0.96259,2.15 -2.15,2.15c-1.18741,0 -2.15,-0.96259 -2.15,-2.15z"/><path d="M470.69,110.15c0,-1.18741 0.96259,-2.15 2.15,-2.15c1.18741,0 2.15,0.96259 2.15,2.15c0,1.18741 -0.96259,2.15 -2.15,2.15c-1.18741,0 -2.15,-0.96259 -2.15,-2.15z"/></g><g><path d="M301.26,13.98c0,-2.37482 1.92518,-4.3 4.3,-4.3c2.37482,0 4.3,1.92518 4.3,4.3c0,2.37482 -1.92518,4.3 -4.3,4.3c-2.37482,0 -4.3,-1.92518 -4.3,-4.3z"/><path d="M11.68,105.69c0,-2.37482 1.92518,-4.3 4.3,-4.3c2.37482,0 4.3,1.92518 4.3,4.3c0,2.37482 -1.92518,4.3 -4.3,4.3c-2.37482,0 -4.3,-1.92518 -4.3,-4.3z"/><path d="M172.46,45.8c0,-1.18741 0.96259,-2.15 2.15,-2.15c1.18741,0 2.15,0.96259 2.15,2.15c0,1.18741 -0.96259,2.15 -2.15,2.15c-1.18741,0 -2.15,-0.96259 -2.15,-2.15z"/><path d="M63.83,68.72c0,-1.18741 0.96259,-2.15 2.15,-2.15c1.18741,0 2.15,0.96259 2.15,2.15c0,1.18741 -0.96259,2.15 -2.15,2.15c-1.18741,0 -2.15,-0.96259 -2.15,-2.15z"/><path d="M321.36,105.71c0,-1.18741 0.96259,-2.15 2.15,-2.15c1.18741,0 2.15,0.96259 2.15,2.15c0,1.18741 -0.96259,2.15 -2.15,2.15c-1.18741,0 -2.15,-0.96259 -2.15,-2.15z"/><path d="M291.49,92.67c0,-1.18741 0.96259,-2.15 2.15,-2.15c1.18741,0 2.15,0.96259 2.15,2.15c0,1.18741 -0.96259,2.15 -2.15,2.15c-1.18741,0 -2.15,-0.96259 -2.15,-2.15z"/></g><g><path d="M81.64,273.92c0,-2.37482 1.92518,-4.3 4.3,-4.3c2.37482,0 4.3,1.92518 4.3,4.3c0,2.37482 -1.92518,4.3 -4.3,4.3c-2.37482,0 -4.3,-1.92518 -4.3,-4.3z"/><path d="M260.86,345.41c0,-2.37482 1.92518,-4.3 4.3,-4.3c2.37482,0 4.3,1.92518 4.3,4.3c0,2.37482 -1.92518,4.3 -4.3,4.3c-2.37482,0 -4.3,-1.92518 -4.3,-4.3z"/><path d="M13.56,232.38c0,-1.18741 0.96259,-2.15 2.15,-2.15c1.18741,0 2.15,0.96259 2.15,2.15c0,1.18741 -0.96259,2.15 -2.15,2.15c-1.18741,0 -2.15,-0.96259 -2.15,-2.15z"/><path d="M296.54,308.56c0,-1.18741 0.96259,-2.15 2.15,-2.15c1.18741,0 2.15,0.96259 2.15,2.15c0,1.18741 -0.96259,2.15 -2.15,2.15c-1.18741,0 -2.15,-0.96259 -2.15,-2.15z"/></g></g><path d="M480.16,313.5l-273.64,1.22c33.85,-8.84 61.95,-15.48 81.65,-19.96c61.03,-13.88 96.15,-21.75 142.21,-26.05c32.35,-3.02 33.06,-2.87 49.78,-2.62z" fill="url(#color-2)" opacity="0.6" style="mix-blend-mode: overlay"/><path d="M479.84,360h-480v-82.41c42.15,-8.83 100.24,-9 149.23,-2.05c50.78,7.2 62.14,17.85 121.17,21.75c7.96,0.53 47.66,2.97 104.6,-2.07c51.71,-4.58 83.51,-12.3 105,-15.14z" fill="#3c4576"/><path d="M479.84,360h-480v-82.41c42.15,-8.83 100.24,-9 149.23,-2.05c50.78,7.2 62.14,17.85 121.17,21.75c7.96,0.53 47.66,2.97 104.6,-2.07c51.71,-4.58 83.51,-12.3 105,-15.14z" fill="url(#color-3)" opacity="0.6" style="mix-blend-mode: overlay"/><g><g><path d="M98.65,205.67l31.05,-32.54l-30.32,33.22l-0.73,-0.68z" fill="#7d81bd"/><path d="M97.68,206.05c0,-0.82843 0.67157,-1.5 1.5,-1.5c0.82843,0 1.5,0.67157 1.5,1.5c0,0.82843 -0.67157,1.5 -1.5,1.5c-0.82843,0 -1.5,-0.67157 -1.5,-1.5z" fill="#abb3ff"/></g><g><path d="M353.52,163.45l31.05,-32.53l-30.32,33.21l-0.73,-0.68z" fill="#7d81bd"/><path d="M352.54,163.83c0,-0.82843 0.67157,-1.5 1.5,-1.5c0.82843,0 1.5,0.67157 1.5,1.5c0,0.82843 -0.67157,1.5 -1.5,1.5c-0.82843,0 -1.5,-0.67157 -1.5,-1.5z" fill="#abb3ff"/></g><g opacity="0.5"><path d="M351.15,107.86l31.05,-32.53l-30.32,33.21l-0.73,-0.68z" fill="#7d81bd"/><path d="M350.18,108.25c0,-0.82843 0.67157,-1.5 1.5,-1.5c0.82843,0 1.5,0.67157 1.5,1.5c0,0.82843 -0.67157,1.5 -1.5,1.5c-0.82843,0 -1.5,-0.67157 -1.5,-1.5z" fill="#abb3ff"/></g></g></g><path d="M233.93,232.77c0,-7.26254 5.88746,-13.15 13.15,-13.15c7.26254,0 13.15,5.88746 13.15,13.15c0,7.26254 -5.88746,13.15 -13.15,13.15c-7.26254,0 -13.15,-5.88746 -13.15,-13.15z" fill="none"/></g></g></svg>