<svg id="图层_1" data-name="图层 1" xmlns="http://www.w3.org/2000/svg" xmlns:xlink="http://www.w3.org/1999/xlink" viewBox="0 0 480 360"><defs><style>.cls-1{fill:none;}.cls-2{fill:#262649;}.cls-3{fill:#519ef2;}.cls-4{fill:aqua;}.cls-5{fill:#f0f;}.cls-6{clip-path:url(#clip-path);}.cls-7{fill:#2e3192;}.cls-8{fill:#47705c;}.cls-9{fill:#354941;}</style><clipPath id="clip-path"><rect class="cls-1" x="-1.42" width="481.42" height="362.14"/></clipPath></defs><rect class="cls-2" width="480" height="360"/><path class="cls-3" d="M286.46,323.58a.39.39,0,1,1-.39-.39.38.38,0,0,1,.39.39"/><path class="cls-3" d="M295.22,325.56a.4.4,0,0,1-.79,0,.4.4,0,0,1,.79,0"/><path class="cls-3" d="M331.31,331a.4.4,0,1,1-.39-.39.4.4,0,0,1,.39.39"/><path class="cls-3" d="M338.53,331.05a.39.39,0,0,1-.39.39.39.39,0,0,1,0-.78.39.39,0,0,1,.39.39"/><path class="cls-3" d="M198.56,314.42a.4.4,0,1,1-.39-.39.39.39,0,0,1,.39.39"/><path class="cls-3" d="M255.65,320.55a.4.4,0,0,1-.79,0,.4.4,0,0,1,.79,0"/><path class="cls-3" d="M306.86,327.31a.39.39,0,0,1-.39.4.4.4,0,0,1,0-.79.39.39,0,0,1,.39.39"/><path class="cls-3" d="M201.6,288.54a.4.4,0,0,1-.39.39.4.4,0,0,1,0-.79.4.4,0,0,1,.39.4"/><path class="cls-3" d="M139.76,306a.39.39,0,0,1-.39.39A.38.38,0,0,1,139,306a.39.39,0,0,1,.39-.39.4.4,0,0,1,.39.39"/><path class="cls-3" d="M149.62,300.57a.4.4,0,0,1-.79,0,.4.4,0,0,1,.79,0"/><path class="cls-3" d="M149.4,320.94a.38.38,0,0,1-.39.39.39.39,0,0,1,0-.78.38.38,0,0,1,.39.39"/><path class="cls-3" d="M282.92,335.63a.4.4,0,1,1-.4-.4.4.4,0,0,1,.4.4"/><path class="cls-3" d="M175.62,327.33a.39.39,0,0,1-.39.39.38.38,0,0,1-.39-.39.39.39,0,0,1,.39-.39.4.4,0,0,1,.39.39"/><path class="cls-3" d="M125.07,325.48a.4.4,0,1,1-.39-.39.4.4,0,0,1,.39.39"/><path class="cls-3" d="M126.35,333.27a.4.4,0,0,1-.79,0,.4.4,0,0,1,.79,0"/><path class="cls-3" d="M162.09,337.28a.4.4,0,0,1-.39.39.39.39,0,0,1-.39-.39.38.38,0,0,1,.39-.39.39.39,0,0,1,.39.39"/><path class="cls-3" d="M160.3,335.18a.39.39,0,0,1-.39.39.4.4,0,0,1,0-.79.39.39,0,0,1,.39.4"/><path class="cls-4" d="M265.66,7.63a.59.59,0,0,1-1.17,0,.59.59,0,1,1,1.17,0"/><path class="cls-4" d="M234.37,45.89a.59.59,0,1,1-.59-.58.58.58,0,0,1,.59.58"/><path class="cls-4" d="M444.56,18a.4.4,0,1,1-.4-.4.4.4,0,0,1,.4.4"/><path class="cls-4" d="M449.15,18a.4.4,0,0,1-.79,0,.4.4,0,0,1,.79,0"/><path class="cls-4" d="M449.4,3.2a.39.39,0,1,1-.39-.39.39.39,0,0,1,.39.39"/><path class="cls-4" d="M267.49,16.38a.4.4,0,1,1-.79,0,.4.4,0,0,1,.79,0"/><path class="cls-4" d="M235.21,16.1a.4.4,0,1,1-.79,0,.4.4,0,0,1,.79,0"/><path class="cls-4" d="M245.29,24.74a.39.39,0,0,1-.39.39.4.4,0,0,1,0-.79.39.39,0,0,1,.39.4"/><path class="cls-4" d="M278.26,29.57a.4.4,0,0,1-.79,0,.4.4,0,0,1,.79,0"/><path class="cls-4" d="M291.11,29.35a.4.4,0,1,1-.39-.39.4.4,0,0,1,.39.39"/><path class="cls-4" d="M281,17.21a.4.4,0,0,1-.79,0,.4.4,0,1,1,.79,0"/><path class="cls-4" d="M269.66,4.56a.4.4,0,1,1-.39-.39.4.4,0,0,1,.39.39"/><path class="cls-4" d="M302.17,11.18a.4.4,0,0,1-.79,0,.4.4,0,0,1,.79,0"/><path class="cls-4" d="M427.23,106.79a.39.39,0,0,1-.39.39.39.39,0,1,1,0-.78.39.39,0,0,1,.39.39"/><path class="cls-4" d="M433.81,109.43a.4.4,0,1,1-.4-.4.4.4,0,0,1,.4.4"/><path class="cls-4" d="M312.32,67.59a.38.38,0,0,1-.39.39.39.39,0,0,1,0-.78.38.38,0,0,1,.39.39"/><path class="cls-4" d="M441.15,41.4a.39.39,0,1,1-.39-.39.39.39,0,0,1,.39.39"/><path class="cls-4" d="M295.17,43.26a.39.39,0,1,1-.39-.39.38.38,0,0,1,.39.39"/><path class="cls-4" d="M271.86,53.53a.38.38,0,0,1-.39.39.39.39,0,1,1,0-.78.38.38,0,0,1,.39.39"/><path class="cls-4" d="M229.32,65a.4.4,0,1,1-.39-.39.4.4,0,0,1,.39.39"/><path class="cls-4" d="M372.25,110.83a.4.4,0,0,1-.79,0,.4.4,0,0,1,.79,0"/><path class="cls-4" d="M375.81,115.66a.39.39,0,0,1-.39.39.39.39,0,1,1,0-.78.39.39,0,0,1,.39.39"/><path class="cls-4" d="M437.52,11.67a.39.39,0,0,1-.78,0,.39.39,0,1,1,.78,0"/><path class="cls-4" d="M302.87,10.54a.39.39,0,1,1-.39-.39.39.39,0,0,1,.39.39"/><path class="cls-4" d="M436.75,6.48a.4.4,0,0,1-.39.4.4.4,0,0,1,0-.79.4.4,0,0,1,.39.39"/><path class="cls-4" d="M236.64,80.87a.4.4,0,1,1-.4-.39.39.39,0,0,1,.4.39"/><path class="cls-4" d="M362.37,50.37A.4.4,0,1,1,362,50a.39.39,0,0,1,.39.39"/><path class="cls-4" d="M453.25,76.47a.39.39,0,0,1-.78,0,.39.39,0,1,1,.78,0"/><path class="cls-4" d="M410.61,102.58a.4.4,0,0,1-.79,0,.4.4,0,0,1,.79,0"/><path class="cls-4" d="M316,75.17a.4.4,0,0,1-.79,0,.4.4,0,1,1,.79,0"/><path class="cls-4" d="M355.34,53.6A.39.39,0,0,1,355,54a.38.38,0,0,1-.39-.39.39.39,0,0,1,.39-.39.4.4,0,0,1,.39.39"/><path class="cls-4" d="M438.92,88.4a.39.39,0,0,1-.39.39.39.39,0,1,1,0-.78.39.39,0,0,1,.39.39"/><path class="cls-4" d="M435.26,123a.4.4,0,1,1-.79,0,.4.4,0,0,1,.79,0"/><path class="cls-4" d="M419.21,51.55a.38.38,0,0,1-.39.39.39.39,0,0,1,0-.78.38.38,0,0,1,.39.39"/><path class="cls-4" d="M409.71,31.73a.39.39,0,1,1-.39-.39.38.38,0,0,1,.39.39"/><path class="cls-4" d="M308.8,49.68a.38.38,0,0,1-.39.39.39.39,0,1,1,0-.78.38.38,0,0,1,.39.39"/><path class="cls-4" d="M244.79,41.3a.39.39,0,0,1-.39.39.39.39,0,1,1,0-.78.39.39,0,0,1,.39.39"/><path class="cls-4" d="M278,74.42a.4.4,0,0,1-.39.4.4.4,0,0,1,0-.79.4.4,0,0,1,.39.39"/><path class="cls-4" d="M386,46.08a.39.39,0,1,1-.78,0,.39.39,0,1,1,.78,0"/><path class="cls-4" d="M392.4,49.38A.39.39,0,1,1,392,49a.38.38,0,0,1,.39.39"/><path class="cls-4" d="M343.15,22a.39.39,0,0,1-.39.39.4.4,0,0,1-.39-.39.39.39,0,0,1,.39-.39.38.38,0,0,1,.39.39"/><path class="cls-4" d="M320.37,15.44a.4.4,0,1,1-.4-.39.39.39,0,0,1,.4.39"/><path class="cls-4" d="M356.46,25.52a.4.4,0,1,1-.4-.39.39.39,0,0,1,.4.39"/><path class="cls-4" d="M421.81,31.69a.39.39,0,1,1-.78,0,.39.39,0,0,1,.78,0"/><path class="cls-4" d="M385.18,17.57a.4.4,0,1,1-.79,0,.4.4,0,0,1,.79,0"/><path class="cls-4" d="M349.91,9.81a.4.4,0,0,1-.79,0,.4.4,0,0,1,.79,0"/><path class="cls-4" d="M442.28,44.77a.39.39,0,1,1-.39-.39.39.39,0,0,1,.39.39"/><path class="cls-4" d="M426.12,204.72a.58.58,0,0,1,.58-.58.59.59,0,1,1,0,1.17.58.58,0,0,1-.58-.59"/><path class="cls-4" d="M457.41,166.46a.59.59,0,1,1,.59.58.58.58,0,0,1-.59-.58"/><path class="cls-4" d="M247.22,194.35a.4.4,0,1,1,.39.39.4.4,0,0,1-.39-.39"/><path class="cls-4" d="M242.63,194.32a.4.4,0,1,1,.39.39.39.39,0,0,1-.39-.39"/><path class="cls-4" d="M242.38,209.15a.39.39,0,1,1,.78,0,.39.39,0,1,1-.78,0"/><path class="cls-4" d="M424.29,196a.4.4,0,0,1,.79,0,.4.4,0,0,1-.79,0"/><path class="cls-4" d="M456.57,196.25a.4.4,0,1,1,.4.39.39.39,0,0,1-.4-.39"/><path class="cls-4" d="M446.49,187.62a.39.39,0,0,1,.39-.4.4.4,0,0,1,0,.79.39.39,0,0,1-.39-.39"/><path class="cls-4" d="M413.52,182.78a.4.4,0,1,1,.4.39.39.39,0,0,1-.4-.39"/><path class="cls-4" d="M400.67,183a.39.39,0,0,1,.39-.39.38.38,0,0,1,.39.39.39.39,0,0,1-.39.39.4.4,0,0,1-.39-.39"/><path class="cls-4" d="M410.78,195.15a.4.4,0,1,1,.39.39.4.4,0,0,1-.39-.39"/><path class="cls-4" d="M422.12,207.79a.4.4,0,1,1,.39.39.39.39,0,0,1-.39-.39"/><path class="cls-4" d="M389.61,201.17a.4.4,0,1,1,.39.39.39.39,0,0,1-.39-.39"/><path class="cls-4" d="M264.55,105.56a.4.4,0,0,1,.39-.39.4.4,0,0,1,0,.79.4.4,0,0,1-.39-.4"/><path class="cls-4" d="M258,102.93a.4.4,0,0,1,.79,0,.4.4,0,0,1-.79,0"/><path class="cls-4" d="M379.46,144.76a.39.39,0,0,1,.39-.39.4.4,0,0,1,.39.39.39.39,0,0,1-.39.39.38.38,0,0,1-.39-.39"/><path class="cls-4" d="M250.63,171a.39.39,0,1,1,.39.39.38.38,0,0,1-.39-.39"/><path class="cls-4" d="M396.61,169.09a.39.39,0,1,1,.39.39.38.38,0,0,1-.39-.39"/><path class="cls-4" d="M419.92,158.82a.39.39,0,0,1,.39-.39.4.4,0,0,1,.39.39.39.39,0,0,1-.39.39.38.38,0,0,1-.39-.39"/><path class="cls-4" d="M462.46,147.37a.4.4,0,0,1,.79,0,.4.4,0,0,1-.79,0"/><path class="cls-4" d="M319.53,101.52a.4.4,0,1,1,.39.39.39.39,0,0,1-.39-.39"/><path class="cls-4" d="M316,96.69a.39.39,0,1,1,.39.4.39.39,0,0,1-.39-.4"/><path class="cls-4" d="M254.26,200.68a.39.39,0,1,1,.39.4.39.39,0,0,1-.39-.4"/><path class="cls-4" d="M388.91,201.81a.38.38,0,0,1,.39-.39.39.39,0,0,1,.39.39.4.4,0,0,1-.39.39.39.39,0,0,1-.39-.39"/><path class="cls-4" d="M255,205.87a.39.39,0,0,1,.78,0,.39.39,0,0,1-.78,0"/><path class="cls-4" d="M455.14,131.48a.4.4,0,0,1,.79,0,.4.4,0,0,1-.79,0"/><path class="cls-4" d="M329.41,162a.4.4,0,0,1,.39-.39.39.39,0,0,1,.39.39.38.38,0,0,1-.39.39.39.39,0,0,1-.39-.39"/><path class="cls-4" d="M238.53,135.89a.39.39,0,0,1,.39-.4.4.4,0,0,1,0,.79.39.39,0,0,1-.39-.39"/><path class="cls-4" d="M281.17,109.77a.4.4,0,1,1,.4.39.39.39,0,0,1-.4-.39"/><path class="cls-4" d="M375.83,137.19a.4.4,0,1,1,.39.39.4.4,0,0,1-.39-.39"/><path class="cls-4" d="M336.44,158.75a.39.39,0,0,1,.39-.39.39.39,0,0,1,0,.78.39.39,0,0,1-.39-.39"/><path class="cls-4" d="M252.86,124a.39.39,0,1,1,.39.4.39.39,0,0,1-.39-.4"/><path class="cls-4" d="M256.52,89.34a.4.4,0,0,1,.79,0,.4.4,0,0,1-.79,0"/><path class="cls-4" d="M272.57,160.8a.38.38,0,0,1,.39-.39.39.39,0,1,1,0,.78.38.38,0,0,1-.39-.39"/><path class="cls-4" d="M282.07,180.62a.39.39,0,0,1,.39-.39.4.4,0,0,1,.39.39.39.39,0,0,1-.39.39.38.38,0,0,1-.39-.39"/><path class="cls-4" d="M383,162.67a.4.4,0,0,1,.79,0,.4.4,0,0,1-.79,0"/><path class="cls-4" d="M447,171.05a.4.4,0,0,1,.39-.39.39.39,0,0,1,.39.39.38.38,0,0,1-.39.39.39.39,0,0,1-.39-.39"/><path class="cls-4" d="M413.79,137.93a.39.39,0,0,1,.78,0,.39.39,0,0,1-.78,0"/><path class="cls-4" d="M305.81,166.27a.39.39,0,1,1,.39.39.38.38,0,0,1-.39-.39"/><path class="cls-4" d="M299.38,163a.39.39,0,0,1,.39-.39.4.4,0,0,1,.39.39.39.39,0,0,1-.39.39.38.38,0,0,1-.39-.39"/><path class="cls-4" d="M348.63,190.34A.39.39,0,0,1,349,190a.4.4,0,0,1,0,.79.39.39,0,0,1-.39-.4"/><path class="cls-4" d="M371.41,196.91a.4.4,0,0,1,.79,0,.4.4,0,0,1-.79,0"/><path class="cls-4" d="M335.32,186.83a.4.4,0,0,1,.79,0,.4.4,0,0,1-.79,0"/><path class="cls-4" d="M270,180.66a.39.39,0,1,1,.39.39.38.38,0,0,1-.39-.39"/><path class="cls-4" d="M306.6,194.78a.4.4,0,1,1,.4.39.39.39,0,0,1-.4-.39"/><path class="cls-4" d="M341.87,202.54a.4.4,0,0,1,.79,0,.4.4,0,1,1-.79,0"/><path class="cls-4" d="M249.5,167.58a.39.39,0,1,1,.39.39.38.38,0,0,1-.39-.39"/><path class="cls-4" d="M40-.51a.58.58,0,0,1-.58.58.58.58,0,0,1-.58-.58.59.59,0,0,1,.58-.59A.59.59,0,0,1,40-.51"/><path class="cls-4" d="M8.69,37.75a.59.59,0,1,1-.59-.58.58.58,0,0,1,.59.58"/><path class="cls-4" d="M218.88,9.87a.4.4,0,0,1-.79,0,.4.4,0,1,1,.79,0"/><path class="cls-4" d="M223.47,9.89a.39.39,0,0,1-.39.39.38.38,0,0,1-.39-.39.39.39,0,0,1,.39-.39.4.4,0,0,1,.39.39"/><path class="cls-4" d="M41.81,8.24a.4.4,0,1,1-.39-.39.4.4,0,0,1,.39.39"/><path class="cls-4" d="M9.53,8a.4.4,0,1,1-.39-.39A.4.4,0,0,1,9.53,8"/><path class="cls-4" d="M19.62,16.6a.4.4,0,1,1-.4-.4.4.4,0,0,1,.4.4"/><path class="cls-4" d="M52.58,21.43a.4.4,0,0,1-.79,0,.4.4,0,0,1,.79,0"/><path class="cls-4" d="M65.43,21.21a.4.4,0,0,1-.39.4.4.4,0,0,1,0-.79.4.4,0,0,1,.39.39"/><path class="cls-4" d="M55.32,9.07a.4.4,0,0,1-.39.39.4.4,0,0,1,0-.79.4.4,0,0,1,.39.4"/><path class="cls-4" d="M76.49,3a.4.4,0,0,1-.79,0,.4.4,0,0,1,.79,0"/><path class="cls-4" d="M201.55,98.65a.39.39,0,1,1-.39-.39.38.38,0,0,1,.39.39"/><path class="cls-4" d="M208.13,101.29a.4.4,0,1,1-.4-.4.4.4,0,0,1,.4.4"/><path class="cls-4" d="M86.65,59.45a.4.4,0,1,1-.4-.39.39.39,0,0,1,.4.39"/><path class="cls-4" d="M215.47,33.26a.39.39,0,0,1-.39.4.4.4,0,0,1,0-.79.39.39,0,0,1,.39.39"/><path class="cls-4" d="M69.49,35.12a.39.39,0,1,1-.39-.39.38.38,0,0,1,.39.39"/><path class="cls-4" d="M46.19,45.39a.4.4,0,1,1-.4-.39.39.39,0,0,1,.4.39"/><path class="cls-4" d="M3.64,56.84a.4.4,0,0,1-.39.4.4.4,0,0,1,0-.79.4.4,0,0,1,.39.39"/><path class="cls-4" d="M146.57,102.69a.4.4,0,0,1-.79,0,.4.4,0,0,1,.79,0"/><path class="cls-4" d="M150.13,107.52a.39.39,0,1,1-.39-.39.38.38,0,0,1,.39.39"/><path class="cls-4" d="M211.84,3.53a.39.39,0,0,1-.39.39.4.4,0,0,1-.39-.39.39.39,0,0,1,.39-.39.38.38,0,0,1,.39.39"/><path class="cls-4" d="M77.19,2.4a.39.39,0,0,1-.39.4.4.4,0,0,1,0-.79.39.39,0,0,1,.39.39"/><path class="cls-4" d="M11,72.73a.4.4,0,1,1-.4-.39.39.39,0,0,1,.4.39"/><path class="cls-4" d="M136.69,42.23a.39.39,0,1,1-.39-.39.38.38,0,0,1,.39.39"/><path class="cls-4" d="M227.58,68.33a.4.4,0,0,1-.79,0,.4.4,0,0,1,.79,0"/><path class="cls-4" d="M184.93,94.44a.4.4,0,0,1-.79,0,.4.4,0,0,1,.79,0"/><path class="cls-4" d="M90.27,67a.4.4,0,0,1-.39.39.4.4,0,0,1,0-.79.4.4,0,0,1,.39.4"/><path class="cls-4" d="M129.66,45.46a.39.39,0,1,1-.78,0,.39.39,0,1,1,.78,0"/><path class="cls-4" d="M213.24,80.26a.39.39,0,1,1-.39-.39.38.38,0,0,1,.39.39"/><path class="cls-4" d="M209.58,114.87a.4.4,0,1,1-.79,0,.4.4,0,0,1,.79,0"/><path class="cls-4" d="M193.54,43.41a.4.4,0,1,1-.4-.39.39.39,0,0,1,.4.39"/><path class="cls-4" d="M184,23.59a.38.38,0,0,1-.39.39.39.39,0,1,1,0-.78.38.38,0,0,1,.39.39"/><path class="cls-4" d="M83.13,41.54a.4.4,0,1,1-.4-.39.39.39,0,0,1,.4.39"/><path class="cls-4" d="M19.11,33.16a.39.39,0,1,1-.39-.39.38.38,0,0,1,.39.39"/><path class="cls-4" d="M52.31,66.28a.39.39,0,1,1-.39-.39.39.39,0,0,1,.39.39"/><path class="cls-4" d="M160.29,37.94a.38.38,0,0,1-.39.39.39.39,0,0,1-.39-.39.4.4,0,0,1,.39-.39.39.39,0,0,1,.39.39"/><path class="cls-4" d="M166.73,41.24a.4.4,0,1,1-.4-.39.39.39,0,0,1,.4.39"/><path class="cls-4" d="M117.47,13.87a.39.39,0,0,1-.39.39.4.4,0,0,1-.39-.39.39.39,0,0,1,.39-.39.38.38,0,0,1,.39.39"/><path class="cls-4" d="M94.69,7.3a.39.39,0,0,1-.39.39.39.39,0,0,1,0-.78.39.39,0,0,1,.39.39"/><path class="cls-4" d="M130.78,17.38a.4.4,0,1,1-.39-.39.39.39,0,0,1,.39.39"/><path class="cls-4" d="M196.13,23.55a.38.38,0,0,1-.39.39.39.39,0,0,1-.39-.39.4.4,0,0,1,.39-.39.39.39,0,0,1,.39.39"/><path class="cls-4" d="M159.5,9.43a.4.4,0,1,1-.79,0,.4.4,0,0,1,.79,0"/><path class="cls-4" d="M124.23,1.67a.4.4,0,0,1-.39.39.39.39,0,0,1-.39-.39.38.38,0,0,1,.39-.39.39.39,0,0,1,.39.39"/><path class="cls-4" d="M216.6,36.63a.39.39,0,0,1-.39.4.4.4,0,0,1,0-.79.39.39,0,0,1,.39.39"/><path class="cls-4" d="M200.44,196.58a.59.59,0,1,1,.58.59.58.58,0,0,1-.58-.59"/><path class="cls-4" d="M231.74,158.32a.58.58,0,1,1,.58.58.58.58,0,0,1-.58-.58"/><path class="cls-4" d="M21.54,186.21a.4.4,0,1,1,.79,0,.4.4,0,0,1-.79,0"/><path class="cls-4" d="M17,186.18a.4.4,0,1,1,.4.39.39.39,0,0,1-.4-.39"/><path class="cls-4" d="M16.7,201a.39.39,0,0,1,.39-.39.38.38,0,0,1,.39.39.39.39,0,0,1-.39.39.4.4,0,0,1-.39-.39"/><path class="cls-4" d="M198.61,187.83a.4.4,0,0,1,.79,0,.4.4,0,0,1-.79,0"/><path class="cls-4" d="M230.9,188.11a.38.38,0,0,1,.39-.39.39.39,0,1,1,0,.78.38.38,0,0,1-.39-.39"/><path class="cls-4" d="M220.81,179.48a.39.39,0,0,1,.39-.4.4.4,0,0,1,0,.79.39.39,0,0,1-.39-.39"/><path class="cls-4" d="M187.84,174.64a.4.4,0,1,1,.4.39.39.39,0,0,1-.4-.39"/><path class="cls-4" d="M175,174.86a.4.4,0,0,1,.79,0,.4.4,0,0,1-.79,0"/><path class="cls-4" d="M185.1,187a.4.4,0,1,1,.39.39.4.4,0,0,1-.39-.39"/><path class="cls-4" d="M196.44,199.65a.4.4,0,1,1,.4.39.39.39,0,0,1-.4-.39"/><path class="cls-4" d="M163.93,193a.4.4,0,1,1,.4.39.39.39,0,0,1-.4-.39"/><path class="cls-4" d="M38.87,97.42a.4.4,0,0,1,.79,0,.4.4,0,1,1-.79,0"/><path class="cls-4" d="M32.3,94.79a.38.38,0,0,1,.39-.39.39.39,0,0,1,.39.39.4.4,0,0,1-.39.39.39.39,0,0,1-.39-.39"/><path class="cls-4" d="M153.78,136.62a.39.39,0,0,1,.78,0,.39.39,0,0,1-.78,0"/><path class="cls-4" d="M25,162.81a.39.39,0,1,1,.39.39.38.38,0,0,1-.39-.39"/><path class="cls-4" d="M170.93,161a.4.4,0,0,1,.39-.39.39.39,0,0,1,.39.39.38.38,0,0,1-.39.39.39.39,0,0,1-.39-.39"/><path class="cls-4" d="M194.24,150.68a.39.39,0,0,1,.78,0,.39.39,0,0,1-.78,0"/><path class="cls-4" d="M236.78,139.23a.4.4,0,0,1,.79,0,.4.4,0,0,1-.79,0"/><path class="cls-4" d="M93.85,93.38a.4.4,0,1,1,.4.39.39.39,0,0,1-.4-.39"/><path class="cls-4" d="M90.29,88.55a.4.4,0,0,1,.79,0,.4.4,0,1,1-.79,0"/><path class="cls-4" d="M28.58,192.54a.4.4,0,0,1,.39-.39.4.4,0,0,1,0,.79.4.4,0,0,1-.39-.4"/><path class="cls-4" d="M163.23,193.67a.39.39,0,1,1,.78,0,.39.39,0,1,1-.78,0"/><path class="cls-4" d="M29.35,197.73a.39.39,0,0,1,.39-.39.38.38,0,0,1,.39.39.39.39,0,0,1-.39.39.4.4,0,0,1-.39-.39"/><path class="cls-4" d="M229.47,123.34a.39.39,0,0,1,.39-.39.4.4,0,0,1,.39.39.39.39,0,0,1-.39.39.38.38,0,0,1-.39-.39"/><path class="cls-4" d="M103.73,153.84a.4.4,0,0,1,.79,0,.4.4,0,0,1-.79,0"/><path class="cls-4" d="M12.85,127.75a.39.39,0,1,1,.39.39.39.39,0,0,1-.39-.39"/><path class="cls-4" d="M55.49,101.63a.4.4,0,1,1,.4.39.39.39,0,0,1-.4-.39"/><path class="cls-4" d="M150.15,129.05a.4.4,0,0,1,.79,0,.4.4,0,0,1-.79,0"/><path class="cls-4" d="M110.76,150.61a.4.4,0,1,1,.39.39.39.39,0,0,1-.39-.39"/><path class="cls-4" d="M27.18,115.81a.4.4,0,0,1,.39-.39.4.4,0,0,1,0,.79.4.4,0,0,1-.39-.4"/><path class="cls-4" d="M30.85,81.2a.38.38,0,0,1,.39-.39.39.39,0,0,1,.39.39.4.4,0,0,1-.39.39.39.39,0,0,1-.39-.39"/><path class="cls-4" d="M46.89,152.66a.39.39,0,1,1,.39.39.38.38,0,0,1-.39-.39"/><path class="cls-4" d="M56.39,172.48a.39.39,0,0,1,.78,0,.39.39,0,0,1-.78,0"/><path class="cls-4" d="M157.3,154.53a.39.39,0,0,1,.39-.39.4.4,0,0,1,.39.39.39.39,0,0,1-.39.39.38.38,0,0,1-.39-.39"/><path class="cls-4" d="M221.31,162.91a.4.4,0,0,1,.39-.39.39.39,0,0,1,.39.39.38.38,0,0,1-.39.39.39.39,0,0,1-.39-.39"/><path class="cls-4" d="M188.11,129.79a.39.39,0,0,1,.39-.39.38.38,0,0,1,.39.39.39.39,0,0,1-.39.39.4.4,0,0,1-.39-.39"/><path class="cls-4" d="M80.13,158.13a.39.39,0,1,1,.39.39.38.38,0,0,1-.39-.39"/><path class="cls-4" d="M73.7,154.83a.39.39,0,1,1,.78,0,.39.39,0,1,1-.78,0"/><path class="cls-4" d="M123,182.21a.39.39,0,1,1,.39.39.39.39,0,0,1-.39-.39"/><path class="cls-4" d="M145.73,188.77a.4.4,0,1,1,.4.4.4.4,0,0,1-.4-.4"/><path class="cls-4" d="M109.64,178.69a.4.4,0,0,1,.79,0,.4.4,0,0,1-.79,0"/><path class="cls-4" d="M44.29,172.52a.39.39,0,1,1,.39.39.38.38,0,0,1-.39-.39"/><path class="cls-4" d="M80.93,186.64a.38.38,0,0,1,.39-.39.39.39,0,0,1,0,.78.38.38,0,0,1-.39-.39"/><path class="cls-4" d="M116.19,194.4a.4.4,0,1,1,.4.4.4.4,0,0,1-.4-.4"/><path class="cls-4" d="M23.82,159.44a.39.39,0,0,1,.39-.39.39.39,0,1,1,0,.78.39.39,0,0,1-.39-.39"/><path class="cls-4" d="M265.66,219.55a.59.59,0,1,1-.58-.58.58.58,0,0,1,.58.58"/><path class="cls-4" d="M234.37,257.82a.59.59,0,1,1-.59-.59.58.58,0,0,1,.59.59"/><path class="cls-4" d="M444.56,229.93a.4.4,0,0,1-.79,0,.4.4,0,0,1,.79,0"/><path class="cls-4" d="M449.15,230a.4.4,0,1,1-.39-.39.4.4,0,0,1,.39.39"/><path class="cls-4" d="M449.4,215.13a.39.39,0,1,1-.39-.4.39.39,0,0,1,.39.4"/><path class="cls-4" d="M267.49,228.31a.4.4,0,1,1-.4-.4.4.4,0,0,1,.4.4"/><path class="cls-4" d="M235.21,228a.4.4,0,1,1-.4-.4.4.4,0,0,1,.4.4"/><path class="cls-4" d="M245.29,236.66a.39.39,0,0,1-.39.39.4.4,0,0,1-.39-.39.39.39,0,0,1,.39-.39.38.38,0,0,1,.39.39"/><path class="cls-4" d="M278.26,241.49a.4.4,0,1,1-.79,0,.4.4,0,0,1,.79,0"/><path class="cls-4" d="M291.11,241.28a.4.4,0,0,1-.79,0,.4.4,0,1,1,.79,0"/><path class="cls-4" d="M281,229.13a.4.4,0,0,1-.79,0,.4.4,0,0,1,.79,0"/><path class="cls-4" d="M269.66,216.48a.4.4,0,1,1-.39-.39.4.4,0,0,1,.39.39"/><path class="cls-4" d="M302.17,223.1a.4.4,0,1,1-.79,0,.4.4,0,0,1,.79,0"/><path class="cls-4" d="M427.23,318.71a.39.39,0,0,1-.39.39.39.39,0,1,1,0-.78.39.39,0,0,1,.39.39"/><path class="cls-4" d="M433.81,321.35a.4.4,0,0,1-.79,0,.4.4,0,0,1,.79,0"/><path class="cls-4" d="M312.32,279.51a.38.38,0,0,1-.39.39.39.39,0,0,1-.39-.39.4.4,0,0,1,.39-.39.39.39,0,0,1,.39.39"/><path class="cls-4" d="M441.15,253.33a.39.39,0,1,1-.39-.4.39.39,0,0,1,.39.4"/><path class="cls-4" d="M295.17,255.18a.39.39,0,1,1-.39-.39.39.39,0,0,1,.39.39"/><path class="cls-4" d="M271.86,265.45a.38.38,0,0,1-.39.39.39.39,0,0,1-.39-.39.4.4,0,0,1,.39-.39.39.39,0,0,1,.39.39"/><path class="cls-4" d="M229.32,276.91a.4.4,0,0,1-.79,0,.4.4,0,1,1,.79,0"/><path class="cls-4" d="M372.25,322.75a.4.4,0,1,1-.79,0,.4.4,0,0,1,.79,0"/><path class="cls-4" d="M375.81,327.58a.39.39,0,0,1-.39.39.39.39,0,0,1,0-.78.39.39,0,0,1,.39.39"/><path class="cls-4" d="M437.52,223.59a.39.39,0,1,1-.39-.39.38.38,0,0,1,.39.39"/><path class="cls-4" d="M302.87,222.47a.39.39,0,1,1-.39-.4.39.39,0,0,1,.39.4"/><path class="cls-4" d="M436.75,218.41a.4.4,0,0,1-.39.39.4.4,0,0,1,0-.79.4.4,0,0,1,.39.4"/><path class="cls-4" d="M236.64,292.79a.4.4,0,0,1-.79,0,.4.4,0,0,1,.79,0"/><path class="cls-4" d="M362.37,262.29a.4.4,0,0,1-.79,0,.4.4,0,0,1,.79,0"/><path class="cls-4" d="M453.25,288.39a.39.39,0,1,1-.39-.39.38.38,0,0,1,.39.39"/><path class="cls-4" d="M410.61,314.5a.4.4,0,1,1-.79,0,.4.4,0,0,1,.79,0"/><path class="cls-4" d="M316,287.09a.4.4,0,0,1-.79,0,.4.4,0,0,1,.79,0"/><path class="cls-4" d="M355.34,265.52a.4.4,0,0,1-.39.4.4.4,0,0,1,0-.79.4.4,0,0,1,.39.39"/><path class="cls-4" d="M438.92,300.32a.39.39,0,0,1-.39.39.39.39,0,0,1,0-.78.39.39,0,0,1,.39.39"/><path class="cls-4" d="M435.26,334.94a.4.4,0,1,1-.4-.4.4.4,0,0,1,.4.4"/><path class="cls-4" d="M419.21,263.47a.39.39,0,0,1-.39.4.4.4,0,0,1,0-.79.39.39,0,0,1,.39.39"/><path class="cls-4" d="M409.71,243.65a.39.39,0,1,1-.78,0,.39.39,0,0,1,.78,0"/><path class="cls-4" d="M308.8,261.6a.38.38,0,0,1-.39.39.39.39,0,0,1-.39-.39.4.4,0,0,1,.39-.39.39.39,0,0,1,.39.39"/><path class="cls-4" d="M244.79,253.22a.39.39,0,0,1-.39.39.38.38,0,0,1-.39-.39.39.39,0,0,1,.39-.39.4.4,0,0,1,.39.39"/><path class="cls-4" d="M278,286.35a.4.4,0,0,1-.39.39.4.4,0,0,1,0-.79.4.4,0,0,1,.39.4"/><path class="cls-4" d="M386,258a.39.39,0,1,1-.39-.39.39.39,0,0,1,.39.39"/><path class="cls-4" d="M392.4,261.3a.39.39,0,0,1-.78,0,.39.39,0,1,1,.78,0"/><path class="cls-4" d="M343.15,233.93a.38.38,0,0,1-.39.39.39.39,0,1,1,0-.78.38.38,0,0,1,.39.39"/><path class="cls-4" d="M320.37,227.36a.4.4,0,1,1-.4-.39.39.39,0,0,1,.4.39"/><path class="cls-4" d="M356.46,237.44a.4.4,0,0,1-.79,0,.4.4,0,0,1,.79,0"/><path class="cls-4" d="M421.81,243.61a.39.39,0,1,1-.39-.39.39.39,0,0,1,.39.39"/><path class="cls-4" d="M385.18,229.5a.4.4,0,1,1-.4-.4.4.4,0,0,1,.4.4"/><path class="cls-4" d="M349.91,221.73a.4.4,0,1,1-.39-.39.39.39,0,0,1,.39.39"/><path class="cls-4" d="M442.28,256.7a.39.39,0,1,1-.39-.4.39.39,0,0,1,.39.4"/><path class="cls-4" d="M264.55,317.49a.4.4,0,0,1,.39-.4.4.4,0,0,1,0,.79.4.4,0,0,1-.39-.39"/><path class="cls-4" d="M258,314.85a.4.4,0,1,1,.4.39.39.39,0,0,1-.4-.39"/><path class="cls-4" d="M379.46,356.68a.39.39,0,0,1,.39-.39.4.4,0,0,1,0,.79.39.39,0,0,1-.39-.4"/><path class="cls-4" d="M462.46,359.29a.4.4,0,1,1,.39.39.39.39,0,0,1-.39-.39"/><path class="cls-4" d="M319.53,313.44a.4.4,0,0,1,.79,0,.4.4,0,0,1-.79,0"/><path class="cls-4" d="M316,308.62a.39.39,0,1,1,.39.39.39.39,0,0,1-.39-.39"/><path class="cls-4" d="M455.14,343.4a.4.4,0,1,1,.4.4.4.4,0,0,1-.4-.4"/><path class="cls-4" d="M238.53,347.81a.38.38,0,0,1,.39-.39.39.39,0,0,1,.39.39.4.4,0,0,1-.39.39.39.39,0,0,1-.39-.39"/><path class="cls-4" d="M281.17,321.69a.4.4,0,0,1,.79,0,.4.4,0,0,1-.79,0"/><path class="cls-4" d="M375.83,349.11a.4.4,0,1,1,.39.39.39.39,0,0,1-.39-.39"/><path class="cls-4" d="M252.86,335.88a.39.39,0,1,1,.39.39.39.39,0,0,1-.39-.39"/><path class="cls-4" d="M256.52,301.26a.4.4,0,1,1,.4.39.39.39,0,0,1-.4-.39"/><path class="cls-4" d="M413.79,349.85a.39.39,0,1,1,.39.39.38.38,0,0,1-.39-.39"/><path class="cls-4" d="M40,211.41a.58.58,0,1,1-.58-.58.58.58,0,0,1,.58.58"/><path class="cls-4" d="M8.69,249.68a.59.59,0,1,1-.59-.59.58.58,0,0,1,.59.59"/><path class="cls-4" d="M218.88,221.79a.4.4,0,1,1-.39-.39.39.39,0,0,1,.39.39"/><path class="cls-4" d="M223.47,221.81a.4.4,0,0,1-.39.4.4.4,0,0,1,0-.79.4.4,0,0,1,.39.39"/><path class="cls-4" d="M223.72,207a.39.39,0,1,1-.39-.4.39.39,0,0,1,.39.4"/><path class="cls-4" d="M41.81,220.17a.4.4,0,0,1-.79,0,.4.4,0,1,1,.79,0"/><path class="cls-4" d="M9.53,219.89a.4.4,0,0,1-.79,0,.4.4,0,1,1,.79,0"/><path class="cls-4" d="M19.62,228.52a.4.4,0,0,1-.79,0,.4.4,0,0,1,.79,0"/><path class="cls-4" d="M52.58,233.35a.4.4,0,1,1-.39-.39.4.4,0,0,1,.39.39"/><path class="cls-4" d="M65.43,233.14a.4.4,0,0,1-.39.39.4.4,0,0,1,0-.79.4.4,0,0,1,.39.4"/><path class="cls-4" d="M55.32,221a.4.4,0,0,1-.39.39.39.39,0,0,1-.39-.39.38.38,0,0,1,.39-.39.39.39,0,0,1,.39.39"/><path class="cls-4" d="M44,208.35a.4.4,0,0,1-.39.39.4.4,0,0,1,0-.79.4.4,0,0,1,.39.4"/><path class="cls-4" d="M76.49,215a.4.4,0,1,1-.39-.39.4.4,0,0,1,.39.39"/><path class="cls-4" d="M201.55,310.57a.39.39,0,1,1-.39-.39.38.38,0,0,1,.39.39"/><path class="cls-4" d="M208.13,313.21a.4.4,0,0,1-.79,0,.4.4,0,0,1,.79,0"/><path class="cls-4" d="M86.65,271.37a.4.4,0,1,1-.79,0,.4.4,0,0,1,.79,0"/><path class="cls-4" d="M215.47,245.19a.39.39,0,0,1-.39.39.4.4,0,0,1,0-.79.39.39,0,0,1,.39.4"/><path class="cls-4" d="M69.49,247a.39.39,0,1,1-.39-.39.39.39,0,0,1,.39.39"/><path class="cls-4" d="M46.19,257.31a.4.4,0,0,1-.79,0,.4.4,0,0,1,.79,0"/><path class="cls-4" d="M3.64,268.77a.4.4,0,0,1-.39.39.4.4,0,0,1,0-.79.4.4,0,0,1,.39.4"/><path class="cls-4" d="M146.57,314.61a.4.4,0,1,1-.39-.39.4.4,0,0,1,.39.39"/><path class="cls-4" d="M150.13,319.44a.39.39,0,1,1-.39-.39.38.38,0,0,1,.39.39"/><path class="cls-4" d="M211.84,215.45a.38.38,0,0,1-.39.39.39.39,0,1,1,0-.78.38.38,0,0,1,.39.39"/><path class="cls-4" d="M77.19,214.33a.39.39,0,0,1-.39.39.4.4,0,0,1,0-.79.39.39,0,0,1,.39.4"/><path class="cls-4" d="M211.07,210.27a.39.39,0,1,1-.39-.4.39.39,0,0,1,.39.4"/><path class="cls-4" d="M11,284.65a.4.4,0,0,1-.79,0,.4.4,0,0,1,.79,0"/><path class="cls-4" d="M136.69,254.15a.39.39,0,1,1-.78,0,.39.39,0,1,1,.78,0"/><path class="cls-4" d="M227.58,280.25a.4.4,0,1,1-.4-.39.39.39,0,0,1,.4.39"/><path class="cls-4" d="M184.93,306.36a.4.4,0,1,1-.39-.39.4.4,0,0,1,.39.39"/><path class="cls-4" d="M90.27,279a.4.4,0,0,1-.39.39.39.39,0,0,1-.39-.39.38.38,0,0,1,.39-.39.39.39,0,0,1,.39.39"/><path class="cls-4" d="M129.66,257.38a.39.39,0,1,1-.39-.39.39.39,0,0,1,.39.39"/><path class="cls-4" d="M213.24,292.18a.39.39,0,1,1-.39-.39.38.38,0,0,1,.39.39"/><path class="cls-4" d="M209.58,326.8a.4.4,0,1,1-.4-.4.4.4,0,0,1,.4.4"/><path class="cls-4" d="M193.54,255.33a.4.4,0,1,1-.79,0,.4.4,0,0,1,.79,0"/><path class="cls-4" d="M184,235.51a.39.39,0,0,1-.39.4.4.4,0,0,1,0-.79.39.39,0,0,1,.39.39"/><path class="cls-4" d="M83.13,253.46a.4.4,0,0,1-.79,0,.4.4,0,0,1,.79,0"/><path class="cls-4" d="M19.11,245.08a.39.39,0,0,1-.78,0,.39.39,0,0,1,.78,0"/><path class="cls-4" d="M52.31,278.21a.39.39,0,1,1-.39-.4.39.39,0,0,1,.39.4"/><path class="cls-4" d="M160.29,249.86a.39.39,0,0,1-.39.4.4.4,0,0,1,0-.79.39.39,0,0,1,.39.39"/><path class="cls-4" d="M166.73,253.16a.4.4,0,0,1-.79,0,.4.4,0,0,1,.79,0"/><path class="cls-4" d="M117.47,225.79a.38.38,0,0,1-.39.39.39.39,0,0,1,0-.78.38.38,0,0,1,.39.39"/><path class="cls-4" d="M94.69,219.22a.39.39,0,0,1-.39.39.38.38,0,0,1-.39-.39.39.39,0,0,1,.39-.39.4.4,0,0,1,.39.39"/><path class="cls-4" d="M130.78,229.3a.4.4,0,0,1-.79,0,.4.4,0,0,1,.79,0"/><path class="cls-4" d="M196.13,235.47a.39.39,0,0,1-.39.4.4.4,0,0,1,0-.79.39.39,0,0,1,.39.39"/><path class="cls-4" d="M159.5,221.36a.4.4,0,1,1-.4-.4.4.4,0,0,1,.4.4"/><path class="cls-4" d="M124.23,213.59a.39.39,0,0,1-.39.39.39.39,0,1,1,0-.78.39.39,0,0,1,.39.39"/><path class="cls-4" d="M216.6,248.56a.39.39,0,0,1-.39.39.4.4,0,0,1,0-.79.39.39,0,0,1,.39.4"/><path class="cls-4" d="M38.87,309.35a.4.4,0,1,1,.39.39.4.4,0,0,1-.39-.39"/><path class="cls-4" d="M32.3,306.71a.38.38,0,0,1,.39-.39.39.39,0,0,1,0,.78.38.38,0,0,1-.39-.39"/><path class="cls-4" d="M153.78,348.54a.39.39,0,1,1,.39.4.39.39,0,0,1-.39-.4"/><path class="cls-4" d="M236.78,351.15a.4.4,0,1,1,.4.39.39.39,0,0,1-.4-.39"/><path class="cls-4" d="M93.85,305.3a.4.4,0,0,1,.79,0,.4.4,0,0,1-.79,0"/><path class="cls-4" d="M90.29,300.48a.4.4,0,1,1,.39.39.4.4,0,0,1-.39-.39"/><path class="cls-4" d="M229.47,335.26a.39.39,0,0,1,.39-.39.4.4,0,0,1,0,.79.39.39,0,0,1-.39-.4"/><path class="cls-4" d="M12.85,339.67a.39.39,0,1,1,.78,0,.39.39,0,0,1-.78,0"/><path class="cls-4" d="M55.49,313.55a.4.4,0,0,1,.79,0,.4.4,0,0,1-.79,0"/><path class="cls-4" d="M150.15,341a.4.4,0,1,1,.39.39.39.39,0,0,1-.39-.39"/><path class="cls-4" d="M27.18,327.74a.4.4,0,0,1,.39-.4.4.4,0,0,1,0,.79.4.4,0,0,1-.39-.39"/><path class="cls-4" d="M30.85,293.12a.38.38,0,0,1,.39-.39.39.39,0,0,1,0,.78.38.38,0,0,1-.39-.39"/><path class="cls-4" d="M188.11,341.71a.39.39,0,0,1,.39-.39.39.39,0,0,1,0,.78.39.39,0,0,1-.39-.39"/><path class="cls-4" d="M265.66,7.63a.59.59,0,0,1-1.17,0,.59.59,0,1,1,1.17,0"/><path class="cls-4" d="M234.37,45.89a.59.59,0,1,1-.59-.58.58.58,0,0,1,.59.58"/><path class="cls-4" d="M444.56,18a.4.4,0,1,1-.4-.4.4.4,0,0,1,.4.4"/><path class="cls-4" d="M449.15,18a.4.4,0,0,1-.79,0,.4.4,0,0,1,.79,0"/><path class="cls-4" d="M449.4,3.2a.39.39,0,1,1-.39-.39.39.39,0,0,1,.39.39"/><path class="cls-4" d="M267.49,16.38a.4.4,0,1,1-.79,0,.4.4,0,0,1,.79,0"/><path class="cls-4" d="M235.21,16.1a.4.4,0,1,1-.79,0,.4.4,0,0,1,.79,0"/><path class="cls-4" d="M245.29,24.74a.39.39,0,0,1-.39.39.4.4,0,0,1,0-.79.39.39,0,0,1,.39.4"/><path class="cls-4" d="M278.26,29.57a.4.4,0,0,1-.79,0,.4.4,0,0,1,.79,0"/><path class="cls-4" d="M291.11,29.35a.4.4,0,1,1-.39-.39.4.4,0,0,1,.39.39"/><path class="cls-4" d="M281,17.21a.4.4,0,0,1-.79,0,.4.4,0,1,1,.79,0"/><path class="cls-4" d="M269.66,4.56a.4.4,0,1,1-.39-.39.4.4,0,0,1,.39.39"/><path class="cls-4" d="M302.17,11.18a.4.4,0,0,1-.79,0,.4.4,0,0,1,.79,0"/><path class="cls-4" d="M427.23,106.79a.39.39,0,0,1-.39.39.39.39,0,1,1,0-.78.39.39,0,0,1,.39.39"/><path class="cls-4" d="M433.81,109.43a.4.4,0,1,1-.4-.4.4.4,0,0,1,.4.4"/><path class="cls-4" d="M312.32,67.59a.38.38,0,0,1-.39.39.39.39,0,0,1,0-.78.38.38,0,0,1,.39.39"/><path class="cls-4" d="M441.15,41.4a.39.39,0,1,1-.39-.39.39.39,0,0,1,.39.39"/><path class="cls-4" d="M295.17,43.26a.39.39,0,1,1-.39-.39.38.38,0,0,1,.39.39"/><path class="cls-4" d="M271.86,53.53a.38.38,0,0,1-.39.39.39.39,0,1,1,0-.78.38.38,0,0,1,.39.39"/><path class="cls-4" d="M229.32,65a.4.4,0,1,1-.39-.39.4.4,0,0,1,.39.39"/><path class="cls-4" d="M372.25,110.83a.4.4,0,0,1-.79,0,.4.4,0,0,1,.79,0"/><path class="cls-4" d="M375.81,115.66a.39.39,0,0,1-.39.39.39.39,0,1,1,0-.78.39.39,0,0,1,.39.39"/><path class="cls-4" d="M437.52,11.67a.39.39,0,0,1-.78,0,.39.39,0,1,1,.78,0"/><path class="cls-4" d="M302.87,10.54a.39.39,0,1,1-.39-.39.39.39,0,0,1,.39.39"/><path class="cls-4" d="M436.75,6.48a.4.4,0,0,1-.39.4.4.4,0,0,1,0-.79.4.4,0,0,1,.39.39"/><path class="cls-4" d="M236.64,80.87a.4.4,0,1,1-.4-.39.39.39,0,0,1,.4.39"/><path class="cls-4" d="M362.37,50.37A.4.4,0,1,1,362,50a.39.39,0,0,1,.39.39"/><path class="cls-4" d="M453.25,76.47a.39.39,0,0,1-.78,0,.39.39,0,1,1,.78,0"/><path class="cls-4" d="M410.61,102.58a.4.4,0,0,1-.79,0,.4.4,0,0,1,.79,0"/><path class="cls-4" d="M316,75.17a.4.4,0,0,1-.79,0,.4.4,0,1,1,.79,0"/><path class="cls-4" d="M355.34,53.6A.39.39,0,0,1,355,54a.38.38,0,0,1-.39-.39.39.39,0,0,1,.39-.39.4.4,0,0,1,.39.39"/><path class="cls-4" d="M438.92,88.4a.39.39,0,0,1-.39.39.39.39,0,1,1,0-.78.39.39,0,0,1,.39.39"/><path class="cls-4" d="M435.26,123a.4.4,0,1,1-.79,0,.4.4,0,0,1,.79,0"/><path class="cls-4" d="M419.21,51.55a.38.38,0,0,1-.39.39.39.39,0,0,1,0-.78.38.38,0,0,1,.39.39"/><path class="cls-4" d="M409.71,31.73a.39.39,0,1,1-.39-.39.38.38,0,0,1,.39.39"/><path class="cls-4" d="M308.8,49.68a.38.38,0,0,1-.39.39.39.39,0,1,1,0-.78.38.38,0,0,1,.39.39"/><path class="cls-4" d="M244.79,41.3a.39.39,0,0,1-.39.39.39.39,0,1,1,0-.78.39.39,0,0,1,.39.39"/><path class="cls-4" d="M278,74.42a.4.4,0,0,1-.39.4.4.4,0,0,1,0-.79.4.4,0,0,1,.39.39"/><path class="cls-4" d="M386,46.08a.39.39,0,1,1-.78,0,.39.39,0,1,1,.78,0"/><path class="cls-4" d="M392.4,49.38A.39.39,0,1,1,392,49a.38.38,0,0,1,.39.39"/><path class="cls-4" d="M343.15,22a.39.39,0,0,1-.39.39.4.4,0,0,1-.39-.39.39.39,0,0,1,.39-.39.38.38,0,0,1,.39.39"/><path class="cls-4" d="M320.37,15.44a.4.4,0,1,1-.4-.39.39.39,0,0,1,.4.39"/><path class="cls-4" d="M356.46,25.52a.4.4,0,1,1-.4-.39.39.39,0,0,1,.4.39"/><path class="cls-4" d="M421.81,31.69a.39.39,0,1,1-.78,0,.39.39,0,0,1,.78,0"/><path class="cls-4" d="M385.18,17.57a.4.4,0,1,1-.79,0,.4.4,0,0,1,.79,0"/><path class="cls-4" d="M349.91,9.81a.4.4,0,0,1-.79,0,.4.4,0,0,1,.79,0"/><path class="cls-4" d="M442.28,44.77a.39.39,0,1,1-.39-.39.39.39,0,0,1,.39.39"/><path class="cls-4" d="M426.12,204.72a.58.58,0,0,1,.58-.58.59.59,0,1,1,0,1.17.58.58,0,0,1-.58-.59"/><path class="cls-4" d="M457.41,166.46a.59.59,0,1,1,.59.58.58.58,0,0,1-.59-.58"/><path class="cls-4" d="M247.22,194.35a.4.4,0,1,1,.39.39.4.4,0,0,1-.39-.39"/><path class="cls-4" d="M242.63,194.32a.4.4,0,1,1,.39.39.39.39,0,0,1-.39-.39"/><path class="cls-4" d="M242.38,209.15a.39.39,0,1,1,.78,0,.39.39,0,1,1-.78,0"/><path class="cls-4" d="M424.29,196a.4.4,0,0,1,.79,0,.4.4,0,0,1-.79,0"/><path class="cls-4" d="M456.57,196.25a.4.4,0,1,1,.4.39.39.39,0,0,1-.4-.39"/><path class="cls-4" d="M446.49,187.62a.39.39,0,0,1,.39-.4.4.4,0,0,1,0,.79.39.39,0,0,1-.39-.39"/><path class="cls-4" d="M413.52,182.78a.4.4,0,1,1,.4.39.39.39,0,0,1-.4-.39"/><path class="cls-4" d="M400.67,183a.39.39,0,0,1,.39-.39.38.38,0,0,1,.39.39.39.39,0,0,1-.39.39.4.4,0,0,1-.39-.39"/><path class="cls-4" d="M410.78,195.15a.4.4,0,1,1,.39.39.4.4,0,0,1-.39-.39"/><path class="cls-4" d="M422.12,207.79a.4.4,0,1,1,.39.39.39.39,0,0,1-.39-.39"/><path class="cls-4" d="M389.61,201.17a.4.4,0,1,1,.39.39.39.39,0,0,1-.39-.39"/><path class="cls-4" d="M264.55,105.56a.4.4,0,0,1,.39-.39.4.4,0,0,1,0,.79.4.4,0,0,1-.39-.4"/><path class="cls-4" d="M258,102.93a.4.4,0,0,1,.79,0,.4.4,0,0,1-.79,0"/><path class="cls-4" d="M379.46,144.76a.39.39,0,0,1,.39-.39.4.4,0,0,1,.39.39.39.39,0,0,1-.39.39.38.38,0,0,1-.39-.39"/><path class="cls-4" d="M250.63,171a.39.39,0,1,1,.39.39.38.38,0,0,1-.39-.39"/><path class="cls-4" d="M396.61,169.09a.39.39,0,1,1,.39.39.38.38,0,0,1-.39-.39"/><path class="cls-4" d="M419.92,158.82a.39.39,0,0,1,.39-.39.4.4,0,0,1,.39.39.39.39,0,0,1-.39.39.38.38,0,0,1-.39-.39"/><path class="cls-4" d="M462.46,147.37a.4.4,0,0,1,.79,0,.4.4,0,0,1-.79,0"/><path class="cls-4" d="M319.53,101.52a.4.4,0,1,1,.39.39.39.39,0,0,1-.39-.39"/><path class="cls-4" d="M316,96.69a.39.39,0,1,1,.39.4.39.39,0,0,1-.39-.4"/><path class="cls-4" d="M254.26,200.68a.39.39,0,1,1,.39.4.39.39,0,0,1-.39-.4"/><path class="cls-4" d="M388.91,201.81a.38.38,0,0,1,.39-.39.39.39,0,0,1,.39.39.4.4,0,0,1-.39.39.39.39,0,0,1-.39-.39"/><path class="cls-4" d="M255,205.87a.39.39,0,0,1,.78,0,.39.39,0,0,1-.78,0"/><path class="cls-4" d="M455.14,131.48a.4.4,0,0,1,.79,0,.4.4,0,0,1-.79,0"/><path class="cls-4" d="M329.41,162a.4.4,0,0,1,.39-.39.39.39,0,0,1,.39.39.38.38,0,0,1-.39.39.39.39,0,0,1-.39-.39"/><path class="cls-4" d="M238.53,135.89a.39.39,0,0,1,.39-.4.4.4,0,0,1,0,.79.39.39,0,0,1-.39-.39"/><path class="cls-4" d="M281.17,109.77a.4.4,0,1,1,.4.39.39.39,0,0,1-.4-.39"/><path class="cls-4" d="M375.83,137.19a.4.4,0,1,1,.39.39.4.4,0,0,1-.39-.39"/><path class="cls-4" d="M336.44,158.75a.39.39,0,0,1,.39-.39.39.39,0,0,1,0,.78.39.39,0,0,1-.39-.39"/><path class="cls-4" d="M252.86,124a.39.39,0,1,1,.39.4.39.39,0,0,1-.39-.4"/><path class="cls-4" d="M256.52,89.34a.4.4,0,0,1,.79,0,.4.4,0,0,1-.79,0"/><path class="cls-4" d="M272.57,160.8a.38.38,0,0,1,.39-.39.39.39,0,1,1,0,.78.38.38,0,0,1-.39-.39"/><path class="cls-4" d="M282.07,180.62a.39.39,0,0,1,.39-.39.4.4,0,0,1,.39.39.39.39,0,0,1-.39.39.38.38,0,0,1-.39-.39"/><path class="cls-4" d="M383,162.67a.4.4,0,0,1,.79,0,.4.4,0,0,1-.79,0"/><path class="cls-4" d="M447,171.05a.4.4,0,0,1,.39-.39.39.39,0,0,1,.39.39.38.38,0,0,1-.39.39.39.39,0,0,1-.39-.39"/><path class="cls-4" d="M413.79,137.93a.39.39,0,0,1,.78,0,.39.39,0,0,1-.78,0"/><path class="cls-4" d="M305.81,166.27a.39.39,0,1,1,.39.39.38.38,0,0,1-.39-.39"/><path class="cls-4" d="M299.38,163a.39.39,0,0,1,.39-.39.4.4,0,0,1,.39.39.39.39,0,0,1-.39.39.38.38,0,0,1-.39-.39"/><path class="cls-4" d="M348.63,190.34A.39.39,0,0,1,349,190a.4.4,0,0,1,0,.79.39.39,0,0,1-.39-.4"/><path class="cls-4" d="M371.41,196.91a.4.4,0,0,1,.79,0,.4.4,0,0,1-.79,0"/><path class="cls-4" d="M335.32,186.83a.4.4,0,0,1,.79,0,.4.4,0,0,1-.79,0"/><path class="cls-4" d="M270,180.66a.39.39,0,1,1,.39.39.38.38,0,0,1-.39-.39"/><path class="cls-4" d="M306.6,194.78a.4.4,0,1,1,.4.39.39.39,0,0,1-.4-.39"/><path class="cls-4" d="M341.87,202.54a.4.4,0,0,1,.79,0,.4.4,0,1,1-.79,0"/><path class="cls-4" d="M249.5,167.58a.39.39,0,1,1,.39.39.38.38,0,0,1-.39-.39"/><path class="cls-4" d="M40-.51a.58.58,0,0,1-.58.58.58.58,0,0,1-.58-.58.59.59,0,0,1,.58-.59A.59.59,0,0,1,40-.51"/><path class="cls-4" d="M8.69,37.75a.59.59,0,1,1-.59-.58.58.58,0,0,1,.59.58"/><path class="cls-4" d="M218.88,9.87a.4.4,0,0,1-.79,0,.4.4,0,1,1,.79,0"/><path class="cls-4" d="M223.47,9.89a.39.39,0,0,1-.39.39.38.38,0,0,1-.39-.39.39.39,0,0,1,.39-.39.4.4,0,0,1,.39.39"/><path class="cls-4" d="M41.81,8.24a.4.4,0,1,1-.39-.39.4.4,0,0,1,.39.39"/><path class="cls-4" d="M9.53,8a.4.4,0,1,1-.39-.39A.4.4,0,0,1,9.53,8"/><path class="cls-4" d="M19.62,16.6a.4.4,0,1,1-.4-.4.4.4,0,0,1,.4.4"/><path class="cls-4" d="M52.58,21.43a.4.4,0,0,1-.79,0,.4.4,0,0,1,.79,0"/><path class="cls-4" d="M65.43,21.21a.4.4,0,0,1-.39.4.4.4,0,0,1,0-.79.4.4,0,0,1,.39.39"/><path class="cls-4" d="M55.32,9.07a.4.4,0,0,1-.39.39.4.4,0,0,1,0-.79.4.4,0,0,1,.39.4"/><path class="cls-4" d="M76.49,3a.4.4,0,0,1-.79,0,.4.4,0,0,1,.79,0"/><path class="cls-4" d="M201.55,98.65a.39.39,0,1,1-.39-.39.38.38,0,0,1,.39.39"/><path class="cls-4" d="M208.13,101.29a.4.4,0,1,1-.4-.4.4.4,0,0,1,.4.4"/><path class="cls-4" d="M86.65,59.45a.4.4,0,1,1-.4-.39.39.39,0,0,1,.4.39"/><path class="cls-4" d="M215.47,33.26a.39.39,0,0,1-.39.4.4.4,0,0,1,0-.79.39.39,0,0,1,.39.39"/><path class="cls-4" d="M69.49,35.12a.39.39,0,1,1-.39-.39.38.38,0,0,1,.39.39"/><path class="cls-4" d="M46.19,45.39a.4.4,0,1,1-.4-.39.39.39,0,0,1,.4.39"/><path class="cls-4" d="M3.64,56.84a.4.4,0,0,1-.39.4.4.4,0,0,1,0-.79.4.4,0,0,1,.39.39"/><path class="cls-4" d="M146.57,102.69a.4.4,0,0,1-.79,0,.4.4,0,0,1,.79,0"/><path class="cls-4" d="M150.13,107.52a.39.39,0,1,1-.39-.39.38.38,0,0,1,.39.39"/><path class="cls-4" d="M211.84,3.53a.39.39,0,0,1-.39.39.4.4,0,0,1-.39-.39.39.39,0,0,1,.39-.39.38.38,0,0,1,.39.39"/><path class="cls-4" d="M77.19,2.4a.39.39,0,0,1-.39.4.4.4,0,0,1,0-.79.39.39,0,0,1,.39.39"/><path class="cls-4" d="M11,72.73a.4.4,0,1,1-.4-.39.39.39,0,0,1,.4.39"/><path class="cls-4" d="M136.69,42.23a.39.39,0,1,1-.39-.39.38.38,0,0,1,.39.39"/><path class="cls-4" d="M227.58,68.33a.4.4,0,0,1-.79,0,.4.4,0,0,1,.79,0"/><path class="cls-4" d="M184.93,94.44a.4.4,0,0,1-.79,0,.4.4,0,0,1,.79,0"/><path class="cls-4" d="M90.27,67a.4.4,0,0,1-.39.39.4.4,0,0,1,0-.79.4.4,0,0,1,.39.4"/><path class="cls-4" d="M129.66,45.46a.39.39,0,1,1-.78,0,.39.39,0,1,1,.78,0"/><path class="cls-4" d="M213.24,80.26a.39.39,0,1,1-.39-.39.38.38,0,0,1,.39.39"/><path class="cls-4" d="M209.58,114.87a.4.4,0,1,1-.79,0,.4.4,0,0,1,.79,0"/><path class="cls-4" d="M193.54,43.41a.4.4,0,1,1-.4-.39.39.39,0,0,1,.4.39"/><path class="cls-4" d="M184,23.59a.38.38,0,0,1-.39.39.39.39,0,1,1,0-.78.38.38,0,0,1,.39.39"/><path class="cls-4" d="M83.13,41.54a.4.4,0,1,1-.4-.39.39.39,0,0,1,.4.39"/><path class="cls-4" d="M19.11,33.16a.39.39,0,1,1-.39-.39.38.38,0,0,1,.39.39"/><path class="cls-4" d="M52.31,66.28a.39.39,0,1,1-.39-.39.39.39,0,0,1,.39.39"/><path class="cls-4" d="M160.29,37.94a.38.38,0,0,1-.39.39.39.39,0,0,1-.39-.39.4.4,0,0,1,.39-.39.39.39,0,0,1,.39.39"/><path class="cls-4" d="M166.73,41.24a.4.4,0,1,1-.4-.39.39.39,0,0,1,.4.39"/><path class="cls-4" d="M117.47,13.87a.39.39,0,0,1-.39.39.4.4,0,0,1-.39-.39.39.39,0,0,1,.39-.39.38.38,0,0,1,.39.39"/><path class="cls-4" d="M94.69,7.3a.39.39,0,0,1-.39.39.39.39,0,0,1,0-.78.39.39,0,0,1,.39.39"/><path class="cls-4" d="M130.78,17.38a.4.4,0,1,1-.39-.39.39.39,0,0,1,.39.39"/><path class="cls-4" d="M196.13,23.55a.38.38,0,0,1-.39.39.39.39,0,0,1-.39-.39.4.4,0,0,1,.39-.39.39.39,0,0,1,.39.39"/><path class="cls-4" d="M159.5,9.43a.4.4,0,1,1-.79,0,.4.4,0,0,1,.79,0"/><path class="cls-4" d="M124.23,1.67a.4.4,0,0,1-.39.39.39.39,0,0,1-.39-.39.38.38,0,0,1,.39-.39.39.39,0,0,1,.39.39"/><path class="cls-4" d="M216.6,36.63a.39.39,0,0,1-.39.4.4.4,0,0,1,0-.79.39.39,0,0,1,.39.39"/><path class="cls-4" d="M200.44,196.58a.59.59,0,1,1,.58.59.58.58,0,0,1-.58-.59"/><path class="cls-4" d="M231.74,158.32a.58.58,0,1,1,.58.58.58.58,0,0,1-.58-.58"/><path class="cls-4" d="M21.54,186.21a.4.4,0,1,1,.79,0,.4.4,0,0,1-.79,0"/><path class="cls-4" d="M17,186.18a.4.4,0,1,1,.4.39.39.39,0,0,1-.4-.39"/><path class="cls-4" d="M16.7,201a.39.39,0,0,1,.39-.39.38.38,0,0,1,.39.39.39.39,0,0,1-.39.39.4.4,0,0,1-.39-.39"/><path class="cls-4" d="M198.61,187.83a.4.4,0,0,1,.79,0,.4.4,0,0,1-.79,0"/><path class="cls-4" d="M230.9,188.11a.38.38,0,0,1,.39-.39.39.39,0,1,1,0,.78.38.38,0,0,1-.39-.39"/><path class="cls-4" d="M220.81,179.48a.39.39,0,0,1,.39-.4.4.4,0,0,1,0,.79.39.39,0,0,1-.39-.39"/><path class="cls-4" d="M187.84,174.64a.4.4,0,1,1,.4.39.39.39,0,0,1-.4-.39"/><path class="cls-4" d="M175,174.86a.4.4,0,0,1,.79,0,.4.4,0,0,1-.79,0"/><path class="cls-4" d="M185.1,187a.4.4,0,1,1,.39.39.4.4,0,0,1-.39-.39"/><path class="cls-4" d="M196.44,199.65a.4.4,0,1,1,.4.39.39.39,0,0,1-.4-.39"/><path class="cls-4" d="M163.93,193a.4.4,0,1,1,.4.39.39.39,0,0,1-.4-.39"/><path class="cls-4" d="M38.87,97.42a.4.4,0,0,1,.79,0,.4.4,0,1,1-.79,0"/><path class="cls-4" d="M32.3,94.79a.38.38,0,0,1,.39-.39.39.39,0,0,1,.39.39.4.4,0,0,1-.39.39.39.39,0,0,1-.39-.39"/><path class="cls-4" d="M153.78,136.62a.39.39,0,0,1,.78,0,.39.39,0,0,1-.78,0"/><path class="cls-4" d="M25,162.81a.39.39,0,1,1,.39.39.38.38,0,0,1-.39-.39"/><path class="cls-4" d="M170.93,161a.4.4,0,0,1,.39-.39.39.39,0,0,1,.39.39.38.38,0,0,1-.39.39.39.39,0,0,1-.39-.39"/><path class="cls-4" d="M194.24,150.68a.39.39,0,0,1,.78,0,.39.39,0,0,1-.78,0"/><path class="cls-4" d="M236.78,139.23a.4.4,0,0,1,.79,0,.4.4,0,0,1-.79,0"/><path class="cls-4" d="M93.85,93.38a.4.4,0,1,1,.4.39.39.39,0,0,1-.4-.39"/><path class="cls-4" d="M90.29,88.55a.4.4,0,0,1,.79,0,.4.4,0,1,1-.79,0"/><path class="cls-4" d="M28.58,192.54a.4.4,0,0,1,.39-.39.4.4,0,0,1,0,.79.4.4,0,0,1-.39-.4"/><path class="cls-4" d="M163.23,193.67a.39.39,0,1,1,.78,0,.39.39,0,1,1-.78,0"/><path class="cls-4" d="M29.35,197.73a.39.39,0,0,1,.39-.39.38.38,0,0,1,.39.39.39.39,0,0,1-.39.39.4.4,0,0,1-.39-.39"/><path class="cls-4" d="M229.47,123.34a.39.39,0,0,1,.39-.39.4.4,0,0,1,.39.39.39.39,0,0,1-.39.39.38.38,0,0,1-.39-.39"/><path class="cls-4" d="M103.73,153.84a.4.4,0,0,1,.79,0,.4.4,0,0,1-.79,0"/><path class="cls-4" d="M12.85,127.75a.39.39,0,1,1,.39.39.39.39,0,0,1-.39-.39"/><path class="cls-4" d="M55.49,101.63a.4.4,0,1,1,.4.39.39.39,0,0,1-.4-.39"/><path class="cls-4" d="M150.15,129.05a.4.4,0,0,1,.79,0,.4.4,0,0,1-.79,0"/><path class="cls-4" d="M110.76,150.61a.4.4,0,1,1,.39.39.39.39,0,0,1-.39-.39"/><path class="cls-4" d="M27.18,115.81a.4.4,0,0,1,.39-.39.4.4,0,0,1,0,.79.4.4,0,0,1-.39-.4"/><path class="cls-4" d="M30.85,81.2a.38.38,0,0,1,.39-.39.39.39,0,0,1,.39.39.4.4,0,0,1-.39.39.39.39,0,0,1-.39-.39"/><path class="cls-4" d="M46.89,152.66a.39.39,0,1,1,.39.39.38.38,0,0,1-.39-.39"/><path class="cls-4" d="M56.39,172.48a.39.39,0,0,1,.78,0,.39.39,0,0,1-.78,0"/><path class="cls-4" d="M157.3,154.53a.39.39,0,0,1,.39-.39.4.4,0,0,1,.39.39.39.39,0,0,1-.39.39.38.38,0,0,1-.39-.39"/><path class="cls-4" d="M221.31,162.91a.4.4,0,0,1,.39-.39.39.39,0,0,1,.39.39.38.38,0,0,1-.39.39.39.39,0,0,1-.39-.39"/><path class="cls-4" d="M188.11,129.79a.39.39,0,0,1,.39-.39.38.38,0,0,1,.39.39.39.39,0,0,1-.39.39.4.4,0,0,1-.39-.39"/><path class="cls-4" d="M80.13,158.13a.39.39,0,1,1,.39.39.38.38,0,0,1-.39-.39"/><path class="cls-4" d="M73.7,154.83a.39.39,0,1,1,.78,0,.39.39,0,1,1-.78,0"/><path class="cls-4" d="M123,182.21a.39.39,0,1,1,.39.39.39.39,0,0,1-.39-.39"/><path class="cls-4" d="M145.73,188.77a.4.4,0,1,1,.4.4.4.4,0,0,1-.4-.4"/><path class="cls-4" d="M109.64,178.69a.4.4,0,0,1,.79,0,.4.4,0,0,1-.79,0"/><path class="cls-4" d="M44.29,172.52a.39.39,0,1,1,.39.39.38.38,0,0,1-.39-.39"/><path class="cls-4" d="M80.93,186.64a.38.38,0,0,1,.39-.39.39.39,0,0,1,0,.78.38.38,0,0,1-.39-.39"/><path class="cls-4" d="M116.19,194.4a.4.4,0,1,1,.4.4.4.4,0,0,1-.4-.4"/><path class="cls-4" d="M23.82,159.44a.39.39,0,0,1,.39-.39.39.39,0,1,1,0,.78.39.39,0,0,1-.39-.39"/><path class="cls-4" d="M265.66,219.55a.59.59,0,1,1-.58-.58.58.58,0,0,1,.58.58"/><path class="cls-4" d="M234.37,257.82a.59.59,0,1,1-.59-.59.58.58,0,0,1,.59.59"/><path class="cls-4" d="M444.56,229.93a.4.4,0,0,1-.79,0,.4.4,0,0,1,.79,0"/><path class="cls-4" d="M449.15,230a.4.4,0,1,1-.39-.39.4.4,0,0,1,.39.39"/><path class="cls-4" d="M449.4,215.13a.39.39,0,1,1-.39-.4.39.39,0,0,1,.39.4"/><path class="cls-4" d="M267.49,228.31a.4.4,0,1,1-.4-.4.4.4,0,0,1,.4.4"/><path class="cls-4" d="M235.21,228a.4.4,0,1,1-.4-.4.4.4,0,0,1,.4.4"/><path class="cls-4" d="M245.29,236.66a.39.39,0,0,1-.39.39.4.4,0,0,1-.39-.39.39.39,0,0,1,.39-.39.38.38,0,0,1,.39.39"/><path class="cls-4" d="M278.26,241.49a.4.4,0,1,1-.79,0,.4.4,0,0,1,.79,0"/><path class="cls-4" d="M291.11,241.28a.4.4,0,0,1-.79,0,.4.4,0,1,1,.79,0"/><path class="cls-4" d="M281,229.13a.4.4,0,0,1-.79,0,.4.4,0,0,1,.79,0"/><path class="cls-4" d="M269.66,216.48a.4.4,0,1,1-.39-.39.4.4,0,0,1,.39.39"/><path class="cls-4" d="M302.17,223.1a.4.4,0,1,1-.79,0,.4.4,0,0,1,.79,0"/><path class="cls-4" d="M427.23,318.71a.39.39,0,0,1-.39.39.39.39,0,1,1,0-.78.39.39,0,0,1,.39.39"/><path class="cls-4" d="M433.81,321.35a.4.4,0,0,1-.79,0,.4.4,0,0,1,.79,0"/><path class="cls-4" d="M312.32,279.51a.38.38,0,0,1-.39.39.39.39,0,0,1-.39-.39.4.4,0,0,1,.39-.39.39.39,0,0,1,.39.39"/><path class="cls-4" d="M441.15,253.33a.39.39,0,1,1-.39-.4.39.39,0,0,1,.39.4"/><path class="cls-4" d="M295.17,255.18a.39.39,0,1,1-.39-.39.39.39,0,0,1,.39.39"/><path class="cls-4" d="M271.86,265.45a.38.38,0,0,1-.39.39.39.39,0,0,1-.39-.39.4.4,0,0,1,.39-.39.39.39,0,0,1,.39.39"/><path class="cls-4" d="M229.32,276.91a.4.4,0,0,1-.79,0,.4.4,0,1,1,.79,0"/><path class="cls-4" d="M372.25,322.75a.4.4,0,1,1-.79,0,.4.4,0,0,1,.79,0"/><path class="cls-4" d="M375.81,327.58a.39.39,0,0,1-.39.39.39.39,0,0,1,0-.78.39.39,0,0,1,.39.39"/><path class="cls-4" d="M437.52,223.59a.39.39,0,1,1-.39-.39.38.38,0,0,1,.39.39"/><path class="cls-4" d="M302.87,222.47a.39.39,0,1,1-.39-.4.39.39,0,0,1,.39.4"/><path class="cls-4" d="M436.75,218.41a.4.4,0,0,1-.39.39.4.4,0,0,1,0-.79.4.4,0,0,1,.39.4"/><path class="cls-4" d="M236.64,292.79a.4.4,0,0,1-.79,0,.4.4,0,0,1,.79,0"/><path class="cls-4" d="M362.37,262.29a.4.4,0,0,1-.79,0,.4.4,0,0,1,.79,0"/><path class="cls-4" d="M453.25,288.39a.39.39,0,1,1-.39-.39.38.38,0,0,1,.39.39"/><path class="cls-4" d="M410.61,314.5a.4.4,0,1,1-.79,0,.4.4,0,0,1,.79,0"/><path class="cls-4" d="M316,287.09a.4.4,0,0,1-.79,0,.4.4,0,0,1,.79,0"/><path class="cls-4" d="M355.34,265.52a.4.4,0,0,1-.39.4.4.4,0,0,1,0-.79.4.4,0,0,1,.39.39"/><path class="cls-4" d="M438.92,300.32a.39.39,0,0,1-.39.39.39.39,0,0,1,0-.78.39.39,0,0,1,.39.39"/><path class="cls-4" d="M435.26,334.94a.4.4,0,1,1-.4-.4.4.4,0,0,1,.4.4"/><path class="cls-4" d="M419.21,263.47a.39.39,0,0,1-.39.4.4.4,0,0,1,0-.79.39.39,0,0,1,.39.39"/><path class="cls-4" d="M409.71,243.65a.39.39,0,1,1-.78,0,.39.39,0,0,1,.78,0"/><path class="cls-4" d="M308.8,261.6a.38.38,0,0,1-.39.39.39.39,0,0,1-.39-.39.4.4,0,0,1,.39-.39.39.39,0,0,1,.39.39"/><path class="cls-4" d="M244.79,253.22a.39.39,0,0,1-.39.39.38.38,0,0,1-.39-.39.39.39,0,0,1,.39-.39.4.4,0,0,1,.39.39"/><path class="cls-4" d="M278,286.35a.4.4,0,0,1-.39.39.4.4,0,0,1,0-.79.4.4,0,0,1,.39.4"/><path class="cls-4" d="M386,258a.39.39,0,1,1-.39-.39.39.39,0,0,1,.39.39"/><path class="cls-4" d="M392.4,261.3a.39.39,0,0,1-.78,0,.39.39,0,1,1,.78,0"/><path class="cls-4" d="M343.15,233.93a.38.38,0,0,1-.39.39.39.39,0,1,1,0-.78.38.38,0,0,1,.39.39"/><path class="cls-4" d="M320.37,227.36a.4.4,0,1,1-.4-.39.39.39,0,0,1,.4.39"/><path class="cls-4" d="M356.46,237.44a.4.4,0,0,1-.79,0,.4.4,0,0,1,.79,0"/><path class="cls-4" d="M421.81,243.61a.39.39,0,1,1-.39-.39.39.39,0,0,1,.39.39"/><path class="cls-4" d="M385.18,229.5a.4.4,0,1,1-.4-.4.4.4,0,0,1,.4.4"/><path class="cls-4" d="M349.91,221.73a.4.4,0,1,1-.39-.39.39.39,0,0,1,.39.39"/><path class="cls-4" d="M442.28,256.7a.39.39,0,1,1-.39-.4.39.39,0,0,1,.39.4"/><path class="cls-4" d="M264.55,317.49a.4.4,0,0,1,.39-.4.4.4,0,0,1,0,.79.4.4,0,0,1-.39-.39"/><path class="cls-4" d="M258,314.85a.4.4,0,1,1,.4.39.39.39,0,0,1-.4-.39"/><path class="cls-4" d="M379.46,356.68a.39.39,0,0,1,.39-.39.4.4,0,0,1,0,.79.39.39,0,0,1-.39-.4"/><path class="cls-4" d="M462.46,359.29a.4.4,0,1,1,.39.39.39.39,0,0,1-.39-.39"/><path class="cls-4" d="M319.53,313.44a.4.4,0,0,1,.79,0,.4.4,0,0,1-.79,0"/><path class="cls-4" d="M316,308.62a.39.39,0,1,1,.39.39.39.39,0,0,1-.39-.39"/><path class="cls-4" d="M455.14,343.4a.4.4,0,1,1,.4.4.4.4,0,0,1-.4-.4"/><path class="cls-4" d="M238.53,347.81a.38.38,0,0,1,.39-.39.39.39,0,0,1,.39.39.4.4,0,0,1-.39.39.39.39,0,0,1-.39-.39"/><path class="cls-4" d="M281.17,321.69a.4.4,0,0,1,.79,0,.4.4,0,0,1-.79,0"/><path class="cls-4" d="M375.83,349.11a.4.4,0,1,1,.39.39.39.39,0,0,1-.39-.39"/><path class="cls-4" d="M252.86,335.88a.39.39,0,1,1,.39.39.39.39,0,0,1-.39-.39"/><path class="cls-4" d="M256.52,301.26a.4.4,0,1,1,.4.39.39.39,0,0,1-.4-.39"/><path class="cls-4" d="M413.79,349.85a.39.39,0,1,1,.39.39.38.38,0,0,1-.39-.39"/><path class="cls-4" d="M40,211.41a.58.58,0,1,1-.58-.58.58.58,0,0,1,.58.58"/><path class="cls-4" d="M8.69,249.68a.59.59,0,1,1-.59-.59.58.58,0,0,1,.59.59"/><path class="cls-4" d="M218.88,221.79a.4.4,0,1,1-.39-.39.39.39,0,0,1,.39.39"/><path class="cls-4" d="M223.47,221.81a.4.4,0,0,1-.39.4.4.4,0,0,1,0-.79.4.4,0,0,1,.39.39"/><path class="cls-4" d="M223.72,207a.39.39,0,1,1-.39-.4.39.39,0,0,1,.39.4"/><path class="cls-4" d="M41.81,220.17a.4.4,0,0,1-.79,0,.4.4,0,1,1,.79,0"/><path class="cls-4" d="M9.53,219.89a.4.4,0,0,1-.79,0,.4.4,0,1,1,.79,0"/><path class="cls-4" d="M19.62,228.52a.4.4,0,0,1-.79,0,.4.4,0,0,1,.79,0"/><path class="cls-4" d="M52.58,233.35a.4.4,0,1,1-.39-.39.4.4,0,0,1,.39.39"/><path class="cls-4" d="M65.43,233.14a.4.4,0,0,1-.39.39.4.4,0,0,1,0-.79.4.4,0,0,1,.39.4"/><path class="cls-4" d="M55.32,221a.4.4,0,0,1-.39.39.39.39,0,0,1-.39-.39.38.38,0,0,1,.39-.39.39.39,0,0,1,.39.39"/><path class="cls-4" d="M44,208.35a.4.4,0,0,1-.39.39.4.4,0,0,1,0-.79.4.4,0,0,1,.39.4"/><path class="cls-4" d="M76.49,215a.4.4,0,1,1-.39-.39.4.4,0,0,1,.39.39"/><path class="cls-4" d="M201.55,310.57a.39.39,0,1,1-.39-.39.38.38,0,0,1,.39.39"/><path class="cls-4" d="M208.13,313.21a.4.4,0,0,1-.79,0,.4.4,0,0,1,.79,0"/><path class="cls-4" d="M86.65,271.37a.4.4,0,1,1-.79,0,.4.4,0,0,1,.79,0"/><path class="cls-4" d="M215.47,245.19a.39.39,0,0,1-.39.39.4.4,0,0,1,0-.79.39.39,0,0,1,.39.4"/><path class="cls-4" d="M69.49,247a.39.39,0,1,1-.39-.39.39.39,0,0,1,.39.39"/><path class="cls-4" d="M46.19,257.31a.4.4,0,0,1-.79,0,.4.4,0,0,1,.79,0"/><path class="cls-4" d="M3.64,268.77a.4.4,0,0,1-.39.39.4.4,0,0,1,0-.79.4.4,0,0,1,.39.4"/><path class="cls-4" d="M146.57,314.61a.4.4,0,1,1-.39-.39.4.4,0,0,1,.39.39"/><path class="cls-4" d="M150.13,319.44a.39.39,0,1,1-.39-.39.38.38,0,0,1,.39.39"/><path class="cls-4" d="M211.84,215.45a.38.38,0,0,1-.39.39.39.39,0,1,1,0-.78.38.38,0,0,1,.39.39"/><path class="cls-4" d="M77.19,214.33a.39.39,0,0,1-.39.39.4.4,0,0,1,0-.79.39.39,0,0,1,.39.4"/><path class="cls-4" d="M211.07,210.27a.39.39,0,1,1-.39-.4.39.39,0,0,1,.39.4"/><path class="cls-4" d="M11,284.65a.4.4,0,0,1-.79,0,.4.4,0,0,1,.79,0"/><path class="cls-4" d="M136.69,254.15a.39.39,0,1,1-.78,0,.39.39,0,1,1,.78,0"/><path class="cls-4" d="M227.58,280.25a.4.4,0,1,1-.4-.39.39.39,0,0,1,.4.39"/><path class="cls-4" d="M184.93,306.36a.4.4,0,1,1-.39-.39.4.4,0,0,1,.39.39"/><path class="cls-4" d="M90.27,279a.4.4,0,0,1-.39.39.39.39,0,0,1-.39-.39.38.38,0,0,1,.39-.39.39.39,0,0,1,.39.39"/><path class="cls-4" d="M129.66,257.38a.39.39,0,1,1-.39-.39.39.39,0,0,1,.39.39"/><path class="cls-4" d="M213.24,292.18a.39.39,0,1,1-.39-.39.38.38,0,0,1,.39.39"/><path class="cls-4" d="M209.58,326.8a.4.4,0,1,1-.4-.4.4.4,0,0,1,.4.4"/><path class="cls-4" d="M193.54,255.33a.4.4,0,1,1-.79,0,.4.4,0,0,1,.79,0"/><path class="cls-4" d="M184,235.51a.39.39,0,0,1-.39.4.4.4,0,0,1,0-.79.39.39,0,0,1,.39.39"/><path class="cls-4" d="M83.13,253.46a.4.4,0,0,1-.79,0,.4.4,0,0,1,.79,0"/><path class="cls-4" d="M19.11,245.08a.39.39,0,0,1-.78,0,.39.39,0,0,1,.78,0"/><path class="cls-4" d="M52.31,278.21a.39.39,0,1,1-.39-.4.39.39,0,0,1,.39.4"/><path class="cls-4" d="M160.29,249.86a.39.39,0,0,1-.39.4.4.4,0,0,1,0-.79.39.39,0,0,1,.39.39"/><path class="cls-4" d="M166.73,253.16a.4.4,0,0,1-.79,0,.4.4,0,0,1,.79,0"/><path class="cls-4" d="M117.47,225.79a.38.38,0,0,1-.39.39.39.39,0,0,1,0-.78.38.38,0,0,1,.39.39"/><path class="cls-4" d="M94.69,219.22a.39.39,0,0,1-.39.39.38.38,0,0,1-.39-.39.39.39,0,0,1,.39-.39.4.4,0,0,1,.39.39"/><path class="cls-4" d="M130.78,229.3a.4.4,0,0,1-.79,0,.4.4,0,0,1,.79,0"/><path class="cls-4" d="M196.13,235.47a.39.39,0,0,1-.39.4.4.4,0,0,1,0-.79.39.39,0,0,1,.39.39"/><path class="cls-4" d="M159.5,221.36a.4.4,0,1,1-.4-.4.4.4,0,0,1,.4.4"/><path class="cls-4" d="M124.23,213.59a.39.39,0,0,1-.39.39.39.39,0,1,1,0-.78.39.39,0,0,1,.39.39"/><path class="cls-4" d="M216.6,248.56a.39.39,0,0,1-.39.39.4.4,0,0,1,0-.79.39.39,0,0,1,.39.4"/><path class="cls-4" d="M38.87,309.35a.4.4,0,1,1,.39.39.4.4,0,0,1-.39-.39"/><path class="cls-4" d="M32.3,306.71a.38.38,0,0,1,.39-.39.39.39,0,0,1,0,.78.38.38,0,0,1-.39-.39"/><path class="cls-4" d="M153.78,348.54a.39.39,0,1,1,.39.4.39.39,0,0,1-.39-.4"/><path class="cls-4" d="M236.78,351.15a.4.4,0,1,1,.4.39.39.39,0,0,1-.4-.39"/><path class="cls-4" d="M93.85,305.3a.4.4,0,0,1,.79,0,.4.4,0,0,1-.79,0"/><path class="cls-4" d="M90.29,300.48a.4.4,0,1,1,.39.39.4.4,0,0,1-.39-.39"/><path class="cls-4" d="M229.47,335.26a.39.39,0,0,1,.39-.39.4.4,0,0,1,0,.79.39.39,0,0,1-.39-.4"/><path class="cls-4" d="M12.85,339.67a.39.39,0,1,1,.78,0,.39.39,0,0,1-.78,0"/><path class="cls-4" d="M55.49,313.55a.4.4,0,0,1,.79,0,.4.4,0,0,1-.79,0"/><path class="cls-4" d="M150.15,341a.4.4,0,1,1,.39.39.39.39,0,0,1-.39-.39"/><path class="cls-4" d="M27.18,327.74a.4.4,0,0,1,.39-.4.4.4,0,0,1,0,.79.4.4,0,0,1-.39-.39"/><path class="cls-4" d="M30.85,293.12a.38.38,0,0,1,.39-.39.39.39,0,0,1,0,.78.38.38,0,0,1-.39-.39"/><path class="cls-4" d="M188.11,341.71a.39.39,0,0,1,.39-.39.39.39,0,0,1,0,.78.39.39,0,0,1-.39-.39"/><path class="cls-5" d="M299.41,16.14a.58.58,0,0,1-.68.47.58.58,0,1,1,.2-1.14.58.58,0,0,1,.48.67"/><path class="cls-5" d="M262,48.5a.58.58,0,0,1-.68.47.58.58,0,1,1,.2-1.14.58.58,0,0,1,.48.67"/><path class="cls-5" d="M473.9,56.91a.38.38,0,0,1-.45.32.39.39,0,0,1-.32-.45.39.39,0,0,1,.45-.32.39.39,0,0,1,.32.45"/><path class="cls-5" d="M478.42,57.72A.39.39,0,0,1,478,58a.39.39,0,0,1-.32-.45.39.39,0,1,1,.77.13"/><path class="cls-5" d="M299.71,25.08a.39.39,0,0,1-.77-.13.39.39,0,0,1,.45-.32.38.38,0,0,1,.32.45"/><path class="cls-5" d="M268,19.29a.39.39,0,0,1-.77-.13.39.39,0,0,1,.45-.32.38.38,0,0,1,.32.45"/><path class="cls-5" d="M276.42,29.52a.39.39,0,0,1-.45.32.39.39,0,0,1-.32-.45.38.38,0,0,1,.45-.32.39.39,0,0,1,.32.45"/><path class="cls-5" d="M308.07,39.91a.39.39,0,0,1-.77-.13.39.39,0,1,1,.77.13"/><path class="cls-5" d="M320.77,41.89a.39.39,0,0,1-.45.32.39.39,0,1,1,.13-.77.39.39,0,0,1,.32.45"/><path class="cls-5" d="M312.88,28.2a.39.39,0,1,1-.77-.14.4.4,0,0,1,.45-.32.39.39,0,0,1,.32.46"/><path class="cls-5" d="M303.87,13.8a.39.39,0,0,1-.45.32.38.38,0,0,1-.32-.45.39.39,0,0,1,.45-.32.39.39,0,0,1,.32.45"/><path class="cls-5" d="M334.77,25.87a.39.39,0,0,1-.45.32.38.38,0,0,1-.32-.45.39.39,0,0,1,.77.13"/><path class="cls-5" d="M441.67,141.43a.39.39,0,1,1-.77-.13.39.39,0,0,1,.45-.32.39.39,0,0,1,.32.45"/><path class="cls-5" d="M447.7,145.15a.39.39,0,0,1-.45.32.38.38,0,0,1-.32-.45.39.39,0,0,1,.45-.32.39.39,0,0,1,.32.45"/><path class="cls-5" d="M335.15,83.19a.4.4,0,0,1-.78-.13.39.39,0,0,1,.46-.32.4.4,0,0,1,.32.45"/><path class="cls-5" d="M466.55,79.38a.38.38,0,0,1-.45.32.39.39,0,0,1-.32-.45.39.39,0,0,1,.45-.32.39.39,0,0,1,.32.45"/><path class="cls-5" d="M322.4,56.29a.39.39,0,1,1-.77-.14.38.38,0,0,1,.45-.31.39.39,0,0,1,.32.45"/><path class="cls-5" d="M297.68,62.43a.4.4,0,0,1-.45.32.39.39,0,0,1-.32-.46.39.39,0,1,1,.77.14"/><path class="cls-5" d="M253.8,66.45a.39.39,0,1,1-.77-.14.39.39,0,0,1,.45-.31.38.38,0,0,1,.32.45"/><path class="cls-5" d="M386.81,136a.4.4,0,1,1-.32-.46.41.41,0,0,1,.32.46"/><path class="cls-5" d="M389.49,141.39a.38.38,0,0,1-.45.32.39.39,0,0,1,.13-.77.39.39,0,0,1,.32.45"/><path class="cls-5" d="M468.05,49.47a.39.39,0,1,1-.77-.14.4.4,0,0,1,.45-.32.39.39,0,0,1,.32.46"/><path class="cls-5" d="M335.58,25.37a.4.4,0,1,1-.32-.46.41.41,0,0,1,.32.46"/><path class="cls-5" d="M468.18,44.23a.4.4,0,0,1-.45.32.39.39,0,0,1-.32-.46.39.39,0,1,1,.77.14"/><path class="cls-5" d="M258.3,83.35a.39.39,0,0,1-.45.32.39.39,0,1,1,.13-.77.38.38,0,0,1,.32.45"/><path class="cls-5" d="M387.4,74.77a.4.4,0,1,1-.32-.46.41.41,0,0,1,.32.46"/><path class="cls-5" d="M472.49,116a.39.39,0,0,1-.45.32.39.39,0,1,1,.45-.32"/><path class="cls-5" d="M426,134.45a.39.39,0,0,1-.45.32.39.39,0,1,1,.45-.32"/><path class="cls-5" d="M337.42,91.27a.38.38,0,0,1-.45.32.39.39,0,0,1-.32-.45.39.39,0,1,1,.77.13"/><path class="cls-5" d="M379.92,76.75a.39.39,0,1,1-.32-.45.39.39,0,0,1,.32.45"/><path class="cls-5" d="M456.33,125.31a.39.39,0,0,1-.45.32.39.39,0,1,1,.45-.32"/><path class="cls-5" d="M446.81,158.79a.39.39,0,0,1-.45.32.39.39,0,0,1-.32-.45.38.38,0,0,1,.45-.32.39.39,0,0,1,.32.45"/><path class="cls-5" d="M443.2,85.64a.4.4,0,0,1-.45.32.4.4,0,1,1,.14-.78.39.39,0,0,1,.31.46"/><path class="cls-5" d="M437.23,64.49a.41.41,0,0,1-.46.32.4.4,0,1,1,.46-.32"/><path class="cls-5" d="M334.74,64.94a.4.4,0,0,1-.78-.13.39.39,0,0,1,.46-.32.4.4,0,0,1,.32.45"/><path class="cls-5" d="M273.09,45.75a.38.38,0,0,1-.45.32.39.39,0,0,1-.32-.45.39.39,0,0,1,.45-.32.39.39,0,0,1,.32.45"/><path class="cls-5" d="M300.15,84.06a.39.39,0,0,1-.45.32.39.39,0,0,1-.32-.45.38.38,0,0,1,.45-.32.39.39,0,0,1,.32.45"/><path class="cls-5" d="M411.39,74.57a.39.39,0,0,1-.46.32.39.39,0,1,1,.14-.77.4.4,0,0,1,.32.45"/><path class="cls-5" d="M417.16,78.92a.39.39,0,0,1-.45.32.39.39,0,0,1-.32-.45.38.38,0,0,1,.45-.32.39.39,0,0,1,.32.45"/><path class="cls-5" d="M373.31,43.54a.4.4,0,0,1-.78-.13.39.39,0,0,1,.46-.32.4.4,0,0,1,.32.45"/><path class="cls-5" d="M352,33.18a.4.4,0,1,1-.32-.46.41.41,0,0,1,.32.46"/><path class="cls-5" d="M385.81,49.27a.38.38,0,0,1-.45.32.39.39,0,1,1,.13-.77.39.39,0,0,1,.32.45"/><path class="cls-5" d="M449.16,66.51a.39.39,0,0,1-.46.32.39.39,0,1,1,.14-.77.4.4,0,0,1,.32.45"/><path class="cls-5" d="M415.47,46.35a.4.4,0,0,1-.45.32.39.39,0,0,1-.32-.46.39.39,0,1,1,.77.14"/><path class="cls-5" d="M382,32.67a.38.38,0,0,1-.45.32.39.39,0,1,1,.14-.77.39.39,0,0,1,.31.45"/><path class="cls-5" d="M467.09,82.9a.39.39,0,1,1-.32-.46.4.4,0,0,1,.32.46"/><path class="cls-5" d="M423.85,237.74a.58.58,0,0,1,.68-.47.58.58,0,1,1-.2,1.14.58.58,0,0,1-.48-.67"/><path class="cls-5" d="M461.22,205.38a.58.58,0,0,1,.68-.47.58.58,0,0,1-.2,1.14.58.58,0,0,1-.48-.67"/><path class="cls-5" d="M249.36,197a.38.38,0,0,1,.45-.32.39.39,0,0,1,.32.45.39.39,0,0,1-.45.32.39.39,0,0,1-.32-.45"/><path class="cls-5" d="M244.84,196.16a.39.39,0,0,1,.45-.32.39.39,0,0,1,.32.45.39.39,0,1,1-.77-.13"/><path class="cls-5" d="M242.06,210.72a.38.38,0,0,1,.45-.31.39.39,0,0,1,.32.45.4.4,0,0,1-.45.32.39.39,0,0,1-.32-.46"/><path class="cls-5" d="M423.55,228.8a.39.39,0,0,1,.45-.32.39.39,0,0,1,.32.45.38.38,0,0,1-.45.32.39.39,0,0,1-.32-.45"/><path class="cls-5" d="M455.31,234.59a.39.39,0,0,1,.45-.32.39.39,0,1,1-.45.32"/><path class="cls-5" d="M446.84,224.36a.4.4,0,1,1,.32.45.4.4,0,0,1-.32-.45"/><path class="cls-5" d="M415.19,214a.39.39,0,1,1,.32.45.39.39,0,0,1-.32-.45"/><path class="cls-5" d="M402.49,212a.39.39,0,0,1,.77.13.39.39,0,1,1-.77-.13"/><path class="cls-5" d="M410.38,225.68a.39.39,0,1,1,.77.14.4.4,0,0,1-.45.32.39.39,0,0,1-.32-.46"/><path class="cls-5" d="M419.39,240.08a.39.39,0,0,1,.46-.32.38.38,0,0,1,.31.45.39.39,0,0,1-.45.32.4.4,0,0,1-.32-.45"/><path class="cls-5" d="M388.49,228a.39.39,0,0,1,.45-.32.38.38,0,0,1,.32.45.39.39,0,0,1-.45.32.39.39,0,0,1-.32-.45"/><path class="cls-5" d="M281.59,112.45a.39.39,0,1,1,.32.45.39.39,0,0,1-.32-.45"/><path class="cls-5" d="M275.56,108.73a.39.39,0,0,1,.45-.32.38.38,0,0,1,.32.45.39.39,0,0,1-.45.32.39.39,0,0,1-.32-.45"/><path class="cls-5" d="M388.12,170.69a.38.38,0,0,1,.45-.32.4.4,0,0,1,.32.45.39.39,0,0,1-.46.32.38.38,0,0,1-.31-.45"/><path class="cls-5" d="M256.71,174.5a.38.38,0,0,1,.45-.32.39.39,0,0,1,.32.45.39.39,0,0,1-.45.32.39.39,0,0,1-.32-.45"/><path class="cls-5" d="M400.86,197.59a.39.39,0,1,1,.77.14.38.38,0,0,1-.45.31.39.39,0,0,1-.32-.45"/><path class="cls-5" d="M425.58,191.45a.4.4,0,0,1,.45-.32.39.39,0,0,1,.32.46.39.39,0,1,1-.77-.14"/><path class="cls-5" d="M469.46,187.43a.39.39,0,1,1,.77.14.39.39,0,0,1-.45.31.38.38,0,0,1-.32-.45"/><path class="cls-5" d="M336.45,117.85a.4.4,0,1,1,.32.46.41.41,0,0,1-.32-.46"/><path class="cls-5" d="M333.77,112.49a.39.39,0,1,1,.77.13.39.39,0,0,1-.45.32.39.39,0,0,1-.32-.45"/><path class="cls-5" d="M255.21,204.41a.39.39,0,1,1,.77.14.4.4,0,0,1-.45.32.39.39,0,0,1-.32-.46"/><path class="cls-5" d="M387.69,228.51a.4.4,0,0,1,.45-.32.41.41,0,0,1,.32.46.4.4,0,0,1-.45.32.39.39,0,0,1-.32-.46"/><path class="cls-5" d="M255.08,209.65a.41.41,0,0,1,.46-.32.39.39,0,0,1,.31.46.39.39,0,1,1-.77-.14"/><path class="cls-5" d="M465,170.53a.39.39,0,0,1,.45-.32.39.39,0,0,1,.32.45.38.38,0,0,1-.45.32.39.39,0,0,1-.32-.45"/><path class="cls-5" d="M335.86,179.11a.4.4,0,1,1,.32.46.41.41,0,0,1-.32-.46"/><path class="cls-5" d="M250.77,137.88a.39.39,0,0,1,.45-.32.39.39,0,0,1,.32.45.38.38,0,0,1-.45.32.39.39,0,0,1-.32-.45"/><path class="cls-5" d="M297.25,119.43a.39.39,0,0,1,.45-.32.39.39,0,0,1,.32.45.38.38,0,0,1-.45.32.39.39,0,0,1-.32-.45"/><path class="cls-5" d="M385.84,162.61a.38.38,0,0,1,.45-.32.39.39,0,0,1,.32.45.39.39,0,1,1-.77-.13"/><path class="cls-5" d="M343.34,177.13a.39.39,0,0,1,.46-.32.39.39,0,0,1-.14.77.4.4,0,0,1-.32-.45"/><path class="cls-5" d="M266.93,128.57a.39.39,0,0,1,.45-.32.39.39,0,0,1,.32.45.38.38,0,0,1-.45.32.39.39,0,0,1-.32-.45"/><path class="cls-5" d="M276.45,95.09a.4.4,0,0,1,.46-.32.39.39,0,0,1,.31.45.38.38,0,0,1-.45.32.39.39,0,0,1-.32-.45"/><path class="cls-5" d="M280.06,168.24a.39.39,0,1,1,.77.14.4.4,0,0,1-.45.32.39.39,0,0,1-.32-.46"/><path class="cls-5" d="M286,189.39a.4.4,0,1,1,.32.46.41.41,0,0,1-.32-.46"/><path class="cls-5" d="M388.52,188.94a.4.4,0,0,1,.78.13.39.39,0,0,1-.46.32.4.4,0,0,1-.32-.45"/><path class="cls-5" d="M450.17,208.13a.38.38,0,0,1,.45-.32.39.39,0,0,1,.32.45.39.39,0,0,1-.45.32.39.39,0,0,1-.32-.45"/><path class="cls-5" d="M423.11,169.82a.39.39,0,0,1,.45-.32.39.39,0,0,1,.32.45.38.38,0,0,1-.45.32.39.39,0,0,1-.32-.45"/><path class="cls-5" d="M311.88,179.31a.38.38,0,0,1,.45-.32.39.39,0,0,1,.32.45.39.39,0,0,1-.45.32.39.39,0,0,1-.32-.45"/><path class="cls-5" d="M306.1,175a.4.4,0,0,1,.46-.32.39.39,0,0,1,.31.45.38.38,0,0,1-.45.32.4.4,0,0,1-.32-.45"/><path class="cls-5" d="M350,210.34a.38.38,0,0,1,.45-.32.4.4,0,0,1,.32.45.39.39,0,0,1-.46.32.38.38,0,0,1-.31-.45"/><path class="cls-5" d="M371.29,220.7a.39.39,0,0,1,.45-.32.4.4,0,1,1-.14.78.39.39,0,0,1-.31-.46"/><path class="cls-5" d="M337.45,204.61a.38.38,0,0,1,.45-.32.39.39,0,0,1-.13.77.39.39,0,0,1-.32-.45"/><path class="cls-5" d="M274.1,187.37a.39.39,0,0,1,.46-.32.39.39,0,1,1-.14.77.4.4,0,0,1-.32-.45"/><path class="cls-5" d="M307.79,207.53a.4.4,0,1,1,.32.46.41.41,0,0,1-.32-.46"/><path class="cls-5" d="M341.22,221.21a.38.38,0,0,1,.45-.32.39.39,0,0,1,.32.45.39.39,0,0,1-.45.32.39.39,0,0,1-.32-.45"/><path class="cls-5" d="M256.17,171a.4.4,0,0,1,.45-.32.39.39,0,0,1,.32.46.39.39,0,1,1-.77-.14"/><path class="cls-5" d="M41.06,1.94a.58.58,0,0,1-.67.48.6.6,0,0,1-.48-.68.6.6,0,0,1,.68-.47.58.58,0,0,1,.47.67"/><path class="cls-5" d="M252.93,10.36a.4.4,0,0,1-.45.32.39.39,0,0,1-.32-.46.39.39,0,1,1,.77.14"/><path class="cls-5" d="M257.45,11.17a.4.4,0,0,1-.45.32.39.39,0,0,1-.32-.46.39.39,0,1,1,.77.14"/><path class="cls-5" d="M220.7,94.88a.4.4,0,1,1-.32-.46.41.41,0,0,1,.32.46"/><path class="cls-5" d="M226.73,98.6a.4.4,0,1,1-.32-.46.41.41,0,0,1,.32.46"/><path class="cls-5" d="M114.17,36.63a.39.39,0,1,1-.77-.13.39.39,0,0,1,.45-.32.39.39,0,0,1,.32.45"/><path class="cls-5" d="M245.58,32.83a.39.39,0,0,1-.45.32.39.39,0,0,1-.32-.45.38.38,0,0,1,.45-.32.39.39,0,0,1,.32.45"/><path class="cls-5" d="M101.43,9.73a.39.39,0,0,1-.46.32.39.39,0,1,1,.14-.77.4.4,0,0,1,.32.45"/><path class="cls-5" d="M76.71,15.87a.39.39,0,0,1-.46.32.4.4,0,0,1-.32-.45.39.39,0,0,1,.46-.32.4.4,0,0,1,.32.45"/><path class="cls-5" d="M32.83,19.89a.39.39,0,0,1-.45.32.38.38,0,0,1-.32-.45.39.39,0,0,1,.45-.32.39.39,0,0,1,.32.45"/><path class="cls-5" d="M165.83,89.47a.38.38,0,0,1-.45.32.39.39,0,0,1,.13-.77.39.39,0,0,1,.32.45"/><path class="cls-5" d="M168.52,94.84a.41.41,0,0,1-.46.32.39.39,0,0,1-.31-.46.4.4,0,0,1,.45-.32.41.41,0,0,1,.32.46"/><path class="cls-5" d="M247.08,2.91a.39.39,0,0,1-.45.32.39.39,0,0,1-.32-.45.38.38,0,0,1,.45-.32.39.39,0,0,1,.32.45"/><path class="cls-5" d="M37.33,36.8a.39.39,0,0,1-.46.31.39.39,0,0,1,.14-.77.41.41,0,0,1,.32.46"/><path class="cls-5" d="M166.42,28.21a.38.38,0,0,1-.45.32.39.39,0,0,1,.13-.77.39.39,0,0,1,.32.45"/><path class="cls-5" d="M251.52,69.44a.39.39,0,0,1-.46.32.39.39,0,1,1,.14-.77.4.4,0,0,1,.32.45"/><path class="cls-5" d="M205,87.89a.39.39,0,0,1-.46.32.39.39,0,1,1,.14-.77.4.4,0,0,1,.32.45"/><path class="cls-5" d="M116.45,44.72A.4.4,0,0,1,116,45a.39.39,0,0,1-.32-.46.39.39,0,1,1,.77.14"/><path class="cls-5" d="M159,30.2a.41.41,0,0,1-.46.32.4.4,0,1,1,.46-.32"/><path class="cls-5" d="M235.36,78.75a.39.39,0,0,1-.46.32.39.39,0,1,1,.14-.77.4.4,0,0,1,.32.45"/><path class="cls-5" d="M225.84,112.24a.39.39,0,0,1-.46.31.4.4,0,0,1-.32-.45.4.4,0,1,1,.78.14"/><path class="cls-5" d="M222.23,39.08a.39.39,0,0,1-.77-.13.39.39,0,1,1,.77.13"/><path class="cls-5" d="M216.25,17.93a.39.39,0,0,1-.45.32.39.39,0,0,1-.32-.45.39.39,0,0,1,.45-.32.38.38,0,0,1,.32.45"/><path class="cls-5" d="M113.76,18.39a.39.39,0,1,1-.77-.14.4.4,0,0,1,.45-.32.39.39,0,0,1,.32.46"/><path class="cls-5" d="M79.18,37.51a.4.4,0,0,1-.78-.14.4.4,0,0,1,.78.14"/><path class="cls-5" d="M190.41,28a.39.39,0,1,1-.32-.46.39.39,0,0,1,.32.46"/><path class="cls-5" d="M196.19,32.37a.4.4,0,0,1-.78-.14.4.4,0,0,1,.78.14"/><path class="cls-5" d="M164.84,2.72a.4.4,0,0,1-.45.32.39.39,0,0,1-.32-.46.39.39,0,1,1,.77.14"/><path class="cls-5" d="M228.18,20a.39.39,0,1,1-.77-.14.4.4,0,0,1,.45-.32.39.39,0,0,1,.32.46"/><path class="cls-5" d="M194.49-.21a.39.39,0,0,1-.45.32.4.4,0,0,1-.32-.45.39.39,0,0,1,.45-.32.38.38,0,0,1,.32.45"/><path class="cls-5" d="M246.12,36.34a.39.39,0,0,1-.46.32.4.4,0,0,1-.32-.45.4.4,0,0,1,.78.13"/><path class="cls-5" d="M202.88,191.19a.58.58,0,1,1,.48.67.59.59,0,0,1-.48-.67"/><path class="cls-5" d="M240.25,158.83a.58.58,0,1,1,1.15.19.6.6,0,0,1-.68.48.58.58,0,0,1-.47-.67"/><path class="cls-5" d="M28.38,150.41a.4.4,0,1,1,.78.14.39.39,0,0,1-.46.31.4.4,0,0,1-.32-.45"/><path class="cls-5" d="M23.86,149.6a.4.4,0,1,1,.32.46.41.41,0,0,1-.32-.46"/><path class="cls-5" d="M21.08,164.17a.4.4,0,0,1,.78.13.39.39,0,0,1-.46.32.4.4,0,0,1-.32-.45"/><path class="cls-5" d="M202.58,182.25a.38.38,0,0,1,.45-.32.39.39,0,1,1-.13.77.39.39,0,0,1-.32-.45"/><path class="cls-5" d="M234.34,188a.4.4,0,0,1,.45-.32.4.4,0,1,1-.14.78.39.39,0,0,1-.31-.46"/><path class="cls-5" d="M225.87,177.8a.39.39,0,0,1,.77.14.39.39,0,1,1-.77-.14"/><path class="cls-5" d="M194.22,167.41a.39.39,0,1,1,.77.14.4.4,0,0,1-.45.32.39.39,0,0,1-.32-.46"/><path class="cls-5" d="M181.52,165.43a.4.4,0,0,1,.45-.32.4.4,0,0,1-.14.78.39.39,0,0,1-.31-.46"/><path class="cls-5" d="M189.4,179.13a.4.4,0,0,1,.78.13.39.39,0,0,1-.46.32.4.4,0,0,1-.32-.45"/><path class="cls-5" d="M198.42,193.52a.39.39,0,1,1,.77.14.4.4,0,0,1-.45.32.39.39,0,0,1-.32-.46"/><path class="cls-5" d="M167.52,181.45a.39.39,0,0,1,.45-.32.39.39,0,0,1,.32.45.39.39,0,0,1-.45.32.38.38,0,0,1-.32-.45"/><path class="cls-5" d="M60.62,65.89a.39.39,0,1,1,.77.14.4.4,0,0,1-.45.32.39.39,0,0,1-.32-.46"/><path class="cls-5" d="M54.59,62.17a.39.39,0,1,1,.77.14.39.39,0,0,1-.45.31.38.38,0,0,1-.32-.45"/><path class="cls-5" d="M167.14,124.13a.39.39,0,0,1,.45-.31.38.38,0,0,1,.32.45.39.39,0,1,1-.77-.14"/><path class="cls-5" d="M35.73,127.94a.4.4,0,0,1,.78.13.39.39,0,0,1-.46.32.4.4,0,0,1-.32-.45"/><path class="cls-5" d="M179.89,151a.38.38,0,0,1,.45-.32.39.39,0,0,1,.32.45.39.39,0,0,1-.45.32.39.39,0,0,1-.32-.45"/><path class="cls-5" d="M204.61,144.9a.38.38,0,0,1,.45-.32.39.39,0,0,1,.32.45.4.4,0,0,1-.46.32.39.39,0,0,1-.31-.45"/><path class="cls-5" d="M248.48,140.88a.39.39,0,0,1,.46-.32.39.39,0,1,1-.14.77.4.4,0,0,1-.32-.45"/><path class="cls-5" d="M115.48,71.3a.39.39,0,0,1,.45-.32.38.38,0,0,1,.32.45.39.39,0,0,1-.45.32.39.39,0,0,1-.32-.45"/><path class="cls-5" d="M112.8,65.93a.39.39,0,0,1,.45-.32.4.4,0,1,1-.14.78.39.39,0,0,1-.31-.46"/><path class="cls-5" d="M34.23,157.86A.4.4,0,0,1,35,158a.39.39,0,0,1-.46.32.4.4,0,0,1-.32-.45"/><path class="cls-5" d="M166.71,182a.39.39,0,0,1,.45-.32.38.38,0,0,1,.32.45.39.39,0,0,1-.45.32.4.4,0,0,1-.32-.45"/><path class="cls-5" d="M34.11,163.1a.39.39,0,0,1,.45-.32.39.39,0,0,1,.32.45.39.39,0,1,1-.77-.13"/><path class="cls-5" d="M244,124a.4.4,0,0,1,.45-.32.4.4,0,0,1-.14.78A.39.39,0,0,1,244,124"/><path class="cls-5" d="M114.89,132.56a.39.39,0,0,1,.45-.32.38.38,0,0,1,.32.45.39.39,0,0,1-.45.32.39.39,0,0,1-.32-.45"/><path class="cls-5" d="M29.8,91.32a.38.38,0,0,1,.45-.31.39.39,0,0,1,.32.45.39.39,0,1,1-.77-.14"/><path class="cls-5" d="M76.28,72.88a.38.38,0,0,1,.45-.32.39.39,0,0,1,.32.45.39.39,0,0,1-.45.32.39.39,0,0,1-.32-.45"/><path class="cls-5" d="M164.86,116.05a.4.4,0,1,1,.32.46.41.41,0,0,1-.32-.46"/><path class="cls-5" d="M122.37,130.57a.39.39,0,1,1,.77.14.4.4,0,0,1-.45.32.39.39,0,0,1-.32-.46"/><path class="cls-5" d="M46,82a.38.38,0,0,1,.45-.32.39.39,0,0,1,.32.45.39.39,0,0,1-.45.32A.39.39,0,0,1,46,82"/><path class="cls-5" d="M55.48,48.53a.39.39,0,1,1,.77.14.4.4,0,0,1-.45.32.39.39,0,0,1-.32-.46"/><path class="cls-5" d="M59.08,121.69a.39.39,0,0,1,.46-.32.38.38,0,0,1,.31.45.39.39,0,0,1-.45.32.4.4,0,0,1-.32-.45"/><path class="cls-5" d="M65.06,142.84a.39.39,0,0,1,.45-.32.39.39,0,1,1-.45.32"/><path class="cls-5" d="M167.55,142.38a.4.4,0,0,1,.45-.32.39.39,0,0,1,.32.46.39.39,0,1,1-.77-.14"/><path class="cls-5" d="M229.19,161.57a.4.4,0,0,1,.78.13.39.39,0,0,1-.46.32.4.4,0,0,1-.32-.45"/><path class="cls-5" d="M202.14,123.26a.39.39,0,1,1,.77.14.4.4,0,0,1-.45.32.39.39,0,0,1-.32-.46"/><path class="cls-5" d="M90.9,132.75a.41.41,0,0,1,.46-.32.39.39,0,0,1,.31.46.39.39,0,1,1-.77-.14"/><path class="cls-5" d="M85.13,128.4a.39.39,0,1,1,.77.14.4.4,0,0,1-.45.32.39.39,0,0,1-.32-.46"/><path class="cls-5" d="M129,163.78a.39.39,0,0,1,.45-.31.38.38,0,0,1,.32.45.39.39,0,1,1-.77-.14"/><path class="cls-5" d="M150.31,174.15a.39.39,0,0,1,.45-.32.38.38,0,0,1,.32.45.39.39,0,0,1-.45.32.39.39,0,0,1-.32-.45"/><path class="cls-5" d="M116.47,158.05a.4.4,0,1,1,.32.46.41.41,0,0,1-.32-.46"/><path class="cls-5" d="M53.13,140.81a.4.4,0,0,1,.45-.32.39.39,0,0,1,.32.46.38.38,0,0,1-.45.31.39.39,0,0,1-.32-.45"/><path class="cls-5" d="M86.82,161a.39.39,0,0,1,.45-.32.39.39,0,1,1-.45.32"/><path class="cls-5" d="M120.24,174.65a.41.41,0,0,1,.46-.32.39.39,0,0,1,.31.46.38.38,0,0,1-.45.31.39.39,0,0,1-.32-.45"/><path class="cls-5" d="M35.2,124.43a.38.38,0,0,1,.45-.32.39.39,0,0,1,.32.45.39.39,0,0,1-.45.32.39.39,0,0,1-.32-.45"/><path class="cls-5" d="M263.22,225a.57.57,0,0,1-.67.47.58.58,0,1,1,.2-1.14.57.57,0,0,1,.47.67"/><path class="cls-5" d="M225.85,257.31a.57.57,0,0,1-.67.47.58.58,0,1,1,.2-1.14.57.57,0,0,1,.47.67"/><path class="cls-5" d="M437.72,265.72a.39.39,0,0,1-.46.32.39.39,0,0,1,.14-.77.39.39,0,0,1,.32.45"/><path class="cls-5" d="M442.24,266.53a.4.4,0,0,1-.78-.13.39.39,0,0,1,.46-.32.4.4,0,0,1,.32.45"/><path class="cls-5" d="M445,252a.39.39,0,0,1-.45.31.38.38,0,0,1-.32-.45.39.39,0,1,1,.77.14"/><path class="cls-5" d="M263.53,233.89a.4.4,0,0,1-.78-.13.39.39,0,0,1,.46-.32.4.4,0,0,1,.32.45"/><path class="cls-5" d="M231.77,228.1A.4.4,0,0,1,231,228a.39.39,0,0,1,.46-.32.4.4,0,0,1,.32.45"/><path class="cls-5" d="M240.23,238.33a.39.39,0,0,1-.45.32.39.39,0,0,1-.32-.45.39.39,0,0,1,.45-.32.38.38,0,0,1,.32.45"/><path class="cls-5" d="M271.88,248.72a.38.38,0,0,1-.45.32.4.4,0,0,1-.32-.45.39.39,0,0,1,.46-.32.39.39,0,0,1,.31.45"/><path class="cls-5" d="M284.59,250.7a.39.39,0,0,1-.46.32.39.39,0,1,1,.46-.32"/><path class="cls-5" d="M276.7,237a.39.39,0,0,1-.46.31.38.38,0,0,1-.31-.45.4.4,0,0,1,.45-.32.41.41,0,0,1,.32.46"/><path class="cls-5" d="M267.68,222.61a.38.38,0,0,1-.45.32.39.39,0,0,1,.13-.77.39.39,0,0,1,.32.45"/><path class="cls-5" d="M298.58,234.68a.38.38,0,0,1-.45.32.39.39,0,0,1,.13-.77.39.39,0,0,1,.32.45"/><path class="cls-5" d="M405.48,350.24a.38.38,0,0,1-.45.32.39.39,0,1,1,.14-.77.39.39,0,0,1,.31.45"/><path class="cls-5" d="M411.51,354a.38.38,0,0,1-.45.32.39.39,0,0,1,.13-.77.39.39,0,0,1,.32.45"/><path class="cls-5" d="M299,292a.39.39,0,0,1-.45.32.39.39,0,0,1-.32-.45.38.38,0,0,1,.45-.32.39.39,0,0,1,.32.45"/><path class="cls-5" d="M430.37,288.19a.39.39,0,0,1-.46.32.38.38,0,0,1-.31-.45.39.39,0,0,1,.45-.32.4.4,0,0,1,.32.45"/><path class="cls-5" d="M286.21,265.1a.39.39,0,1,1-.77-.14.39.39,0,0,1,.45-.31.38.38,0,0,1,.32.45"/><path class="cls-5" d="M261.49,271.24a.4.4,0,0,1-.45.32.4.4,0,1,1,.14-.78.39.39,0,0,1,.31.46"/><path class="cls-5" d="M217.62,275.26a.41.41,0,0,1-.46.32.39.39,0,0,1-.31-.46.38.38,0,0,1,.45-.31.4.4,0,0,1,.32.45"/><path class="cls-5" d="M350.62,344.84a.4.4,0,0,1-.45.32.39.39,0,0,1-.32-.46.39.39,0,1,1,.77.14"/><path class="cls-5" d="M353.31,350.2a.39.39,0,0,1-.46.32.4.4,0,0,1-.32-.45.39.39,0,0,1,.46-.32.4.4,0,0,1,.32.45"/><path class="cls-5" d="M431.87,258.28a.39.39,0,0,1-.46.31.38.38,0,0,1-.31-.45.39.39,0,1,1,.77.14"/><path class="cls-5" d="M299.39,234.18a.4.4,0,0,1-.45.32.39.39,0,0,1-.32-.46.39.39,0,1,1,.77.14"/><path class="cls-5" d="M432,253a.39.39,0,1,1-.77-.14.4.4,0,0,1,.45-.32.39.39,0,0,1,.32.46"/><path class="cls-5" d="M222.12,292.16a.4.4,0,0,1-.78-.13.39.39,0,0,1,.46-.32.4.4,0,0,1,.32.45"/><path class="cls-5" d="M351.21,283.58a.4.4,0,0,1-.45.32.39.39,0,0,1-.32-.46.39.39,0,1,1,.77.14"/><path class="cls-5" d="M436.3,324.81a.39.39,0,0,1-.45.32.4.4,0,0,1-.32-.45.39.39,0,0,1,.46-.32.38.38,0,0,1,.31.45"/><path class="cls-5" d="M389.82,343.26a.39.39,0,0,1-.45.32.4.4,0,0,1-.32-.45.39.39,0,0,1,.46-.32.38.38,0,0,1,.31.45"/><path class="cls-5" d="M301.24,300.08a.39.39,0,0,1-.46.32.39.39,0,0,1-.31-.45.38.38,0,0,1,.45-.32.39.39,0,0,1,.32.45"/><path class="cls-5" d="M343.73,285.56a.38.38,0,0,1-.45.32.39.39,0,0,1,.13-.77.39.39,0,0,1,.32.45"/><path class="cls-5" d="M420.14,334.12a.39.39,0,0,1-.45.32.4.4,0,0,1-.32-.45.39.39,0,0,1,.46-.32.38.38,0,0,1,.31.45"/><path class="cls-5" d="M407,294.45a.4.4,0,0,1-.45.32.39.39,0,0,1-.32-.46.39.39,0,1,1,.77.14"/><path class="cls-5" d="M401,273.3a.38.38,0,0,1-.45.31.39.39,0,0,1-.32-.45.4.4,0,0,1,.45-.32.39.39,0,0,1,.32.46"/><path class="cls-5" d="M298.55,273.75a.39.39,0,0,1-.45.32.39.39,0,0,1,.13-.77.39.39,0,0,1,.32.45"/><path class="cls-5" d="M236.91,254.56a.39.39,0,0,1-.46.32.39.39,0,1,1,.14-.77.4.4,0,0,1,.32.45"/><path class="cls-5" d="M264,292.87a.39.39,0,0,1-.45.32.39.39,0,0,1-.32-.45.39.39,0,0,1,.45-.32.38.38,0,0,1,.32.45"/><path class="cls-5" d="M375.2,283.38a.39.39,0,1,1-.32-.45.39.39,0,0,1,.32.45"/><path class="cls-5" d="M381,287.73a.39.39,0,0,1-.45.32.39.39,0,0,1-.32-.45.39.39,0,0,1,.45-.32.38.38,0,0,1,.32.45"/><path class="cls-5" d="M337.12,252.35a.39.39,0,0,1-.45.32.39.39,0,1,1,.45-.32"/><path class="cls-5" d="M315.79,242a.4.4,0,0,1-.45.32.39.39,0,0,1-.32-.46.39.39,0,1,1,.77.14"/><path class="cls-5" d="M349.63,258.08a.39.39,0,0,1-.46.32.39.39,0,0,1,.14-.77.39.39,0,0,1,.32.45"/><path class="cls-5" d="M413,275.32a.39.39,0,0,1-.45.32.38.38,0,0,1-.32-.45.39.39,0,0,1,.45-.32.39.39,0,0,1,.32.45"/><path class="cls-5" d="M379.28,255.16a.39.39,0,1,1-.77-.14.4.4,0,0,1,.45-.32.39.39,0,0,1,.32.46"/><path class="cls-5" d="M345.86,241.48a.39.39,0,1,1-.32-.45.39.39,0,0,1,.32.45"/><path class="cls-5" d="M430.91,291.71a.4.4,0,1,1-.32-.46.41.41,0,0,1,.32.46"/><path class="cls-5" d="M245.4,321.26a.39.39,0,0,1,.46-.32.39.39,0,1,1-.14.77.4.4,0,0,1-.32-.45"/><path class="cls-5" d="M239.37,317.54a.39.39,0,0,1,.46-.32.39.39,0,1,1-.14.77.4.4,0,0,1-.32-.45"/><path class="cls-5" d="M300.27,326.66a.4.4,0,0,1,.45-.32.39.39,0,0,1,.32.46.4.4,0,0,1-.45.32.39.39,0,0,1-.32-.46"/><path class="cls-5" d="M297.58,321.3A.39.39,0,0,1,298,321a.39.39,0,1,1-.46.32"/><path class="cls-5" d="M214.58,346.69a.4.4,0,0,1,.78.13.39.39,0,0,1-.46.32.4.4,0,0,1-.32-.45"/><path class="cls-5" d="M261.06,328.24a.4.4,0,0,1,.78.13.39.39,0,0,1-.46.32.4.4,0,0,1-.32-.45"/><path class="cls-5" d="M230.74,337.38a.4.4,0,0,1,.78.13.39.39,0,0,1-.46.32.4.4,0,0,1-.32-.45"/><path class="cls-5" d="M240.27,303.9a.39.39,0,0,1,.45-.32.39.39,0,0,1,.32.45.39.39,0,0,1-.45.32.38.38,0,0,1-.32-.45"/><path class="cls-5" d="M42.25,178.39a.6.6,0,0,1-.68.48.58.58,0,0,1-.47-.68.57.57,0,0,1,.67-.47.59.59,0,0,1,.48.67"/><path class="cls-5" d="M4.88,210.75a.6.6,0,0,1-.68.48.59.59,0,0,1-.47-.68.58.58,0,0,1,.67-.47.59.59,0,0,1,.48.67"/><path class="cls-5" d="M216.74,219.17A.39.39,0,1,1,216,219a.4.4,0,0,1,.45-.32.39.39,0,0,1,.32.46"/><path class="cls-5" d="M221.26,220a.39.39,0,1,1-.77-.14.4.4,0,0,1,.45-.32.39.39,0,0,1,.32.46"/><path class="cls-5" d="M224,205.41a.39.39,0,0,1-.45.32.39.39,0,1,1,.14-.77.38.38,0,0,1,.31.45"/><path class="cls-5" d="M42.55,187.33a.39.39,0,1,1-.77-.13.39.39,0,0,1,.45-.32.39.39,0,0,1,.32.45"/><path class="cls-5" d="M10.79,181.55a.39.39,0,0,1-.77-.14.4.4,0,0,1,.45-.32.39.39,0,0,1,.32.46"/><path class="cls-5" d="M19.26,191.77a.39.39,0,0,1-.45.32.38.38,0,0,1-.32-.45.39.39,0,0,1,.45-.32.39.39,0,0,1,.32.45"/><path class="cls-5" d="M50.91,202.17a.4.4,0,0,1-.45.32.39.39,0,0,1-.32-.46.39.39,0,1,1,.77.14"/><path class="cls-5" d="M63.61,204.15a.39.39,0,1,1-.32-.46.39.39,0,0,1,.32.46"/><path class="cls-5" d="M55.72,190.45a.39.39,0,0,1-.45.32.39.39,0,0,1-.32-.45.39.39,0,0,1,.45-.32.38.38,0,0,1,.32.45"/><path class="cls-5" d="M46.71,176.06a.4.4,0,0,1-.45.32.39.39,0,0,1-.32-.46.39.39,0,1,1,.77.14"/><path class="cls-5" d="M77.61,188.13a.39.39,0,0,1-.45.32.39.39,0,0,1-.32-.45.38.38,0,0,1,.45-.32.39.39,0,0,1,.32.45"/><path class="cls-5" d="M184.51,303.69a.4.4,0,0,1-.45.32.39.39,0,0,1-.32-.46.4.4,0,0,1,.45-.32.39.39,0,0,1,.32.46"/><path class="cls-5" d="M190.54,307.41a.4.4,0,0,1-.45.32.39.39,0,0,1-.32-.46.39.39,0,1,1,.77.14"/><path class="cls-5" d="M78,245.44a.39.39,0,0,1-.46.32.39.39,0,1,1,.14-.77.4.4,0,0,1,.32.45"/><path class="cls-5" d="M209.39,241.64a.39.39,0,0,1-.45.32.39.39,0,0,1-.32-.45.39.39,0,0,1,.45-.32.38.38,0,0,1,.32.45"/><path class="cls-5" d="M65.24,218.54a.39.39,0,0,1-.45.32.38.38,0,0,1-.32-.45.39.39,0,0,1,.45-.32.39.39,0,0,1,.32.45"/><path class="cls-5" d="M40.52,224.68a.39.39,0,0,1-.45.32.39.39,0,1,1,.13-.77.39.39,0,0,1,.32.45"/><path class="cls-5" d="M129.65,298.28a.39.39,0,0,1-.46.32.39.39,0,1,1,.46-.32"/><path class="cls-5" d="M132.33,303.65a.39.39,0,1,1-.32-.46.39.39,0,0,1,.32.46"/><path class="cls-5" d="M210.89,211.72a.39.39,0,0,1-.45.32.39.39,0,0,1-.32-.45.39.39,0,0,1,.45-.32.38.38,0,0,1,.32.45"/><path class="cls-5" d="M78.41,187.62a.38.38,0,0,1-.45.32.39.39,0,1,1,.14-.77.39.39,0,0,1,.31.45"/><path class="cls-5" d="M211,206.48a.39.39,0,0,1-.45.32.39.39,0,0,1-.32-.45.38.38,0,0,1,.45-.32.39.39,0,0,1,.32.45"/><path class="cls-5" d="M1.14,245.61a.39.39,0,0,1-.45.31.38.38,0,0,1-.32-.45.39.39,0,1,1,.77.14"/><path class="cls-5" d="M130.24,237a.39.39,0,0,1-.46.32.4.4,0,0,1-.32-.45.39.39,0,0,1,.46-.32.4.4,0,0,1,.32.45"/><path class="cls-5" d="M215.33,278.25a.39.39,0,0,1-.45.32.38.38,0,0,1-.32-.45.39.39,0,0,1,.77.13"/><path class="cls-5" d="M168.85,296.7a.39.39,0,0,1-.45.32.38.38,0,0,1-.32-.45.39.39,0,0,1,.77.13"/><path class="cls-5" d="M80.26,253.53a.39.39,0,1,1-.77-.14.4.4,0,0,1,.45-.32.39.39,0,0,1,.32.46"/><path class="cls-5" d="M122.76,239a.4.4,0,0,1-.45.32.39.39,0,0,1-.32-.46.39.39,0,1,1,.77.14"/><path class="cls-5" d="M199.17,287.56a.39.39,0,0,1-.45.32.38.38,0,0,1-.32-.45.39.39,0,0,1,.77.13"/><path class="cls-5" d="M189.65,321.05a.39.39,0,0,1-.45.31.38.38,0,0,1-.32-.45.39.39,0,0,1,.45-.32.4.4,0,0,1,.32.46"/><path class="cls-5" d="M186,247.89a.38.38,0,0,1-.45.32.4.4,0,0,1-.32-.45.39.39,0,0,1,.46-.32.39.39,0,0,1,.31.45"/><path class="cls-5" d="M180.07,226.74a.4.4,0,0,1-.46.32.39.39,0,0,1-.31-.45.38.38,0,0,1,.45-.32.39.39,0,0,1,.32.45"/><path class="cls-5" d="M77.58,227.2a.4.4,0,1,1-.32-.46.41.41,0,0,1,.32.46"/><path class="cls-5" d="M15.93,208a.39.39,0,0,1-.45.32.39.39,0,0,1-.32-.45.39.39,0,0,1,.45-.32.38.38,0,0,1,.32.45"/><path class="cls-5" d="M43,246.32a.39.39,0,0,1-.45.31.38.38,0,0,1-.32-.45.39.39,0,1,1,.77.14"/><path class="cls-5" d="M154.23,236.83a.4.4,0,1,1-.32-.46.41.41,0,0,1,.32.46"/><path class="cls-5" d="M160,241.18a.39.39,0,0,1-.45.31.38.38,0,0,1-.32-.45.39.39,0,1,1,.77.14"/><path class="cls-5" d="M116.15,205.79a.39.39,0,0,1-.46.32.39.39,0,1,1,.14-.77.4.4,0,0,1,.32.45"/><path class="cls-5" d="M94.82,195.43a.39.39,0,0,1-.46.32.39.39,0,1,1,.46-.32"/><path class="cls-5" d="M128.65,211.53a.39.39,0,1,1-.77-.14.4.4,0,0,1,.45-.32.39.39,0,0,1,.32.46"/><path class="cls-5" d="M192,228.77a.4.4,0,1,1-.32-.46.41.41,0,0,1,.32.46"/><path class="cls-5" d="M158.31,208.6a.4.4,0,0,1-.46.32.39.39,0,0,1-.31-.45.38.38,0,0,1,.45-.32.39.39,0,0,1,.32.45"/><path class="cls-5" d="M124.88,194.93a.4.4,0,0,1-.45.32.4.4,0,1,1,.14-.78.39.39,0,0,1,.31.46"/><path class="cls-5" d="M209.93,245.15a.39.39,0,0,1-.45.32.39.39,0,1,1,.45-.32"/><path class="cls-5" d="M24.43,274.7a.4.4,0,0,1,.45-.32.39.39,0,0,1,.32.46.39.39,0,0,1-.77-.14"/><path class="cls-5" d="M18.4,271a.4.4,0,0,1,.45-.32.39.39,0,0,1,.32.46.38.38,0,0,1-.45.31.39.39,0,0,1-.32-.45"/><path class="cls-5" d="M131,332.94a.38.38,0,0,1,.45-.31.4.4,0,0,1,.32.45.41.41,0,0,1-.46.32.39.39,0,0,1-.31-.46"/><path class="cls-5" d="M-.45,336.75a.39.39,0,0,1,.45-.32.39.39,0,0,1,.32.45.39.39,0,0,1-.45.32.38.38,0,0,1-.32-.45"/><path class="cls-5" d="M143.7,359.85a.39.39,0,0,1,.45-.32.38.38,0,0,1,.32.45.39.39,0,0,1-.45.32.39.39,0,0,1-.32-.45"/><path class="cls-5" d="M168.42,353.71a.39.39,0,0,1,.45-.32.38.38,0,0,1,.32.45.39.39,0,0,1-.45.32.39.39,0,0,1-.32-.45"/><path class="cls-5" d="M212.3,349.69a.38.38,0,0,1,.45-.32.39.39,0,0,1,.32.45.39.39,0,0,1-.45.32.39.39,0,0,1-.32-.45"/><path class="cls-5" d="M79.29,280.11a.39.39,0,0,1,.46-.32.39.39,0,1,1-.14.77.4.4,0,0,1-.32-.45"/><path class="cls-5" d="M76.61,274.74a.4.4,0,0,1,.45-.32.39.39,0,0,1,.32.46.4.4,0,0,1-.45.32.39.39,0,0,1-.32-.46"/><path class="cls-5" d="M207.8,332.78a.4.4,0,0,1,.45-.32.39.39,0,0,1,.32.46.39.39,0,1,1-.77-.14"/><path class="cls-5" d="M78.7,341.37a.39.39,0,0,1,.46-.32.39.39,0,1,1-.14.77.4.4,0,0,1-.32-.45"/><path class="cls-5" d="M40.09,281.69a.39.39,0,0,1,.45-.32.38.38,0,0,1,.32.45.39.39,0,0,1-.45.32.39.39,0,0,1-.32-.45"/><path class="cls-5" d="M128.68,324.86a.39.39,0,1,1,.77.14.4.4,0,0,1-.45.32.39.39,0,0,1-.32-.46"/><path class="cls-5" d="M86.18,339.38a.41.41,0,0,1,.46-.32.39.39,0,0,1,.31.46.39.39,0,1,1-.77-.14"/><path class="cls-5" d="M9.77,290.83a.39.39,0,0,1,.45-.32.38.38,0,0,1,.32.45.39.39,0,0,1-.45.32.39.39,0,0,1-.32-.45"/><path class="cls-5" d="M19.29,257.34a.41.41,0,0,1,.46-.32.39.39,0,0,1,.31.46.39.39,0,1,1-.77-.14"/><path class="cls-5" d="M22.9,330.5a.38.38,0,0,1,.45-.32.39.39,0,0,1,.32.45.39.39,0,0,1-.45.32.39.39,0,0,1-.32-.45"/><path class="cls-5" d="M28.87,351.65a.4.4,0,0,1,.78.13.39.39,0,0,1-.46.32.4.4,0,0,1-.32-.45"/><path class="cls-5" d="M131.36,351.19a.4.4,0,1,1,.32.46.41.41,0,0,1-.32-.46"/><path class="cls-5" d="M166,332.07a.4.4,0,0,1,.45-.32.39.39,0,0,1,.32.46.39.39,0,1,1-.77-.14"/><path class="cls-5" d="M54.72,341.56a.39.39,0,1,1,.77.14A.39.39,0,0,1,55,342a.38.38,0,0,1-.32-.45"/><path class="cls-5" d="M48.94,337.21a.41.41,0,0,1,.46-.32.39.39,0,0,1,.31.46.39.39,0,1,1-.77-.14"/><path class="cls-5" d="M16.94,349.62a.4.4,0,0,1,.78.13.39.39,0,0,1-.46.32.4.4,0,0,1-.32-.45"/><g class="cls-6"><circle class="cls-7" cx="10.09" cy="20.54" r="119.14"/><ellipse class="cls-2" cx="37.33" cy="99.52" rx="14.8" ry="6.99" transform="translate(-22.6 11.74) rotate(-13.76)"/><ellipse class="cls-2" cx="105" cy="29.8" rx="14.8" ry="6.99" transform="translate(26.69 105.83) rotate(-60)"/><ellipse class="cls-2" cx="87.39" cy="80.33" rx="17.88" ry="8.44" transform="translate(-31.28 77.63) rotate(-41.29)"/><ellipse class="cls-2" cx="69.41" cy="56.5" rx="7.4" ry="5.47" transform="translate(-19.62 65.63) rotate(-45)"/><ellipse class="cls-2" cx="39.4" cy="38.33" rx="12.28" ry="9.72" transform="translate(-14.18 50.61) rotate(-57.12)"/><circle class="cls-8" cx="458" cy="333.27" r="90.77"/><ellipse class="cls-9" cx="426.12" cy="268.27" rx="11.28" ry="5.33" transform="translate(-71.52 191.42) rotate(-23.41)"/><ellipse class="cls-9" cx="385.53" cy="338.44" rx="11.28" ry="5.33" transform="translate(-65.84 582.24) rotate(-69.65)"/><ellipse class="cls-9" cx="392.3" cy="298.24" rx="13.62" ry="6.43" transform="translate(-86.48 414.93) rotate(-50.94)"/><ellipse class="cls-9" cx="408.85" cy="313.84" rx="5.64" ry="4.17" transform="translate(-83.67 465.76) rotate(-54.65)"/><ellipse class="cls-9" cx="433.71" cy="323.65" rx="9.36" ry="7.41" transform="translate(-34.73 594.6) rotate(-66.78)"/><ellipse class="cls-9" cx="447.75" cy="293.56" rx="11.9" ry="10.49" transform="translate(-76.44 402.59) rotate(-45)"/><ellipse class="cls-9" cx="409.32" cy="360" rx="7.41" ry="9.36"/><ellipse class="cls-9" cx="464.31" cy="261.46" rx="9.36" ry="7.41" transform="matrix(1, -0.07, 0.07, 1, -16.7, 32.18)"/></g></svg>