<svg version="1.1" xmlns="http://www.w3.org/2000/svg" xmlns:xlink="http://www.w3.org/1999/xlink" width="1186.30994" height="413.60711" viewBox="0,0,1186.30994,413.60711"><defs><linearGradient x1="-198.3785" y1="166.087" x2="1313.5215" y2="192.687" gradientUnits="userSpaceOnUse" id="color-1"><stop offset="0" stop-color="#7ac5fa"/><stop offset="0.13" stop-color="#7dcbff"/><stop offset="0.43" stop-color="#a1dfff"/><stop offset="0.52" stop-color="#b3e5ff"/><stop offset="0.73" stop-color="#dcf3ff"/><stop offset="0.9" stop-color="#f5fbff"/><stop offset="1" stop-color="#ffffff"/></linearGradient><linearGradient x1="99675.86075" y1="13688.61786" x2="143108.67474" y2="13688.61786" gradientUnits="userSpaceOnUse" id="color-2"><stop offset="0" stop-color="#7ac5fa"/><stop offset="0.13" stop-color="#7dcbff"/><stop offset="0.43" stop-color="#a1dfff"/><stop offset="0.52" stop-color="#b3e5ff"/><stop offset="0.73" stop-color="#dcf3ff"/><stop offset="0.9" stop-color="#f5fbff"/><stop offset="1" stop-color="#ffffff"/></linearGradient><linearGradient x1="409.1615" y1="34.027" x2="675.7715" y2="45.457" gradientUnits="userSpaceOnUse" id="color-3"><stop offset="0" stop-color="#ffffff"/><stop offset="1" stop-color="#ffffff" stop-opacity="0"/></linearGradient><linearGradient x1="26137.73357" y1="479.11659" x2="322.06449" y2="624.47302" gradientUnits="userSpaceOnUse" id="color-4"><stop offset="0" stop-color="#ffffff"/><stop offset="1" stop-color="#ffffff" stop-opacity="0"/></linearGradient><linearGradient x1="9625.35196" y1="8906.18471" x2="36184.60559" y2="15802.53942" gradientUnits="userSpaceOnUse" id="color-5"><stop offset="0" stop-color="#7ac5fa"/><stop offset="0.13" stop-color="#7dcbff"/><stop offset="0.43" stop-color="#a1dfff"/><stop offset="0.52" stop-color="#b3e5ff"/><stop offset="0.73" stop-color="#dcf3ff"/><stop offset="0.9" stop-color="#f5fbff"/><stop offset="1" stop-color="#ffffff"/></linearGradient><linearGradient x1="27522.44093" y1="7888.31133" x2="43637.41727" y2="7888.31133" gradientUnits="userSpaceOnUse" id="color-6"><stop offset="0" stop-color="#7ac5fa"/><stop offset="0.13" stop-color="#7dcbff"/><stop offset="0.43" stop-color="#a1dfff"/><stop offset="0.52" stop-color="#b3e5ff"/><stop offset="0.73" stop-color="#dcf3ff"/><stop offset="0.9" stop-color="#f5fbff"/><stop offset="1" stop-color="#ffffff"/></linearGradient><linearGradient x1="-8168.8345" y1="61962.79169" x2="935721.1371" y2="61962.79169" gradientUnits="userSpaceOnUse" id="color-7"><stop offset="0" stop-color="#7ac5fa"/><stop offset="0.13" stop-color="#7dcbff"/><stop offset="0.43" stop-color="#a1dfff"/><stop offset="0.52" stop-color="#b3e5ff"/><stop offset="0.73" stop-color="#dcf3ff"/><stop offset="0.9" stop-color="#f5fbff"/><stop offset="1" stop-color="#ffffff"/></linearGradient><linearGradient x1="-13.0685" y1="208.817" x2="683.5415" y2="208.817" gradientUnits="userSpaceOnUse" id="color-8"><stop offset="0" stop-color="#ffffff"/><stop offset="0.3" stop-color="#7dcbff"/><stop offset="0.59" stop-color="#a1dfff"/><stop offset="0.65" stop-color="#b3e5ff"/><stop offset="0.8" stop-color="#dcf3ff"/><stop offset="0.93" stop-color="#f5fbff"/><stop offset="1" stop-color="#ffffff"/></linearGradient><linearGradient x1="-9989.52256" y1="13643.15072" x2="477602.69464" y2="13643.15072" gradientUnits="userSpaceOnUse" id="color-9"><stop offset="0" stop-color="#ffffff"/><stop offset="0.3" stop-color="#7dcbff"/><stop offset="0.59" stop-color="#a1dfff"/><stop offset="0.65" stop-color="#b3e5ff"/><stop offset="0.8" stop-color="#dcf3ff"/><stop offset="0.93" stop-color="#f5fbff"/><stop offset="1" stop-color="#ffffff"/></linearGradient><linearGradient x1="-22387.5591" y1="4484.88644" x2="13796.31801" y2="4808.01786" gradientUnits="userSpaceOnUse" id="color-10"><stop offset="0" stop-color="#7ac5fa"/><stop offset="0.13" stop-color="#7dcbff"/><stop offset="0.43" stop-color="#a1dfff"/><stop offset="0.52" stop-color="#b3e5ff"/><stop offset="0.73" stop-color="#dcf3ff"/><stop offset="0.9" stop-color="#f5fbff"/><stop offset="1" stop-color="#ffffff"/></linearGradient><linearGradient x1="-28664.46435" y1="5033.19326" x2="19482.97284" y2="5443.31765" gradientUnits="userSpaceOnUse" id="color-11"><stop offset="0" stop-color="#7ac5fa"/><stop offset="0.13" stop-color="#7dcbff"/><stop offset="0.43" stop-color="#a1dfff"/><stop offset="0.52" stop-color="#b3e5ff"/><stop offset="0.73" stop-color="#dcf3ff"/><stop offset="0.9" stop-color="#f5fbff"/><stop offset="1" stop-color="#ffffff"/></linearGradient><linearGradient x1="-92059.741" y1="15496.68528" x2="182193.90605" y2="15496.68528" gradientUnits="userSpaceOnUse" id="color-12"><stop offset="0" stop-color="#ffffff"/><stop offset="0.3" stop-color="#7dcbff"/><stop offset="0.59" stop-color="#a1dfff"/><stop offset="0.65" stop-color="#b3e5ff"/><stop offset="0.8" stop-color="#dcf3ff"/><stop offset="0.93" stop-color="#f5fbff"/><stop offset="1" stop-color="#ffffff"/></linearGradient><linearGradient x1="-92633.46236" y1="16315.59049" x2="181620.18469" y2="16315.59049" gradientUnits="userSpaceOnUse" id="color-13"><stop offset="0" stop-color="#ffffff"/><stop offset="0.3" stop-color="#7dcbff"/><stop offset="0.59" stop-color="#a1dfff"/><stop offset="0.65" stop-color="#b3e5ff"/><stop offset="0.8" stop-color="#dcf3ff"/><stop offset="0.93" stop-color="#f5fbff"/><stop offset="1" stop-color="#ffffff"/></linearGradient><linearGradient x1="-45271.22711" y1="35910.17079" x2="1059285.45891" y2="41217.55756" gradientUnits="userSpaceOnUse" id="color-14"><stop offset="0" stop-color="#7ac5fa"/><stop offset="0.13" stop-color="#7dcbff"/><stop offset="0.43" stop-color="#a1dfff"/><stop offset="0.52" stop-color="#b3e5ff"/><stop offset="0.73" stop-color="#dcf3ff"/><stop offset="0.9" stop-color="#f5fbff"/><stop offset="1" stop-color="#ffffff"/></linearGradient></defs><g transform="translate(177.13843,2.003)"><g data-paper-data="{&quot;isPaintingLayer&quot;:true}" fill-rule="nonzero" stroke="none" stroke-width="1" stroke-linecap="butt" stroke-linejoin="miter" stroke-miterlimit="10" stroke-dasharray="" stroke-dashoffset="0" style="mix-blend-mode: normal"><g><path d="M0.5015,357.997v-360h956.37v360z" fill="url(#color-1)"/><path d="M651.3415,155.737c-1.27,3.06 -3.56,5.22 -5.91,6.98c-3.6,2.7 -7.51,4.71 -11.57,5.98l-180.48,1.45c40.59,-2.83 94.01,-20.25 120.03,-51.53c9.74,-11.72 3.74,-4.95 50.81,-59.75c3.85,4.94 7.93,12.23 5.01,18.08c-1.5,3.02 -4.38,4.34 -6.61,6.5c-2.23,2.17 -3.82,6.58 -1.87,9.15c0.96,1.26 2.43,1.56 3.79,1.83c8.11,1.6 16.1,4.23 23.8,7.82c1,0.47 2.08,1.04 2.59,2.23c1.19,2.8 -1.64,5.57 -4.02,6.59c-8.21,3.54 1.27,5.2 -4.52,13.39c-1.38,1.95 -2.54,4.53 -2.06,7.08c0.65,3.52 3.88,5 6.65,5.9c5.89,1.91 -7.1,3.83 -1.21,5.74c1.78,0.58 3.66,1.23 4.94,2.9c1.91,2.47 1.91,6.61 0.63,9.66z" fill="#3997e6"/><g><path d="M509.4115,148.417c1.34,-3.95 1.34,-9.3 -0.66,-12.5c-1.34,-2.16 -3.31,-3 -5.17,-3.75c-6.16,-2.47 7.43,-4.95 1.27,-7.42c-2.9,-1.16 -6.28,-3.08 -6.96,-7.63c-0.5,-3.3 0.71,-6.64 2.16,-9.16c6.06,-10.59 -3.86,-12.74 4.73,-17.32c2.49,-1.32 5.45,-4.9 4.21,-8.52c-0.53,-1.54 -1.66,-2.28 -2.71,-2.88c-8.06,-4.64 -16.42,-8.05 -24.91,-10.12c-1.42,-0.35 -2.96,-0.74 -3.97,-2.37c-2.04,-3.32 -0.38,-9.03 1.96,-11.84c2.33,-2.79 5.35,-4.5 6.92,-8.41c3.06,-7.57 -1.21,-17 -5.24,-23.39c0.74,-0.12 1.49,-0.18 2.23,-0.23c15.69,-1.01 119.89,106.51 141.58,119.91c18.64,11.51 39.5,16.05 60.04,20.46l-193.75,1.93c4.25,-1.64 8.34,-4.24 12.11,-7.74c2.46,-2.28 4.86,-5.07 6.18,-9.03z" fill="url(#color-2)"/><path d="M509.4115,148.417c-1.33,3.96 -3.73,6.75 -6.18,9.03c-3.77,3.49 -7.86,6.09 -12.11,7.74l-188.87,1.88c42.48,-3.66 81.67,-30.81 110.63,-70.04c24.5,-33.19 52.51,-52.45 68.15,-73.9c4.03,6.39 8.3,15.82 5.24,23.39c-1.57,3.91 -4.58,5.61 -6.92,8.41c-2.33,2.81 -4,8.51 -1.96,11.84c1,1.63 2.54,2.02 3.97,2.37c8.49,2.07 16.85,5.47 24.91,10.12c1.05,0.61 2.18,1.35 2.71,2.88c1.25,3.62 -1.72,7.2 -4.21,8.52c-8.59,4.58 1.33,6.73 -4.73,17.32c-1.44,2.52 -2.66,5.86 -2.16,9.16c0.68,4.55 4.06,6.47 6.96,7.63c6.16,2.47 -7.43,4.95 -1.27,7.42c1.86,0.75 3.83,1.59 5.17,3.75c2,3.19 2,8.55 0.66,12.5z" fill="#3997e6"/></g><path d="M531.5015,39.617c-3.29,-0.17 -6.61,0.17 -9.8,1.01c-2.58,0.68 -5.12,1.69 -7.79,1.79c-2.57,0.1 -5.1,-0.65 -7.67,-0.88c-6.24,-0.56 -12.31,1.94 -18.51,2.76c-6.3,0.83 -12.7,-0.1 -18.9,-1.49c-2.24,-0.5 -4.51,-1.07 -6.8,-0.85c-1.3,0.12 -2.56,0.49 -3.84,0.69c-4.34,0.69 -8.95,-0.62 -12.28,-3.49c-0.35,-0.3 -0.7,-0.67 -0.7,-1.12c0,-0.29 0.16,-0.57 0.37,-0.78c0.85,-0.86 2.27,-0.74 3.42,-0.36c1.15,0.37 2.32,0.94 3.51,0.73c1.47,-0.25 2.58,-1.6 4.06,-1.78c2,-0.25 3.63,1.71 5.63,1.99c2.61,0.37 4.74,-2.15 7.33,-2.66c2.18,-0.43 4.36,0.62 6.56,0.91c3.25,0.44 6.46,-0.77 9.61,-1.69c3.15,-0.92 6.68,-1.52 9.59,0c0.44,0.23 0.88,0.51 1.37,0.55c0.35,0.02 0.69,-0.08 1.01,-0.21c2.08,-0.82 3.93,-2.71 6.14,-2.39c1.68,0.25 2.89,1.71 4.42,2.45c1.67,0.8 3.61,0.7 5.46,0.58c4.12,-0.27 8.27,-0.55 12.23,-1.72c2.04,-0.61 4.03,-1.45 6.15,-1.69c2.05,-0.23 4.13,0.12 6.16,0.47c0.81,0.14 1.65,0.29 2.34,0.75c1.38,0.92 1.74,2.89 1.28,4.48c-0.46,1.59 -7.75,2.07 -10.36,1.94z" fill="url(#color-3)"/><g fill="#467e6d"><path d="M374.6715,94.497h-22.1l11.05,-24.46z"/><path d="M376.8015,106.547h-26.37l13.19,-21.28z"/><path d="M373.6915,115.507h-20.15l10.08,-16.26z"/><path d="M373.6915,124.997h-20.15l10.08,-16.26z"/><path d="M378.7715,139.967h-30.31l15.16,-24.46z"/></g><path d="M146.7015,38.807c-2.61,0.13 -9.9,-0.35 -10.36,-1.94c-0.46,-1.59 -0.1,-3.56 1.28,-4.48c0.69,-0.46 1.53,-0.61 2.34,-0.75c2.03,-0.35 4.11,-0.7 6.16,-0.47c2.12,0.24 4.11,1.08 6.15,1.69c3.96,1.17 8.11,1.45 12.23,1.72c1.85,0.12 3.79,0.22 5.46,-0.58c1.53,-0.74 2.74,-2.2 4.42,-2.45c2.21,-0.32 4.06,1.57 6.14,2.39c0.32,0.13 0.66,0.23 1.01,0.21c0.49,-0.04 0.93,-0.32 1.37,-0.55c2.91,-1.52 6.44,-0.92 9.59,0c3.15,0.92 6.36,2.13 9.61,1.69c2.2,-0.29 4.38,-1.34 6.56,-0.91c2.59,0.51 4.72,3.03 7.33,2.66c2,-0.28 3.63,-2.24 5.63,-1.99c1.48,0.18 2.59,1.53 4.06,1.78c1.19,0.21 2.36,-0.36 3.51,-0.73c1.15,-0.38 2.57,-0.5 3.42,0.36c0.21,0.21 0.37,0.49 0.37,0.78c0,0.45 -0.35,0.82 -0.7,1.12c-3.33,2.87 -7.94,4.18 -12.28,3.49c-1.28,-0.2 -2.54,-0.57 -3.84,-0.69c-2.29,-0.22 -4.56,0.35 -6.8,0.85c-6.2,1.39 -12.6,2.32 -18.9,1.49c-6.2,-0.82 -12.27,-3.32 -18.51,-2.76c-2.57,0.23 -5.1,0.98 -7.67,0.88c-2.67,-0.1 -5.21,-1.11 -7.79,-1.79c-3.19,-0.84 -6.51,-1.18 -9.8,-1.01z" fill="url(#color-4)"/><g><path d="M116.0415,142.277c1.28,-3.05 1.28,-7.19 -0.63,-9.66c-1.28,-1.67 -3.16,-2.32 -4.94,-2.9c-5.89,-1.91 7.1,-3.83 1.21,-5.74c-2.77,-0.9 -6,-2.38 -6.65,-5.9c-0.48,-2.55 0.68,-5.13 2.06,-7.08c5.79,-8.19 -3.69,-9.85 4.52,-13.39c2.38,-1.02 5.21,-3.79 4.02,-6.59c-0.51,-1.19 -1.59,-1.76 -2.59,-2.23c-7.7,-3.59 -15.69,-6.22 -23.8,-7.82c-1.36,-0.27 -2.83,-0.57 -3.79,-1.83c-1.95,-2.57 -0.36,-6.98 1.87,-9.15c2.23,-2.16 5.11,-3.48 6.61,-6.5c2.92,-5.85 -1.16,-13.14 -5.01,-18.08c0.71,-0.09 1.49,-0.5 2.13,-0.18c30.34,15.24 25.88,23.7 51.88,42.32c18.84,13.5 62.69,40.02 83.41,50.38c17.81,8.9 37.75,12.41 57.37,15.82l-185.15,1.49c4.06,-1.27 7.97,-3.28 11.57,-5.98c2.35,-1.76 4.64,-3.92 5.91,-6.98z" fill="url(#color-5)"/><path d="M116.0415,142.277c-1.27,3.06 -3.56,5.22 -5.91,6.98c-3.6,2.7 -7.51,4.71 -11.57,5.98l-180.48,1.45c40.59,-2.83 94.01,-20.25 120.03,-51.53c9.74,-11.72 3.74,-4.95 50.81,-59.75c3.85,4.94 7.93,12.23 5.01,18.08c-1.5,3.02 -4.38,4.34 -6.61,6.5c-2.23,2.17 -3.82,6.58 -1.87,9.15c0.96,1.26 2.43,1.56 3.79,1.83c8.11,1.6 16.1,4.23 23.8,7.82c1,0.47 2.08,1.04 2.59,2.23c1.19,2.8 -1.64,5.57 -4.02,6.59c-8.21,3.54 1.27,5.2 -4.52,13.39c-1.38,1.95 -2.54,4.53 -2.06,7.08c0.65,3.52 3.88,5 6.65,5.9c5.89,1.91 -7.1,3.83 -1.21,5.74c1.78,0.58 3.66,1.23 4.94,2.9c1.91,2.47 1.91,6.61 0.63,9.66z" fill="#3997e6"/></g><g><path d="M235.6615,136.197c0.82,-1.94 0.82,-4.58 -0.4,-6.16c-0.82,-1.06 -2.01,-1.48 -3.15,-1.85c-3.75,-1.22 4.53,-2.44 0.77,-3.66c-1.77,-0.57 -3.82,-1.52 -4.24,-3.76c-0.31,-1.63 0.43,-3.27 1.31,-4.51c3.69,-5.22 -2.35,-6.28 2.88,-8.54c1.52,-0.65 3.32,-2.42 2.56,-4.2c-0.33,-0.76 -1.01,-1.12 -1.65,-1.42c-4.91,-2.29 -10,-3.96 -15.17,-4.98c-0.87,-0.17 -1.8,-0.36 -2.42,-1.17c-1.24,-1.64 -0.23,-4.45 1.19,-5.83c1.42,-1.38 3.26,-2.22 4.21,-4.14c1.86,-3.73 -0.74,-8.38 -3.19,-11.53c0.45,-0.06 0.91,-0.09 1.36,-0.11c9.56,-0.5 18.51,4.25 26.89,8.87c4.72,2.6 9.47,5.22 13.65,8.62c4.62,3.77 8.43,8.41 12.31,12.93c9.63,11.21 20.19,22.07 33.4,28.67c11.35,5.67 24.06,7.91 36.57,10.08l-118.02,0.95c2.59,-0.81 5.08,-2.09 7.38,-3.81c1.5,-1.12 2.96,-2.5 3.77,-4.45z" fill="url(#color-6)"/><path d="M235.6615,136.197c-0.81,1.95 -2.27,3.33 -3.77,4.45c-2.29,1.72 -4.79,3 -7.38,3.81l-115.05,0.92c25.87,-1.8 50.8,-14.58 67.39,-34.52c6.21,-7.47 11.28,-15.87 17.89,-22.98c6.3,-6.78 14.47,-12.49 23.62,-13.44c2.45,3.15 5.05,7.8 3.19,11.53c-0.96,1.93 -2.79,2.77 -4.21,4.14c-1.42,1.38 -2.44,4.19 -1.19,5.83c0.61,0.8 1.55,0.99 2.42,1.17c5.17,1.02 10.26,2.7 15.17,4.98c0.64,0.3 1.33,0.66 1.65,1.42c0.76,1.78 -1.05,3.55 -2.56,4.2c-5.23,2.26 0.81,3.31 -2.88,8.54c-0.88,1.24 -1.62,2.89 -1.31,4.51c0.41,2.24 2.47,3.19 4.24,3.76c3.75,1.22 -4.53,2.44 -0.77,3.66c1.13,0.37 2.33,0.78 3.15,1.85c1.22,1.57 1.22,4.21 0.4,6.16z" fill="#3997e6"/></g><g fill="#006837"><path d="M359.5115,103.417h-22.1l11.05,-19.51z"/><path d="M361.6515,113.027h-26.37l13.18,-16.97z"/><path d="M358.5415,120.187h-20.15l10.07,-12.98z"/><path d="M358.5415,127.757h-20.15l10.07,-12.98z"/><path d="M363.6215,139.697h-30.31l15.15,-19.51z"/></g><g fill="#006837"><path d="M414.3915,103.167h-10.85l5.43,-14.46z"/><path d="M415.4415,110.297h-12.94l6.47,-12.59z"/><path d="M413.9115,115.597h-9.89l4.95,-9.62z"/><path d="M413.9115,121.207h-9.89l4.95,-9.62z"/><path d="M416.4015,130.057h-14.87l7.44,-14.46z"/></g><g fill="#467e6d"><path d="M336.8115,115.327h-19.95l9.98,-17.62z"/><path d="M338.7415,124.007h-23.81l11.91,-15.33z"/><path d="M335.9315,130.467h-18.19l9.1,-11.72z"/><path d="M335.9315,137.297h-18.19l9.1,-11.71z"/><path d="M340.5215,148.077h-27.36l13.68,-17.61z"/></g><g fill="#006837"><path d="M395.0915,86.007h-12.48l6.24,-15.03z"/><path d="M396.3015,93.407h-14.9l7.45,-13.08z"/><path d="M395.0915,99.867h-12.48l6.24,-15.03z"/><path d="M396.3015,107.267h-14.9l7.45,-13.07z"/><path d="M399.7315,112.277h-21.76l10.88,-19.1z"/><path d="M405.6815,122.277h-33.66l16.83,-21.68z"/><path d="M404.0015,131.317h-30.31l15.16,-19.51z"/></g><g><g fill="#467e6d"><path d="M25.9315,113.747h-20.06l10.03,-22.2z"/><path d="M27.8615,124.687h-23.93l11.97,-19.32z"/><path d="M25.0415,132.827h-18.29l9.15,-14.77z"/><path d="M25.0415,141.437h-18.29l9.15,-14.76z"/><path d="M29.6515,155.027h-27.51l13.76,-22.2z"/></g><g fill="#006837"><path d="M12.1715,128.837h-20.06l10.03,-17.71z"/><path d="M14.1115,137.567h-23.94l11.97,-15.41z"/><path d="M11.2915,144.057h-18.3l9.15,-11.78z"/><path d="M11.2915,150.927h-18.3l9.15,-11.77z"/><path d="M15.9015,161.767h-27.52l13.76,-17.71z"/></g><g fill="#006837"><path d="M61.9815,128.617h-9.84l4.92,-13.13z"/><path d="M62.9415,135.077h-11.75l5.87,-11.42z"/><path d="M61.5515,139.897h-8.98l4.49,-8.73z"/><path d="M61.5515,144.987h-8.98l4.49,-8.73z"/><path d="M63.8115,153.017h-13.5l6.75,-13.12z"/></g><g fill="#006837"><path d="M44.4615,113.037h-11.33l5.67,-13.65z"/><path d="M45.5615,119.757h-13.52l6.76,-11.87z"/><path d="M44.4615,125.617h-11.33l5.67,-13.65z"/><path d="M45.5615,132.337h-13.52l6.76,-11.87z"/><path d="M48.6715,136.877h-19.75l9.88,-17.34z"/><path d="M54.0815,145.957h-30.56l15.28,-19.68z"/><path d="M52.5515,154.167h-27.51l13.76,-17.72z"/></g></g><path d="M919.7015,145.047c15.02,7.79 28.09,20.54 43.94,24.39v201.2h-487.61v-8.56h-483.93v-208.89c37.46,4.64 76.12,-3.95 112.12,-16.7c1.93,-0.69 3.85,-1.38 5.77,-2.09c13.37,-4.93 26.71,-10.42 40.85,-12.36c25.13,-3.47 50.24,4.51 74.8,10.79c5.08,1.3 10.2,2.53 15.34,3.66c32.21,7.13 65.45,10.62 97.78,4.77c7.12,-1.29 14.33,-3.02 21.54,-4.77c23.38,-5.67 46.96,-11.51 68.81,-3.05c2.27,0.88 4.49,1.91 6.67,3.05c15.02,7.79 28.09,20.54 43.94,24.39v1.28c36.31,3.66 73.61,-4.78 108.43,-17.11c1.93,-0.69 3.85,-1.38 5.77,-2.09c13.37,-4.93 26.71,-10.42 40.85,-12.36c25.13,-3.47 50.24,4.51 74.8,10.79c5.08,1.3 10.2,2.53 15.34,3.66c32.21,7.13 65.45,10.62 97.78,4.77c7.12,-1.29 14.33,-3.02 21.54,-4.77c23.38,-5.67 46.96,-11.51 68.81,-3.05c2.27,0.88 4.49,1.91 6.67,3.05z" fill="url(#color-7)"/><g><path d="M190.6915,136.227c0,-3.31923 2.69077,-6.01 6.01,-6.01c3.31923,0 6.01,2.69077 6.01,6.01c0,3.31923 -2.69077,6.01 -6.01,6.01c-3.31923,0 -6.01,-2.69077 -6.01,-6.01z" fill="#009245"/><path d="M201.9615,143.907c0,1.1 -0.2,2.15 -0.56,3.11h-16.54c-0.37,-0.97 -0.56,-2.02 -0.56,-3.11c0,-4.88 3.96,-8.84 8.84,-8.84c1.31,0 2.56,0.29 3.68,0.8c1.37,0.63 2.56,1.6 3.44,2.8c0.53,0.72 0.95,1.52 1.24,2.38c0.31,0.9 0.47,1.85 0.47,2.85z" fill="#006837"/><path d="M196.7015,134.707c0,-3.64508 2.95492,-6.6 6.6,-6.6c3.64508,0 6.6,2.95492 6.6,6.6c0,3.64508 -2.95492,6.6 -6.6,6.6c-3.64508,0 -6.6,-2.95492 -6.6,-6.6z" fill="#006837"/><path d="M207.2315,136.287c0,-3.26953 2.65047,-5.92 5.92,-5.92c3.26953,0 5.92,2.65047 5.92,5.92c0,3.26953 -2.65047,5.92 -5.92,5.92c-3.26953,0 -5.92,-2.65047 -5.92,-5.92z" fill="#006837"/><path d="M211.0015,140.337c0,-3.31923 2.69077,-6.01 6.01,-6.01c3.31923,0 6.01,2.69077 6.01,6.01c0,3.31923 -2.69077,6.01 -6.01,6.01c-3.31923,0 -6.01,-2.69077 -6.01,-6.01z" fill="#006837"/><path d="M224.0715,147.017h-12.99c0.17,-1.09 0.61,-2.08 1.24,-2.92c0.49,-0.65 1.1,-1.21 1.8,-1.64c1,-0.62 2.19,-0.98 3.45,-0.98c1.8,0 3.43,0.73 4.62,1.9c0.98,0.96 1.65,2.23 1.87,3.65z" fill="#006837"/><path d="M208.2115,144.487c0,0.41 -0.03,0.82 -0.09,1.21c-0.07,0.45 -0.17,0.9 -0.31,1.33h-15.72c-0.26,-0.8 -0.4,-1.65 -0.4,-2.54c0,-1.69 0.51,-3.27 1.38,-4.58c0.3,-0.44 0.63,-0.86 1.01,-1.23c1.49,-1.51 3.57,-2.45 5.87,-2.45c0.38,0 0.75,0.03 1.12,0.08c0.8,0.11 1.56,0.33 2.27,0.65c0.69,0.31 1.34,0.72 1.91,1.2c1.23,1.03 2.16,2.41 2.63,4c0.03,0.1 0.06,0.2 0.08,0.31c0.17,0.65 0.25,1.33 0.25,2.03z" fill="#009245"/><path d="M214.6615,145.067c0,0.32 -0.02,0.63 -0.07,0.93c-0.05,0.35 -0.13,0.69 -0.24,1.02h-12.09c-0.2,-0.61 -0.31,-1.27 -0.31,-1.95c0,-1.3 0.39,-2.51 1.06,-3.52c0.23,-0.34 0.49,-0.66 0.78,-0.95c1.15,-1.16 2.74,-1.88 4.51,-1.88c0.29,0 0.58,0.02 0.86,0.06c0.61,0.08 1.2,0.25 1.75,0.5c0.53,0.24 1.03,0.55 1.47,0.92c0.95,0.79 1.66,1.86 2.02,3.07c0.02,0.08 0.04,0.16 0.06,0.24c0.13,0.5 0.19,1.02 0.19,1.56z" fill="#009245"/></g><path d="M969.2915,377.787c-33.05,-13.1 -70.11,-4.11 -105.62,-2.3c-49.69,2.53 -98.89,-9.46 -148.53,-12.82c-51.5,-3.49 -103.19,2.32 -154.8,1.36c-44.44,-0.83 -88.61,-6.69 -132.66,-12.53c-66.6,-8.84 -133.21,-17.67 -199.81,-26.51c-26.06,-3.46 -52.21,-6.92 -78.5,-6.82c-58.5,0.22 -118.11,17.94 -174.59,2.7l8.63,-179.21c56.48,15.24 116.09,-2.48 174.59,-2.7c26.29,-0.1 52.44,3.37 78.5,6.82c66.6,8.84 133.21,17.67 199.81,26.51c44.06,5.84 88.23,11.7 132.66,12.53c51.61,0.97 103.3,-4.84 154.8,-1.36c49.64,3.36 98.84,15.35 148.53,12.82c35.51,-1.81 72.57,-10.8 105.62,2.3z" fill="#ffffff"/><g><path d="M-13.0085,182.537v0c-2.28,0.29 -2.25,-3.29 0,-3.57c5.55,-0.7 11.12,-1.31 16.69,-1.8c44.47,-3.93 89.23,-1.28 133.58,2.98c45.12,4.34 90.08,10.41 135.3,13.66c22.64,1.63 45.33,2.51 68.03,2.12c23,-0.39 45.94,-1.37 68.78,2.11c22.54,3.44 44.63,9.52 66.93,14.18c22.66,4.73 45.44,8.86 68.31,12.41c46.02,7.13 92.4,11.84 138.9,14.2c2.29,0.11 2.3,3.69 0,3.57c-5.86,-0.3 -11.72,-0.63 -17.58,-1c-45.87,-2.91 -91.6,-8.15 -136.94,-15.69c-22.81,-3.8 -45.8,-8.24 -68.09,-13.16c-22.29,-4.92 -44.49,-11 -67.32,-12.8c-23.37,-1.85 -46.87,0.03 -70.28,-0.19c-22.45,-0.21 -44.87,-1.57 -67.23,-3.49c-45.37,-3.88 -90.51,-10.06 -135.89,-13.9c-44.29,-3.75 -88.98,-5.21 -133.18,0.36z" fill="url(#color-8)"/><path d="M-13.6785,172.417v0c-2.28,0.29 -2.25,-3.29 0,-3.57c5.55,-0.7 11.12,-1.31 16.69,-1.8c44.47,-3.93 89.23,-1.28 133.58,2.98c45.12,4.34 90.08,10.41 135.3,13.66c22.64,1.63 45.33,2.51 68.03,2.12c23,-0.39 45.94,-1.37 68.78,2.11c22.54,3.44 44.27,9.45 66.93,14.18c22.66,4.73 45.44,8.86 68.31,12.41c46.02,7.13 92.4,11.84 138.9,14.2c2.29,0.11 2.3,3.69 0,3.57c-5.86,-0.3 -11.72,-0.63 -17.58,-1c-45.87,-2.91 -91.6,-8.15 -136.94,-15.69c-22.81,-3.8 -45.51,-8.18 -68.09,-13.16c-22.29,-4.92 -43.95,-10.95 -67.32,-12.8c-23.37,-1.85 -46.87,0.03 -70.28,-0.19c-22.45,-0.21 -44.87,-1.57 -67.23,-3.49c-45.37,-3.88 -90.51,-10.06 -135.89,-13.9c-44.29,-3.75 -88.98,-5.21 -133.18,0.36z" fill="url(#color-9)"/></g><g><path d="M-115.5585,198.997v0c-1.87,-0.5 -0.83,-3.32 1.02,-2.82c13.15,3.55 26.75,5.04 40.33,5.66c24.23,1.1 48.55,-0.54 72.73,1.77c5.99,0.58 11.97,1.39 17.88,2.56c6.05,1.19 11.82,2.81 17.94,4.45c6.12,1.64 12.27,3.06 18.6,3.55c6.42,0.5 12.86,0.26 19.29,0.03c1.93,-0.07 1.67,2.92 -0.24,2.99c-7.24,0.26 -14.53,0.53 -21.75,-0.26c-7.02,-0.76 -13.85,-2.65 -20.65,-4.5c-11.97,-3.27 -24.02,-5.35 -36.4,-6.26c-12.1,-0.89 -24.24,-0.91 -36.37,-0.91c-24.25,0.01 -48.8,0.1 -72.39,-6.27z" fill="url(#color-10)"/><path d="M-128.4785,203.927c-1.97,-0.46 -0.87,-3.42 1.08,-2.96c15.26,3.61 30.9,5.23 46.53,6.04c28.03,1.45 56.17,0.26 84.15,2.86c7.01,0.66 14.01,1.55 20.95,2.79c7,1.25 13.89,2.96 20.8,4.58c7.05,1.65 14.14,3.05 21.37,3.6c7.32,0.56 14.67,0.44 22.01,0.32c2.03,-0.03 1.76,3.11 -0.25,3.14c-8.32,0.13 -16.66,0.27 -24.94,-0.58c-8.04,-0.82 -15.91,-2.72 -23.75,-4.59c-13.73,-3.28 -27.54,-5.48 -41.61,-6.56c-14.15,-1.09 -28.36,-1.31 -42.55,-1.5c-28.05,-0.37 -56.35,-0.64 -83.79,-7.14z" fill="url(#color-11)"/></g><g><path d="M-174.7585,231.667v0c-2.26,-0.43 -1.3,-3.87 0.95,-3.45c37.76,7.04 75.75,12.89 113.89,17.47c33.59,4.04 67.29,7.11 101.06,9.23c34.52,2.17 69.09,3.45 103.62,5.34c68.18,3.73 136.03,11.2 203.25,23.26c2.26,0.41 1.3,3.85 -0.95,3.45c-38.04,-6.83 -76.31,-12.28 -114.75,-16.32c-68.36,-7.17 -137.06,-8.27 -205.58,-13.12c-67.59,-4.79 -134.89,-13.45 -201.49,-25.87z" fill="url(#color-12)"/><path d="M-175.8485,245.357v0c-2.26,-0.43 -1.3,-3.87 0.95,-3.45c37.76,7.04 75.75,12.89 113.89,17.47c33.59,4.04 66.54,7.06 101.06,9.23c34.52,2.17 69.09,3.45 103.62,5.34c68.18,3.73 136.03,11.2 203.25,23.26c2.26,0.41 1.3,3.85 -0.95,3.45c-38.04,-6.83 -76.31,-12.28 -114.75,-16.32c-68.36,-7.17 -137.06,-8.27 -205.58,-13.12c-67.59,-4.79 -134.89,-13.45 -201.49,-25.87z" fill="url(#color-13)"/></g><path d="M276.3115,39.577l-1.44,-0.41c-1.16,-0.54 -0.61,-2.32 0.27,-3.24c3.57,-3.77 9.32,-4.45 14.49,-3.99c5.17,0.47 10.32,1.84 15.48,1.29c4.61,-0.49 9.08,-2.51 13.69,-2.03c4.17,0.44 7.82,2.86 11.49,4.89c1.38,0.76 2.85,1.49 4.42,1.49c1.6,0 3.08,-0.74 4.58,-1.3c7.98,-2.98 16.87,-0.78 25.06,1.58c2.29,0.66 4.64,1.34 7.02,1.15c1.73,-0.14 3.4,-0.74 5.04,-1.33c6.07,-2.17 12.63,-4.23 18.87,-2.58c2.3,0.61 4.46,1.7 6.79,2.17c4.83,0.96 10.26,-0.79 14.53,1.67c-23.66,4.91 -48.05,8.67 -71.94,5.01c-6.92,-1.06 -13.74,-2.74 -20.68,-3.62c-15.78,-2 -31.79,0.12 -47.67,-0.77z" fill="#ffffff"/><path d="M-20.4285,72.297l-1.44,-0.41c-1.16,-0.54 -0.61,-2.32 0.27,-3.24c3.57,-3.77 9.32,-4.45 14.49,-3.99c5.17,0.47 10.32,1.84 15.48,1.29c4.61,-0.49 9.08,-2.51 13.69,-2.03c4.17,0.44 7.82,2.86 11.49,4.89c1.38,0.76 2.85,1.49 4.42,1.49c1.6,0 3.08,-0.74 4.58,-1.3c7.98,-2.98 16.87,-0.78 25.06,1.58c2.29,0.66 4.64,1.34 7.02,1.15c1.73,-0.14 3.4,-0.74 5.04,-1.33c6.07,-2.17 12.63,-4.23 18.87,-2.58c2.3,0.61 4.46,1.7 6.79,2.17c4.83,0.96 10.26,-0.79 14.53,1.67c-23.66,4.91 -48.05,8.67 -71.94,5.01c-6.92,-1.06 -13.74,-2.74 -20.68,-3.62c-15.78,-2 -31.79,0.12 -47.67,-0.77z" fill="#ffffff"/><g><g><path d="M30.6215,302.027c0,-3.31923 2.69077,-6.01 6.01,-6.01c3.31923,0 6.01,2.69077 6.01,6.01c0,3.31923 -2.69077,6.01 -6.01,6.01c-3.31923,0 -6.01,-2.69077 -6.01,-6.01z" fill="#1c9274"/><path d="M28.6015,311.597c0,-1 0.16,-1.95 0.47,-2.85c0.29,-0.86 0.71,-1.66 1.24,-2.38c0.88,-1.2 2.07,-2.17 3.44,-2.8c1.12,-0.51 2.37,-0.8 3.68,-0.8c4.88,0 8.84,3.96 8.84,8.84c0,1.09 -0.19,2.14 -0.56,3.11h-16.54c-0.36,-0.96 -0.56,-2.01 -0.56,-3.11z" fill="#146857"/><path d="M20.6815,302.407c0,-3.64508 2.95492,-6.6 6.6,-6.6c3.64508,0 6.6,2.95492 6.6,6.6c0,3.64508 -2.95492,6.6 -6.6,6.6c-3.64508,0 -6.6,-2.95492 -6.6,-6.6z" fill="#146857"/><path d="M15.9215,306.417c0,-3.26953 2.65047,-5.92 5.92,-5.92c3.26953,0 5.92,2.65047 5.92,5.92c0,3.26953 -2.65047,5.92 -5.92,5.92c-3.26953,0 -5.92,-2.65047 -5.92,-5.92z" fill="#146857"/><path d="M41.3515,302.767c0,-3.26953 2.65047,-5.92 5.92,-5.92c3.26953,0 5.92,2.65047 5.92,5.92c0,3.26953 -2.65047,5.92 -5.92,5.92c-3.26953,0 -5.92,-2.65047 -5.92,-5.92z" fill="#146857"/><path d="M49.7115,303.917c0,-3.26953 2.65047,-5.92 5.92,-5.92c3.26953,0 5.92,2.65047 5.92,5.92c0,3.26953 -2.65047,5.92 -5.92,5.92c-3.26953,0 -5.92,-2.65047 -5.92,-5.92z" fill="#146857"/><path d="M7.5515,308.037c0,-3.31923 2.69077,-6.01 6.01,-6.01c3.31923,0 6.01,2.69077 6.01,6.01c0,3.31923 -2.69077,6.01 -6.01,6.01c-3.31923,0 -6.01,-2.69077 -6.01,-6.01z" fill="#146857"/><path d="M6.5215,314.727c0.22,-1.42 0.89,-2.69 1.87,-3.65c1.19,-1.17 2.82,-1.9 4.62,-1.9c1.26,0 2.45,0.36 3.45,0.98c0.7,0.43 1.31,0.99 1.8,1.64c0.63,0.84 1.07,1.83 1.24,2.92h-12.99z" fill="#146857"/><path d="M22.3615,312.187c0,-0.7 0.08,-1.38 0.25,-2.03c0.02,-0.11 0.05,-0.21 0.08,-0.31c0.47,-1.59 1.4,-2.97 2.63,-4c0.57,-0.48 1.22,-0.89 1.91,-1.2c0.71,-0.32 1.47,-0.54 2.27,-0.65c0.37,-0.05 0.74,-0.08 1.12,-0.08c2.3,0 4.38,0.94 5.87,2.45c0.38,0.37 0.71,0.79 1.01,1.23c0.87,1.31 1.38,2.89 1.38,4.58c0,0.89 -0.14,1.74 -0.4,2.54h-15.72c-0.14,-0.43 -0.24,-0.88 -0.31,-1.33c-0.06,-0.39 -0.09,-0.8 -0.09,-1.21z" fill="#1c9274"/><path d="M15.9315,312.767c0,-0.54 0.06,-1.06 0.19,-1.56c0.02,-0.08 0.04,-0.16 0.06,-0.24c0.36,-1.21 1.07,-2.28 2.02,-3.07c0.44,-0.37 0.94,-0.68 1.47,-0.92c0.55,-0.25 1.14,-0.42 1.75,-0.5c0.28,-0.04 0.57,-0.06 0.86,-0.06c1.77,0 3.36,0.72 4.51,1.88c0.29,0.29 0.55,0.61 0.78,0.95c0.67,1.01 1.06,2.22 1.06,3.52c0,0.68 -0.11,1.34 -0.31,1.95h-12.09c-0.11,-0.33 -0.19,-0.67 -0.24,-1.02c-0.05,-0.3 -0.07,-0.61 -0.07,-0.93z" fill="#1c9274"/></g><g><path d="M66.7615,302.027c0,-3.31923 2.69077,-6.01 6.01,-6.01c3.31923,0 6.01,2.69077 6.01,6.01c0,3.31923 -2.69077,6.01 -6.01,6.01c-3.31923,0 -6.01,-2.69077 -6.01,-6.01z" fill="#1c9274"/><path d="M64.7415,311.597c0,-1 0.16,-1.95 0.47,-2.85c0.29,-0.86 0.71,-1.66 1.24,-2.38c0.88,-1.2 2.07,-2.17 3.44,-2.8c1.12,-0.51 2.37,-0.8 3.68,-0.8c4.88,0 8.84,3.96 8.84,8.84c0,1.09 -0.19,2.14 -0.56,3.11h-16.54c-0.36,-0.96 -0.56,-2.01 -0.56,-3.11z" fill="#146857"/><path d="M56.8215,302.407c0,-3.64508 2.95492,-6.6 6.6,-6.6c3.64508,0 6.6,2.95492 6.6,6.6c0,3.64508 -2.95492,6.6 -6.6,6.6c-3.64508,0 -6.6,-2.95492 -6.6,-6.6z" fill="#146857"/><path d="M52.0615,306.417c0,-3.26953 2.65047,-5.92 5.92,-5.92c3.26953,0 5.92,2.65047 5.92,5.92c0,3.26953 -2.65047,5.92 -5.92,5.92c-3.26953,0 -5.92,-2.65047 -5.92,-5.92z" fill="#146857"/><path d="M43.6915,308.037c0,-3.31923 2.69077,-6.01 6.01,-6.01c3.31923,0 6.01,2.69077 6.01,6.01c0,3.31923 -2.69077,6.01 -6.01,6.01c-3.31923,0 -6.01,-2.69077 -6.01,-6.01z" fill="#146857"/><path d="M42.6515,314.727c0.22,-1.42 0.89,-2.69 1.87,-3.65c1.19,-1.17 2.82,-1.9 4.62,-1.9c1.26,0 2.45,0.36 3.45,0.98c0.7,0.43 1.31,0.99 1.8,1.64c0.63,0.84 1.07,1.83 1.24,2.92h-12.99z" fill="#146857"/><path d="M58.5015,312.187c0,-0.7 0.08,-1.38 0.25,-2.03c0.02,-0.11 0.05,-0.21 0.08,-0.31c0.47,-1.59 1.4,-2.97 2.63,-4c0.57,-0.48 1.22,-0.89 1.91,-1.2c0.71,-0.32 1.47,-0.54 2.27,-0.65c0.37,-0.05 0.74,-0.08 1.12,-0.08c2.3,0 4.38,0.94 5.87,2.45c0.38,0.37 0.71,0.79 1.01,1.23c0.87,1.31 1.38,2.89 1.38,4.58c0,0.89 -0.14,1.74 -0.4,2.54h-15.72c-0.14,-0.43 -0.24,-0.88 -0.31,-1.33c-0.06,-0.39 -0.09,-0.8 -0.09,-1.21z" fill="#1c9274"/><path d="M52.0615,312.767c0,-0.54 0.06,-1.06 0.19,-1.56c0.02,-0.08 0.04,-0.16 0.06,-0.24c0.36,-1.21 1.07,-2.28 2.02,-3.07c0.44,-0.37 0.94,-0.68 1.47,-0.92c0.55,-0.25 1.14,-0.42 1.75,-0.5c0.28,-0.04 0.57,-0.06 0.86,-0.06c1.77,0 3.36,0.72 4.51,1.88c0.29,0.29 0.55,0.61 0.78,0.95c0.67,1.01 1.06,2.22 1.06,3.52c0,0.68 -0.11,1.34 -0.31,1.95h-12.09c-0.11,-0.33 -0.19,-0.67 -0.24,-1.02c-0.05,-0.3 -0.07,-0.61 -0.07,-0.93z" fill="#1c9274"/></g><path d="M38.0315,312.187c0,-0.7 0.08,-1.38 0.25,-2.03c0.02,-0.11 0.05,-0.21 0.08,-0.31c0.47,-1.59 1.4,-2.97 2.63,-4c0.57,-0.48 1.22,-0.89 1.91,-1.2c0.71,-0.32 1.47,-0.54 2.27,-0.65c0.37,-0.05 0.74,-0.08 1.12,-0.08c2.3,0 4.38,0.94 5.87,2.45c0.38,0.37 0.71,0.79 1.01,1.23c0.87,1.31 1.38,2.89 1.38,4.58c0,0.89 -0.14,1.74 -0.4,2.54h-15.72c-0.14,-0.43 -0.24,-0.88 -0.31,-1.33c-0.06,-0.39 -0.09,-0.8 -0.09,-1.21z" fill="#1c9274"/></g><g><g><path d="M312.2715,322.677c0,-3.31923 2.69077,-6.01 6.01,-6.01c3.31923,0 6.01,2.69077 6.01,6.01c0,3.31923 -2.69077,6.01 -6.01,6.01c-3.31923,0 -6.01,-2.69077 -6.01,-6.01z" fill="#1c9274"/><path d="M310.2515,332.247c0,-1 0.16,-1.95 0.47,-2.85c0.29,-0.86 0.71,-1.66 1.24,-2.38c0.88,-1.2 2.07,-2.17 3.44,-2.8c1.12,-0.51 2.37,-0.8 3.68,-0.8c4.88,0 8.84,3.96 8.84,8.84c0,1.09 -0.19,2.14 -0.56,3.11h-16.54c-0.36,-0.96 -0.56,-2.01 -0.56,-3.11z" fill="#146857"/><path d="M302.3315,323.057c0,-3.64508 2.95492,-6.6 6.6,-6.6c3.64508,0 6.6,2.95492 6.6,6.6c0,3.64508 -2.95492,6.6 -6.6,6.6c-3.64508,0 -6.6,-2.95492 -6.6,-6.6z" fill="#146857"/><path d="M297.5715,327.067c0,-3.26953 2.65047,-5.92 5.92,-5.92c3.26953,0 5.92,2.65047 5.92,5.92c0,3.26953 -2.65047,5.92 -5.92,5.92c-3.26953,0 -5.92,-2.65047 -5.92,-5.92z" fill="#146857"/><path d="M323.0015,323.417c0,-3.26953 2.65047,-5.92 5.92,-5.92c3.26953,0 5.92,2.65047 5.92,5.92c0,3.26953 -2.65047,5.92 -5.92,5.92c-3.26953,0 -5.92,-2.65047 -5.92,-5.92z" fill="#146857"/><path d="M331.3615,324.577c0,-3.26953 2.65047,-5.92 5.92,-5.92c3.26953,0 5.92,2.65047 5.92,5.92c0,3.26953 -2.65047,5.92 -5.92,5.92c-3.26953,0 -5.92,-2.65047 -5.92,-5.92z" fill="#146857"/><path d="M289.2015,328.687c0,-3.31923 2.69077,-6.01 6.01,-6.01c3.31923,0 6.01,2.69077 6.01,6.01c0,3.31923 -2.69077,6.01 -6.01,6.01c-3.31923,0 -6.01,-2.69077 -6.01,-6.01z" fill="#146857"/><path d="M288.1715,335.377c0.22,-1.42 0.89,-2.69 1.87,-3.65c1.19,-1.17 2.82,-1.9 4.62,-1.9c1.26,0 2.45,0.36 3.45,0.98c0.7,0.43 1.31,0.99 1.8,1.64c0.63,0.84 1.07,1.83 1.24,2.92h-12.99z" fill="#146857"/><path d="M304.0115,332.847c0,-0.7 0.08,-1.38 0.25,-2.03c0.02,-0.11 0.05,-0.21 0.08,-0.31c0.47,-1.59 1.4,-2.97 2.63,-4c0.57,-0.48 1.22,-0.89 1.91,-1.2c0.71,-0.32 1.47,-0.54 2.27,-0.65c0.37,-0.05 0.74,-0.08 1.12,-0.08c2.3,0 4.38,0.94 5.87,2.45c0.38,0.37 0.71,0.79 1.01,1.23c0.87,1.31 1.38,2.89 1.38,4.58c0,0.89 -0.14,1.74 -0.4,2.54h-15.72c-0.14,-0.43 -0.24,-0.88 -0.31,-1.33c-0.06,-0.39 -0.09,-0.8 -0.09,-1.21z" fill="#1c9274"/><path d="M297.5715,333.417c0,-0.54 0.06,-1.06 0.19,-1.56c0.02,-0.08 0.04,-0.16 0.06,-0.24c0.36,-1.21 1.07,-2.28 2.02,-3.07c0.44,-0.37 0.94,-0.68 1.47,-0.92c0.55,-0.25 1.14,-0.42 1.75,-0.5c0.28,-0.04 0.57,-0.06 0.86,-0.06c1.77,0 3.36,0.72 4.51,1.88c0.29,0.29 0.55,0.61 0.78,0.95c0.67,1.01 1.06,2.22 1.06,3.52c0,0.68 -0.11,1.34 -0.31,1.95h-12.09c-0.11,-0.33 -0.19,-0.67 -0.24,-1.02c-0.05,-0.3 -0.07,-0.61 -0.07,-0.93z" fill="#1c9274"/></g><g><path d="M348.4115,322.677c0,-3.31923 2.69077,-6.01 6.01,-6.01c3.31923,0 6.01,2.69077 6.01,6.01c0,3.31923 -2.69077,6.01 -6.01,6.01c-3.31923,0 -6.01,-2.69077 -6.01,-6.01z" fill="#1c9274"/><path d="M346.3915,332.247c0,-1 0.16,-1.95 0.47,-2.85c0.29,-0.86 0.71,-1.66 1.24,-2.38c0.88,-1.2 2.07,-2.17 3.44,-2.8c1.12,-0.51 2.37,-0.8 3.68,-0.8c4.88,0 8.84,3.96 8.84,8.84c0,1.09 -0.19,2.14 -0.56,3.11h-16.54c-0.36,-0.96 -0.56,-2.01 -0.56,-3.11z" fill="#146857"/><path d="M338.4715,323.057c0,-3.64508 2.95492,-6.6 6.6,-6.6c3.64508,0 6.6,2.95492 6.6,6.6c0,3.64508 -2.95492,6.6 -6.6,6.6c-3.64508,0 -6.6,-2.95492 -6.6,-6.6z" fill="#146857"/><path d="M333.7015,327.067c0,-3.26953 2.65047,-5.92 5.92,-5.92c3.26953,0 5.92,2.65047 5.92,5.92c0,3.26953 -2.65047,5.92 -5.92,5.92c-3.26953,0 -5.92,-2.65047 -5.92,-5.92z" fill="#146857"/><path d="M325.3415,328.687c0,-3.31923 2.69077,-6.01 6.01,-6.01c3.31923,0 6.01,2.69077 6.01,6.01c0,3.31923 -2.69077,6.01 -6.01,6.01c-3.31923,0 -6.01,-2.69077 -6.01,-6.01z" fill="#146857"/><path d="M324.3015,335.377c0.22,-1.42 0.89,-2.69 1.87,-3.65c1.19,-1.17 2.82,-1.9 4.62,-1.9c1.26,0 2.45,0.36 3.45,0.98c0.7,0.43 1.31,0.99 1.8,1.64c0.63,0.84 1.07,1.83 1.24,2.92h-12.99z" fill="#146857"/><path d="M340.1515,332.847c0,-0.7 0.08,-1.38 0.25,-2.03c0.02,-0.11 0.05,-0.21 0.08,-0.31c0.47,-1.59 1.4,-2.97 2.63,-4c0.57,-0.48 1.22,-0.89 1.91,-1.2c0.71,-0.32 1.47,-0.54 2.27,-0.65c0.37,-0.05 0.74,-0.08 1.12,-0.08c2.3,0 4.38,0.94 5.87,2.45c0.38,0.37 0.71,0.79 1.01,1.23c0.87,1.31 1.38,2.89 1.38,4.58c0,0.89 -0.14,1.74 -0.4,2.54h-15.72c-0.14,-0.43 -0.24,-0.88 -0.31,-1.33c-0.06,-0.39 -0.09,-0.8 -0.09,-1.21z" fill="#1c9274"/><path d="M333.7115,333.417c0,-0.54 0.06,-1.06 0.19,-1.56c0.02,-0.08 0.04,-0.16 0.06,-0.24c0.36,-1.21 1.07,-2.28 2.02,-3.07c0.44,-0.37 0.94,-0.68 1.47,-0.92c0.55,-0.25 1.14,-0.42 1.75,-0.5c0.28,-0.04 0.57,-0.06 0.86,-0.06c1.77,0 3.36,0.72 4.51,1.88c0.29,0.29 0.55,0.61 0.78,0.95c0.67,1.01 1.06,2.22 1.06,3.52c0,0.68 -0.11,1.34 -0.31,1.95h-12.09c-0.11,-0.33 -0.19,-0.67 -0.24,-1.02c-0.05,-0.3 -0.07,-0.61 -0.07,-0.93z" fill="#1c9274"/></g><path d="M319.6715,332.847c0,-0.7 0.08,-1.38 0.25,-2.03c0.02,-0.11 0.05,-0.21 0.08,-0.31c0.47,-1.59 1.4,-2.97 2.63,-4c0.57,-0.48 1.22,-0.89 1.91,-1.2c0.71,-0.32 1.47,-0.54 2.27,-0.65c0.37,-0.05 0.74,-0.08 1.12,-0.08c2.3,0 4.38,0.94 5.87,2.45c0.38,0.37 0.71,0.79 1.01,1.23c0.87,1.31 1.38,2.89 1.38,4.58c0,0.89 -0.14,1.74 -0.4,2.54h-15.72c-0.14,-0.43 -0.24,-0.88 -0.31,-1.33c-0.06,-0.39 -0.09,-0.8 -0.09,-1.21z" fill="#1c9274"/></g><path d="M928.7015,360.327c27.16,-7.63 55.35,5.58 80.47,18.42c-2.31,6.7 -10.68,8.72 -17.74,9.38c-41.08,3.82 -83.1,-3.57 -123.43,5.09c-24.07,5.17 -46.96,15.96 -71.49,18.01c-22.86,1.92 -45.56,-3.89 -68.04,-8.43c-73.04,-14.74 -147.97,-16.36 -222.32,-21.21c-16.97,-1.11 -35.77,-3.28 -47.1,-15.83c-26.51,-0.46 -53.01,-1.49 -78.83,4.05c-24.07,5.17 -46.96,15.96 -71.49,18.01c-22.86,1.92 -45.56,-3.89 -68.04,-8.43c-73.04,-14.74 -147.97,-16.36 -222.32,-21.21c-17.27,-1.13 -36.44,-3.35 -47.7,-16.5c-5.41,-6.31 -8.21,-14.37 -11.96,-21.79l-0.21,-4.98c26.33,2.94 53.16,1.31 78.95,-4.78c7.33,-1.73 14.7,-3.83 22.22,-3.61c12.94,0.38 24.6,7.52 37.07,10.98c27.61,7.66 57.46,-3.02 85.53,2.69c21.72,4.42 41.76,18.52 63.86,16.76c11.49,-0.92 22.13,-6.09 33.13,-9.54c11,-3.45 23.62,-5 33.53,0.89c3.04,1.81 5.77,4.3 9.17,5.31c5.59,1.67 11.42,-1 16.94,-2.9c14.64,-5.04 31.04,-4.76 45.49,0.8c11.34,4.36 22.11,11.96 34.25,11.44c7.71,-0.33 14.84,-3.95 22.27,-6.04c14.58,-4.09 29.45,-2.18 43.99,2.45c13.58,-0.76 27.09,-2.7 40.33,-5.83c7.33,-1.73 14.7,-3.83 22.22,-3.61c12.94,0.38 24.6,7.52 37.07,10.98c27.61,7.66 57.46,-3.02 85.53,2.69c21.72,4.42 41.76,18.52 63.86,16.76c11.49,-0.92 22.13,-6.09 33.13,-9.54c11,-3.45 23.62,-5 33.53,0.89c3.04,1.81 5.77,4.3 9.17,5.31c5.59,1.67 11.42,-1 16.94,-2.9c14.64,-5.04 31.04,-4.76 45.49,0.8c11.34,4.36 22.11,11.96 34.25,11.44c7.71,-0.33 14.84,-3.95 22.27,-6.04z" fill="url(#color-14)"/><g><g><path d="M418.5315,294.747l17.99,-13.29l11.71,12.26l-3.43,11.4l13.13,-0.28l-2.79,9.97l-18.05,6.4l-9.14,-0.31l-6.63,-4.08z" fill="#8e8e8e"/><path d="M442.5815,309.747l11.68,-4.91h3.67l-5.75,7.13l-6.63,3.41l-5.53,-0.27z" fill="#747474"/><path d="M433.7815,309.407l-4.35,-6.68l5.72,-1.69l-4.58,-5.63l5.38,-3.55l0.57,-10.4l11.71,12.26l-3.43,11.4l-7.71,16.09l-9.14,-0.31z" fill="#8e8e8e" style="mix-blend-mode: multiply"/><path d="M444.8015,305.117l9.46,-0.28l-11.68,4.91z" fill="#8e8e8e" style="mix-blend-mode: multiply"/><path d="M440.0215,315.107l5.53,0.27l4.68,-5l1.95,1.59l5.75,-7.13l-2.79,9.97l-18.05,6.4z" fill="#8e8e8e" style="mix-blend-mode: multiply"/><path d="M428.6315,296.687l-5.37,-3.46l7.31,-4z" fill="#8e8e8e" style="mix-blend-mode: multiply"/><path d="M418.5315,294.747l10.9,7.98l4.35,6.68l-5.83,11.49l-6.63,-4.08z" fill="#747474"/></g><path d="M420.1115,290.687c4.11,-5.92 15.04,-9.9 18.13,-10.16c2.25,-0.19 6.18,6.21 8.38,10.16c0.57,1.02 -0.47,2.19 -1.55,1.75v0c-0.24,-0.09 -0.51,-0.11 -0.76,-0.05l-4.46,1.11c-0.05,0.02 -0.15,0.05 -0.15,0.05l-5.03,1.95c-0.52,0.21 -1.12,0.03 -1.45,-0.43l-0.88,-1.22c-0.36,-0.51 -1.05,-0.67 -1.6,-0.37l-5.08,2.77c-0.48,0.26 -1.06,0.18 -1.45,-0.19l-3.94,-3.75c-0.44,-0.43 -0.51,-1.11 -0.16,-1.62z" fill="#f5ffff"/><path d="M434.7315,300.527c0,1.24 -3.8,2.2 -5.3,2.2c-1.5,0 -1.48,-1.35 -1.48,-2.6c0,-1.25 1.21,-2.25 2.71,-2.25c1.5,0 4.07,1.4 4.07,2.64z" fill="#ffffff"/><path d="M421.7815,293.757l-1.9,-1.88l3.76,-4.78l8.39,-4.77l6.55,-1.89l2.51,1.96c0,0 -17.43,6.77 -19.31,11.35z" fill="#f5ffff" style="mix-blend-mode: multiply"/></g><g><path d="M319.0415,169.657c0,6.44 -7.54,11.66 -16.84,11.66c-9.3,0 -16.83,-5.22 -16.83,-11.66c0,-1.06 0.2,-2.2 0.58,-3.36c1.94,-5.9 8.48,-12.42 16.25,-12.42c7.77,0 14.31,6.52 16.25,12.42c0.38,1.16 0.58,2.3 0.58,3.36z" fill="#747474"/><path d="M318.4515,166.297c-1.94,4.95 -8.48,8.6 -16.25,8.6c-7.77,0 -14.3,-3.64 -16.25,-8.6c1.94,-5.9 8.48,-12.42 16.25,-12.42c7.77,0 14.31,6.52 16.25,12.42z" fill="#8e8e8e"/><path d="M313.2115,160.077c0,0 13.33,9.41 0,18.4c0,0 -4.38,3.35 -13.94,2.53c0,0 28.14,-7.02 13.94,-20.93z" fill="#8e8e8e" style="mix-blend-mode: multiply"/><path d="M295.5015,166.097c0,0 20.36,-3.56 20.6,-3.41c0.24,0.15 2.33,1.61 -2.44,3.78c-4.77,2.17 -18.17,-0.37 -18.17,-0.37z" fill="#747474"/><path d="M288.4515,159.347c14.24,-17.92 29.05,-0.27 29.05,2.98c0.01,2.59 -12.03,4.25 -19.16,4.13c-4.88,-0.08 -8.18,-2.77 -9.77,-4.46c-0.69,-0.73 -0.74,-1.86 -0.11,-2.65z" fill="#f5ffff"/><path d="M288.9515,161.257c0,0 22.07,8.35 28.26,0l0.29,1.07c0,0 -0.66,5.23 -19.81,4.14c0,0 -6.2,-1.46 -8.74,-5.21z" fill="#f5ffff" style="mix-blend-mode: multiply"/><g><path d="M328.7615,176.747c0,2.03 -3.17,3.68 -7.09,3.68c-3.92,0 -7.09,-1.65 -7.09,-3.68c0,-0.33 0.09,-0.69 0.25,-1.06c0.82,-1.86 3.57,-3.92 6.84,-3.92c3.27,0 6.03,2.06 6.85,3.92c0.16,0.37 0.25,0.73 0.25,1.06z" fill="#747474"/><path d="M328.5215,175.687c-0.82,1.56 -3.57,2.71 -6.85,2.71c-3.28,0 -6.03,-1.15 -6.84,-2.71c0.82,-1.86 3.57,-3.92 6.84,-3.92c3.27,0 6.03,2.06 6.85,3.92z" fill="#8e8e8e"/><path d="M326.3115,173.727c0,0 5.61,2.97 0,5.8c0,0 -1.85,1.06 -5.87,0.8c0,0 11.85,-2.21 5.87,-6.6z" fill="#8e8e8e" style="mix-blend-mode: multiply"/><path d="M327.5215,174.557c0.1,0.05 0.98,0.51 -1.03,1.19c-2.01,0.68 -7.65,-0.12 -7.65,-0.12c0,0 8.58,-1.12 8.68,-1.07z" fill="#747474"/><path d="M315.8815,173.507c6,-5.65 12.24,-0.08 12.24,0.94c0,0.81 -5.07,1.34 -8.07,1.3c-2.06,-0.03 -3.45,-0.88 -4.12,-1.41c-0.29,-0.23 -0.31,-0.59 -0.05,-0.84z" fill="#f5ffff"/><path d="M316.0915,174.097c0,0 9.3,2.63 11.9,0l0.12,0.34c0,0 -0.28,1.65 -8.35,1.31c0,0 -2.61,-0.46 -3.68,-1.64z" fill="#f5ffff" style="mix-blend-mode: multiply"/></g></g><g><path d="M193.3915,284.597l17.07,-5.52l12.24,-2.07l13.89,7.59l-7.83,10.94l-18.99,-1.49z" fill="#747474"/><path d="M189.9615,297.957l3.43,-13.36l16.38,9.45l18.99,1.49l7.83,-10.94l4.65,11.52l-4.65,7.94l-21.03,3.11l-14.77,-1.15z" fill="#8e8e8e" style="mix-blend-mode: multiply"/><path d="M193.3915,284.597l17.07,-5.52l12.24,-2.07l-12.93,17.04z" fill="#8e8e8e" style="mix-blend-mode: screen"/><path d="M228.7615,295.537l7.83,-10.94l4.65,11.52l-4.65,7.94l-21.03,3.11l-14.77,-1.15l8.98,-11.97z" fill="#747474" style="mix-blend-mode: multiply"/></g><g><path d="M412.1815,182.817l2.23,-5.48l3.11,-5.06l7.37,8.99l-2.3,6.22z" fill="#8e8e8e" style="mix-blend-mode: multiply"/><path d="M424.8915,181.267l-7.37,-8.99l11.52,1.15l4.74,9.65l-11.19,4.41z" fill="#747474"/><path d="M424.8915,181.267l4.15,-7.84l4.74,9.65l-11.19,4.41z" fill="#747474" style="mix-blend-mode: multiply"/><path d="M424.8915,181.267l-2.3,6.22l-10.41,-4.67l2.23,-5.48l1.65,5.46z" fill="#747474"/></g><g><path d="M340.9815,234.727c0,-3.31923 2.69077,-6.01 6.01,-6.01c3.31923,0 6.01,2.69077 6.01,6.01c0,3.31923 -2.69077,6.01 -6.01,6.01c-3.31923,0 -6.01,-2.69077 -6.01,-6.01z" fill="#009245"/><path d="M352.2515,242.417c0,1.1 -0.2,2.15 -0.56,3.11h-16.54c-0.37,-0.97 -0.56,-2.02 -0.56,-3.11c0,-4.88 3.96,-8.84 8.84,-8.84c1.31,0 2.56,0.29 3.68,0.8c1.37,0.63 2.56,1.6 3.44,2.8c0.53,0.72 0.95,1.52 1.24,2.38c0.31,0.9 0.47,1.85 0.47,2.85z" fill="#006837"/><path d="M346.9915,233.217c0,-3.64508 2.95492,-6.6 6.6,-6.6c3.64508,0 6.6,2.95492 6.6,6.6c0,3.64508 -2.95492,6.6 -6.6,6.6c-3.64508,0 -6.6,-2.95492 -6.6,-6.6z" fill="#006837"/><path d="M357.5215,234.797c0,-3.26953 2.65047,-5.92 5.92,-5.92c3.26953,0 5.92,2.65047 5.92,5.92c0,3.26953 -2.65047,5.92 -5.92,5.92c-3.26953,0 -5.92,-2.65047 -5.92,-5.92z" fill="#006837"/><path d="M361.2915,238.847c0,-3.31923 2.69077,-6.01 6.01,-6.01c3.31923,0 6.01,2.69077 6.01,6.01c0,3.31923 -2.69077,6.01 -6.01,6.01c-3.31923,0 -6.01,-2.69077 -6.01,-6.01z" fill="#006837"/><path d="M374.3615,245.527h-12.99c0.17,-1.09 0.61,-2.08 1.24,-2.92c0.49,-0.65 1.1,-1.21 1.8,-1.64c1,-0.62 2.19,-0.98 3.45,-0.98c1.8,0 3.43,0.73 4.62,1.9c0.98,0.96 1.65,2.23 1.87,3.65z" fill="#006837"/><path d="M358.5015,242.987c0,0.41 -0.03,0.82 -0.09,1.21c-0.07,0.45 -0.17,0.9 -0.31,1.33h-15.72c-0.26,-0.8 -0.4,-1.65 -0.4,-2.54c0,-1.69 0.51,-3.27 1.38,-4.58c0.3,-0.44 0.63,-0.86 1.01,-1.23c1.49,-1.51 3.57,-2.45 5.87,-2.45c0.38,0 0.75,0.03 1.12,0.08c0.8,0.11 1.56,0.33 2.27,0.65c0.69,0.31 1.34,0.72 1.91,1.2c1.23,1.03 2.16,2.41 2.63,4c0.03,0.1 0.06,0.2 0.08,0.31c0.17,0.65 0.25,1.33 0.25,2.03z" fill="#009245"/><path d="M364.9515,243.577c0,0.32 -0.02,0.63 -0.07,0.93c-0.05,0.35 -0.13,0.69 -0.24,1.02h-12.09c-0.2,-0.61 -0.31,-1.27 -0.31,-1.95c0,-1.3 0.39,-2.51 1.06,-3.52c0.23,-0.34 0.49,-0.66 0.78,-0.95c1.15,-1.16 2.74,-1.88 4.51,-1.88c0.29,0 0.58,0.02 0.86,0.06c0.61,0.08 1.2,0.25 1.75,0.5c0.53,0.24 1.03,0.55 1.47,0.92c0.95,0.79 1.66,1.86 2.02,3.07c0.02,0.08 0.04,0.16 0.06,0.24c0.13,0.5 0.19,1.02 0.19,1.56z" fill="#009245"/></g></g><path d="M236.09,169.07c0,-0.48049 0.38951,-0.87 0.87,-0.87c0.48049,0 0.87,0.38951 0.87,0.87c0,0.48049 -0.38951,0.87 -0.87,0.87c-0.48049,0 -0.87,-0.38951 -0.87,-0.87z" fill="none"/></g></g></svg>