<svg version="1.1" xmlns="http://www.w3.org/2000/svg" xmlns:xlink="http://www.w3.org/1999/xlink" width="127.01887" height="81.57814" viewBox="0,0,127.01887,81.57814"><g transform="translate(-78.67708,-123.26562)"><g data-paper-data="{&quot;isPaintingLayer&quot;:true}" fill-rule="nonzero" stroke-linecap="butt" stroke-linejoin="miter" stroke-miterlimit="10" stroke-dasharray="" stroke-dashoffset="0" style="mix-blend-mode: normal"><text transform="translate(83.67708,144.84375) scale(0.5,0.5)" font-size="40" xml:space="preserve" fill="#00c1ff" fill-rule="nonzero" stroke="none" stroke-width="1" stroke-linecap="butt" stroke-linejoin="miter" stroke-miterlimit="10" stroke-dasharray="" stroke-dashoffset="0" font-family="Sans Serif" font-weight="normal" text-anchor="start" style="mix-blend-mode: normal"><tspan x="0" dy="0">热门</tspan></text><path d="M78.67708,204.84376v-51h127.01887v51z" fill="#ffffff" stroke="none" stroke-width="0"/><text transform="translate(124.17708,183.88508) scale(0.37177,0.37177)" font-size="40" xml:space="preserve" fill="#00c1ff" fill-rule="nonzero" stroke="none" stroke-width="1" stroke-linecap="butt" stroke-linejoin="miter" stroke-miterlimit="10" stroke-dasharray="" stroke-dashoffset="0" font-family="Sans Serif" font-weight="normal" text-anchor="start" style="mix-blend-mode: normal"><tspan x="0" dy="0">orange音乐</tspan></text><path d="M81.80781,198.2672v-37.5h40.75v37.5z" fill="none" stroke="#00ffff" stroke-width="3.5"/><path d="M104.39,171.05v1.48c0,0.7 -0.6,1.24 -1.3,1.17l-3.64,-0.39c-0.67,3.4 -1.34,6.8 -2.01,10.2c0.09,0.14 0.18,0.29 0.27,0.44c0.27,0.63 0.59,1.66 0.19,2.72c0,0 -0.04,0.12 -0.1,0.24c-0.82,1.71 -3.04,2.95 -5.67,2.95c-3.32,0 -6.02,-1.96 -6.02,-4.38c0,-2.42 2.69,-4.38 6.02,-4.38c0.5,0 0.98,0.06 1.44,0.15l1.68,-11.38h7.96c0.65,0 1.18,0.53 1.18,1.18z" fill="#00c1ff" stroke="none" stroke-width="1"/><path d="M117.89,171.55v1.48c0,0.7 -0.6,1.24 -1.3,1.17l-3.64,-0.39c-0.67,3.4 -1.34,6.8 -2.01,10.2c0.09,0.14 0.18,0.29 0.27,0.44c0.27,0.63 0.59,1.66 0.19,2.72c0,0 -0.04,0.12 -0.1,0.24c-0.82,1.71 -3.04,2.95 -5.67,2.95c-3.32,0 -6.02,-1.96 -6.02,-4.38c0,-2.42 2.69,-4.38 6.02,-4.38c0.5,0 0.98,0.06 1.44,0.15l1.68,-11.38h7.96c0.65,0 1.18,0.53 1.18,1.18z" fill="#00c1ff" stroke="none" stroke-width="1"/></g></g></svg>